<?xml version="1.0" standalone="no"?>
<!DOCTYPE svg PUBLIC "-//W3C//DTD SVG 1.1//EN" "http://www.w3.org/Graphics/SVG/1.1/DTD/svg11.dtd" >
<svg xmlns="http://www.w3.org/2000/svg" xmlns:xlink="http://www.w3.org/1999/xlink" version="1.1">
<metadata>
Created by FontForge 20161116 at Sat Sep  2 10:33:22 2017
 By Jimmy Wärting
Copyright 1990 as an unpublished work by Bitstream Inc.  All rights reserved.  Confidential.
</metadata>
<defs>
<font id="CheltenhamBT-Roman" horiz-adv-x="500" >
  <font-face 
    font-family="Cheltenhm BT"
    font-weight="400"
    font-stretch="normal"
    units-per-em="1000"
    panose-1="0 0 0 0 0 0 0 0 0 0"
    ascent="800"
    descent="-200"
    x-height="393"
    cap-height="722"
    bbox="-167 -236 1101 963"
    underline-thickness="49"
    underline-position="-80"
    unicode-range="U+000D-FB02"
  />
<missing-glyph horiz-adv-x="252" 
 />
    <glyph glyph-name=".notdef" horiz-adv-x="252" 
 />
    <glyph glyph-name=".null" horiz-adv-x="0" 
 />
    <glyph glyph-name=".null" horiz-adv-x="0" 
 />
    <glyph glyph-name="nonmarkingreturn" unicode="&#xd;" horiz-adv-x="250" 
 />
    <glyph glyph-name="space" unicode=" " horiz-adv-x="252" 
 />
    <glyph glyph-name="exclam" unicode="!" horiz-adv-x="310" 
d="M97 676h116l-40 -520h-37zM95 54q0 24 17.5 42t42.5 18t42.5 -17.5t17.5 -42.5t-18 -42.5t-42 -17.5q-23 0 -41.5 18t-18.5 42z" />
    <glyph glyph-name="quotedbl" unicode="&#x22;" horiz-adv-x="335" 
d="M78 420l-34 224q-1 5 -1.5 10t-0.5 10q0 24 12 37t32 13q44 0 44 -52v-9t-1 -9l-34 -224h-17zM240 420l-34 224q-1 5 -1 9v9q0 52 43 52q20 0 32 -13t12 -37v-10t-1 -10l-34 -224h-17z" />
    <glyph glyph-name="numbersign" unicode="#" horiz-adv-x="769" 
d="M447 712l-79 -222h135l79 222h76l-79 -222h147l-24 -68h-147l-47 -135h156l-24 -68h-156l-79 -221h-76l79 221h-136l-79 -221h-75l78 221h-153l25 68h152l48 135h-164l25 68h163l79 222h76zM295 287h138l47 135h-137z" />
    <glyph glyph-name="dollar" unicode="$" horiz-adv-x="505" 
d="M219 -3q-89 5 -135.5 35.5t-46.5 78.5q0 29 15 46t38 17q22 0 34.5 -12.5t12.5 -33.5q0 -22 -10.5 -32t-10.5 -17q0 -14 26 -25t77 -13v273q-92 20 -136.5 59.5t-44.5 104.5q0 68 48 114t133 52v83h47v-83q75 -8 113.5 -35t38.5 -69q0 -26 -14.5 -42t-37.5 -16
q-20 0 -31.5 11.5t-11.5 31.5q0 21 10 30.5t10 16.5q0 9 -19.5 18t-57.5 13v-199q104 -27 153.5 -75t49.5 -125q0 -86 -53.5 -140.5t-149.5 -62.5v-98h-47v94zM266 41q60 2 94.5 36t34.5 89q0 52 -31 82.5t-98 49.5v-257zM219 603q-99 -6 -99 -91q0 -37 23.5 -57t75.5 -34
v182z" />
    <glyph glyph-name="percent" unicode="%" horiz-adv-x="771" 
d="M27 485q0 46 13 85t34.5 67.5t49 45t56.5 16.5q32 0 59.5 -14t48.5 -39.5t33 -61t12 -78.5q0 -46 -13 -85.5t-35 -68t-49 -44.5t-56 -16q-31 0 -59 14t-49 39.5t-33 61t-12 78.5zM180 664q-38 0 -54 -45.5t-16 -138.5q0 -79 13.5 -116.5t56.5 -37.5q71 0 71 169
q0 87 -13 128t-58 41zM437 192q0 46 13 85t35 67.5t49.5 45t56.5 16.5q32 0 59.5 -14t48.5 -39.5t33 -61t12 -78.5q0 -46 -13 -85.5t-35 -68t-49 -44.5t-56 -16q-31 0 -59 14t-49 39.5t-33.5 61t-12.5 78.5zM591 372q-38 0 -54.5 -46t-16.5 -139q0 -79 14 -116t57 -37
q70 0 70 169q0 86 -12.5 127.5t-57.5 41.5zM559 711h53l-400 -723h-53z" />
    <glyph glyph-name="ampersand" unicode="&#x26;" horiz-adv-x="735" 
d="M486 98q-48 -57 -99 -83.5t-115 -26.5q-49 0 -90.5 16t-71 44t-46 67.5t-16.5 85.5q0 140 164 214q-32 35 -48.5 66.5t-16.5 66.5q0 27 9.5 50.5t26.5 41t40 27t50 9.5q59 0 93.5 -33.5t34.5 -85.5q0 -40 -18.5 -69t-57.5 -52q51 -51 98.5 -105.5t92.5 -114.5
q52 82 52 122q0 20 -31 33q-13 5 -21.5 8t-8.5 15v21h191v-21q0 -10 -5 -13.5t-13.5 -6t-19 -6.5t-21.5 -15q-9 -9 -17.5 -25t-19 -38.5t-25 -50t-34.5 -59.5q44 -66 77 -99.5t62 -33.5q14 0 28 11l18 -28q-33 -42 -91 -42q-45 0 -77.5 28t-73.5 82zM462 137
q-37 54 -90 114.5t-123 132.5q-97 -50 -97 -167q0 -40 11 -72.5t31 -56t47.5 -36t59.5 -12.5q88 0 161 97zM295 465q49 41 49 98q0 32 -18 52.5t-44 20.5q-24 0 -39 -17t-15 -43q0 -27 17 -53t50 -58z" />
    <glyph glyph-name="quotesingle" unicode="'" horiz-adv-x="172" 
d="M78 420l-34 224q-1 5 -1.5 9t-0.5 9q0 52 44 52q20 0 32 -13t12 -37q0 -5 -0.5 -10t-1.5 -10l-33 -224h-17z" />
    <glyph glyph-name="parenleft" unicode="(" horiz-adv-x="370" 
d="M361 -135q-129 72 -195.5 183.5t-66.5 251.5t66.5 251t195.5 183v-30q-175 -141 -175 -404q0 -264 175 -405v-30z" />
    <glyph glyph-name="parenright" unicode=")" horiz-adv-x="370" 
d="M11 -105q176 141 176 405q0 263 -176 404v30q129 -72 195.5 -183t66.5 -251t-66.5 -251.5t-195.5 -183.5v30z" />
    <glyph glyph-name="asterisk" unicode="*" 
d="M257 518v-7q0 -24 6 -44t12.5 -37t12.5 -31.5t6 -28.5q0 -17 -11.5 -29.5t-32.5 -12.5q-22 0 -33.5 11.5t-11.5 31.5q0 13 6 26.5t12.5 29.5t12.5 35.5t6 44.5v12q-32 -19 -45.5 -34t-21.5 -26q-17 -23 -30.5 -37.5t-34.5 -14.5q-17 0 -30 12.5t-13 31.5q0 24 18 36
t55 15q31 2 54 9t40 21q-29 21 -57 24.5t-55 5.5q-26 2 -40.5 16t-14.5 33q0 18 12 31.5t30 13.5q24 0 37 -16.5t28 -36.5q27 -37 69 -59v5q0 26 -6 46.5t-13 37t-13 30.5t-6 26q0 20 12 32.5t33 12.5q44 0 44 -43q0 -13 -5.5 -26.5t-12.5 -30t-12.5 -36.5t-5.5 -45v-10
q17 11 33.5 23.5t33.5 36.5q16 22 30 37.5t37 15.5q16 0 28.5 -14.5t12.5 -31.5q0 -18 -15 -31.5t-35 -15.5q-35 -3 -64 -8t-53 -25q32 -20 59.5 -24t52.5 -6q26 -2 40.5 -16t14.5 -35q0 -17 -13.5 -30.5t-30.5 -13.5q-22 0 -35.5 16t-28.5 37q-14 20 -30 34.5t-38 25.5z
" />
    <glyph glyph-name="plus" unicode="+" horiz-adv-x="833" 
d="M451 596v-264h258v-68h-258v-264h-69v264h-258v68h258v264h69z" />
    <glyph glyph-name="comma" unicode="," horiz-adv-x="252" 
d="M141 7q-15 -6 -27 -6q-24 0 -40 15t-16 38q0 27 16 43.5t41 16.5q35 0 55.5 -23t20.5 -65q0 -77 -98 -156l-26 27q33 28 51.5 54t22.5 56z" />
    <glyph glyph-name="hyphen" unicode="-" horiz-adv-x="269" 
d="M28 235h213v-65h-213v65z" />
    <glyph glyph-name="period" unicode="." horiz-adv-x="252" 
d="M66 54q0 24 17.5 42t42.5 18t42.5 -17.5t17.5 -42.5t-18 -42.5t-42 -17.5q-23 0 -41.5 18t-18.5 42z" />
    <glyph glyph-name="slash" unicode="/" horiz-adv-x="278" 
d="M240 734h54l-285 -827h-54z" />
    <glyph glyph-name="zero" unicode="0" horiz-adv-x="505" 
d="M30 331q0 136 54 244q34 67 78.5 101.5t89.5 34.5t85.5 -24.5t71 -69t48.5 -108t18 -141.5q0 -137 -54 -242q-35 -68 -79 -103t-90 -35q-45 0 -85 24t-70.5 69t-48.5 108.5t-18 141.5zM252 669q-63 0 -89 -83t-26 -253q0 -77 4.5 -134t17.5 -94.5t35 -56t56 -18.5
q63 0 90.5 79.5t27.5 240.5q0 81 -4 141t-16.5 99.5t-35 59t-60.5 19.5z" />
    <glyph glyph-name="one" unicode="1" horiz-adv-x="505" 
d="M217 614h-60v20q0 9 9.5 15t28.5 13t46.5 18.5t63.5 30.5v-711h-88v614z" />
    <glyph glyph-name="two" unicode="2" horiz-adv-x="505" 
d="M5 36q155 177 237.5 301t82.5 211q0 53 -27.5 83t-74.5 30q-80 0 -152 -100l-22 15q-6 3 -6 11q0 10 24 37q78 87 188 87q79 0 126 -44t47 -118q0 -45 -22.5 -93.5t-64.5 -104t-102 -121.5t-135 -146h216q27 0 43.5 5.5t27.5 25.5q8 13 13 21t16 8h19l-23 -144h-411v36z
" />
    <glyph glyph-name="three" unicode="3" horiz-adv-x="505" 
d="M17 21q1 9 6 11t16 2q4 0 10.5 -0.5t17.5 -0.5q58 0 106.5 17t84 46.5t55 68t19.5 80.5q0 54 -30 85.5t-81 31.5q-38 0 -86 -23l-10 15q-3 5 -3 10q0 13 16.5 22t45.5 28q63 43 97.5 79t34.5 83q0 37 -21.5 59t-58.5 22q-74 0 -162 -106l-15 18q-7 9 -7 12q0 6 9 19.5
t28 31.5q84 79 171 79q61 0 97.5 -33.5t36.5 -90.5q0 -48 -32.5 -87.5t-98.5 -75.5h10q76 0 119 -43.5t43 -118.5q0 -110 -98 -193q-97 -80 -258 -80q-15 0 -30.5 1t-32.5 3z" />
    <glyph glyph-name="four" unicode="4" horiz-adv-x="505" 
d="M299 213h-289v32l342 466h33v-420q30 0 40 22q7 14 11 24t13 10h20l-24 -134h-60v-213h-86v213zM299 291v275l-201 -275h201z" />
    <glyph glyph-name="five" unicode="5" horiz-adv-x="505" 
d="M289 699q17 0 27 3.5t16 7.5t10 7.5t8 3.5h25l-25 -115h-179l-38 -174q26 17 54.5 24t62.5 7q87 0 138 -52t51 -140q0 -60 -23 -111.5t-64.5 -90t-98.5 -60t-125 -21.5q-17 0 -39 2.5t-48 7.5l7 31q2 10 17 10q8 0 20 -1t29 -1q105 0 163 61t58 164q0 73 -32 112t-89 39
q-28 0 -54 -10t-53 -30l-30 20l66 306h146z" />
    <glyph glyph-name="six" unicode="6" horiz-adv-x="505" 
d="M145 376q33 32 67.5 46t78.5 14q40 0 74.5 -15.5t59.5 -44t39 -69t14 -91.5q0 -45 -15.5 -86.5t-44.5 -74.5q-29 -32 -67.5 -49.5t-80.5 -17.5q-52 0 -96 20.5t-76 58.5t-50 91.5t-18 118.5q0 75 24 144t68 126t106 99t138 64l8 -22q1 -2 1 -5q0 -11 -16.5 -18t-42.5 -24
q-79 -53 -120.5 -115t-50.5 -150zM140 313q-2 -17 -2 -32.5v-29.5q0 -109 32.5 -164.5t93.5 -55.5q51 0 82 44t31 127q0 89 -31 135t-88 46q-67 0 -118 -70z" />
    <glyph glyph-name="seven" unicode="7" horiz-adv-x="505" 
d="M189 616q-26 0 -37.5 -3t-21.5 -20q-8 -14 -10.5 -22t-13.5 -8h-21l-18 136h387l-250 -699h-128l308 616h-195z" />
    <glyph glyph-name="eight" unicode="8" horiz-adv-x="505" 
d="M355 407q60 -32 88.5 -78t28.5 -112q0 -51 -16.5 -93t-46.5 -72t-71 -47t-90 -17t-89.5 16t-69.5 45t-45 68.5t-16 87.5q0 54 22 101t67 96q-55 49 -55 129q0 39 14 72t39 57t59.5 37.5t74.5 13.5q41 0 75 -12.5t58 -34.5t37.5 -52.5t13.5 -65.5q0 -42 -19.5 -77.5
t-58.5 -61.5zM322 423q29 46 29 119q0 63 -26.5 95t-75.5 32q-45 0 -71.5 -27.5t-26.5 -75.5q0 -31 10 -52t31 -36.5t53 -28t77 -26.5zM157 376q-38 -85 -38 -172q0 -84 36.5 -129t100.5 -45q29 0 53 11t41.5 30.5t27.5 46.5t10 60q0 77 -52 118q-34 27 -80 42t-99 38z" />
    <glyph glyph-name="nine" unicode="9" horiz-adv-x="505" 
d="M359 323q-63 -60 -140 -60q-42 0 -77.5 15.5t-61 43t-40 67t-14.5 87.5q0 51 16 94.5t44.5 74.5t66.5 48.5t81 17.5q52 0 96 -20.5t76 -58.5t50 -91.5t18 -118.5q0 -75 -24 -144t-68 -126t-106 -99t-138 -64l-8 22q-1 2 -1 5q0 6 6.5 11.5t19 12t30 17t39.5 26.5
q119 91 135 240zM364 386q2 17 2 32.5v29.5q0 109 -32.5 164.5t-93.5 55.5q-51 0 -82 -44t-31 -127q0 -89 31 -135t88 -46q67 0 118 70z" />
    <glyph glyph-name="colon" unicode=":" horiz-adv-x="264" 
d="M72 54q0 24 17.5 42t42.5 18t42.5 -17.5t17.5 -42.5t-18 -42.5t-42 -17.5q-23 0 -41.5 18t-18.5 42zM72 345q0 24 17.5 42t42.5 18t42.5 -17.5t17.5 -42.5t-18 -42.5t-42 -17.5q-23 0 -41.5 18t-18.5 42z" />
    <glyph glyph-name="semicolon" unicode=";" horiz-adv-x="264" 
d="M72 345q0 24 17.5 42t42.5 18t42.5 -17.5t17.5 -42.5t-18 -42.5t-42 -17.5q-23 0 -41.5 18t-18.5 42zM147 7q-15 -6 -27 -6q-24 0 -40 15t-16 38q0 27 16 43.5t41 16.5q35 0 55.5 -23t20.5 -65q0 -77 -98 -156l-25 27q33 28 51 54t22 56z" />
    <glyph glyph-name="less" unicode="&#x3c;" horiz-adv-x="833" 
d="M704 491l-473 -193l473 -192v-75l-575 236v63l575 236v-75z" />
    <glyph glyph-name="equal" unicode="=" horiz-adv-x="833" 
d="M709 429v-68h-585v68h585zM709 235v-68h-585v68h585z" />
    <glyph glyph-name="greater" unicode="&#x3e;" horiz-adv-x="833" 
d="M704 330v-63l-575 -236v75l474 192l-474 193v75z" />
    <glyph glyph-name="question" unicode="?" horiz-adv-x="444" 
d="M100 54q0 24 17.5 42t42.5 18t42.5 -17.5t17.5 -42.5t-18 -42.5t-42 -17.5q-23 0 -41.5 18t-18.5 42zM115 285l16 16q37 -24 66 -24q72 0 72 109q0 56 -14 105t-38 87q-33 53 -55 53q-11 0 -12.5 -6.5t-3.5 -15.5q-7 -36 -40 -36q-20 0 -33 13.5t-13 36.5q0 25 18.5 39
t52.5 14q70 0 136 -71q48 -52 72 -109t24 -114q0 -81 -36 -126t-96 -45q-25 0 -64 11l14 -67l-37 6z" />
    <glyph glyph-name="at" unicode="@" horiz-adv-x="986" 
d="M539 469q-28 0 -49.5 -15.5t-42.5 -47.5q-37 -56 -56.5 -117t-19.5 -109q0 -44 20 -68.5t49 -24.5q62 0 114 86q29 49 44.5 103t15.5 93q0 46 -21 73t-54 27zM579 162q-59 -101 -150 -101q-63 0 -100.5 45t-37.5 120q0 53 24 105t69 96q34 32 72 48.5t75 16.5
q88 0 108 -93l25 85h77l-84 -299q-3 -11 -6 -23t-3 -25q0 -52 44 -52q14 0 37 9t46 26q117 90 117 267q0 131 -102 218q-44 38 -104 58t-131 20q-88 0 -163.5 -30t-134.5 -88q-124 -122 -124 -315q0 -88 27 -152t88 -115q53 -45 123 -69t151 -24q166 0 306 101l16 -20
q-72 -54 -152.5 -81t-168.5 -27q-186 0 -303 88q-74 56 -112.5 135t-38.5 176q0 100 42 186t123 153q132 109 311 109q85 0 154 -24t117.5 -68t75 -106t26.5 -138q0 -78 -28.5 -145.5t-81.5 -115.5q-29 -26 -62 -39.5t-65 -13.5q-94 0 -102 102z" />
    <glyph glyph-name="A" unicode="A" horiz-adv-x="769" 
d="M134 116q-5 -11 -7 -20.5t-2 -17.5q0 -13 7 -20t15 -12t15 -9.5t7 -13.5v-23h-178v20q0 17 8.5 19t22.5 10q23 13 41.5 42t40.5 74l237 485l-20 34q-4 5 -4 12q0 10 9 13t22 8q15 7 24 16t20 9q6 0 12 -13l277 -581q17 -36 32.5 -62t43.5 -42q10 -5 14.5 -8.5t4.5 -14.5
v-21h-223v23q0 9 7 13.5t15 9.5t15 12t7 20q0 17 -10 38l-42 97h-367zM522 259l-157 342l-166 -342h323z" />
    <glyph glyph-name="B" unicode="B" horiz-adv-x="662" 
d="M48 22q0 11 4.5 14.5t12.5 7.5q11 5 19 10t13 13t7 19.5t2 30.5v489q0 18 -2 30t-7 19.5t-13 12.5t-19 10q-8 4 -12.5 8t-4.5 15v21h263q134 0 201 -46.5t67 -134.5q0 -140 -164 -177q103 -9 151.5 -51t48.5 -124q0 -93 -67 -141t-201 -48h-299v22zM341 44
q91 0 133.5 36.5t42.5 117.5q0 78 -51 109.5t-157 31.5h-108v-295h140zM310 383q178 0 178 152q0 81 -49.5 112t-154.5 31h-83v-295h109z" />
    <glyph glyph-name="C" unicode="C" horiz-adv-x="682" 
d="M661 134q-54 -71 -127 -108.5t-158 -37.5q-134 0 -229 84q-57 51 -87 121.5t-30 156.5t27 156t80 124q51 51 114.5 77.5t135.5 26.5q39 0 70 -6t53.5 -13.5t37 -14t20.5 -6.5q8 0 14.5 2t11.5 2h17v-164h-13q-18 0 -19.5 8t-6.5 22q-23 64 -68.5 97.5t-113.5 33.5
q-57 0 -103.5 -22t-79.5 -65t-50.5 -105t-17.5 -142q0 -75 18 -134t52 -99.5t82.5 -61.5t108.5 -21q66 0 125 29t109 87z" />
    <glyph glyph-name="D" unicode="D" horiz-adv-x="753" 
d="M201 49q26 -2 46.5 -3.5t37.5 -1.5q159 0 245.5 83t86.5 234q0 152 -86.5 234.5t-245.5 82.5q-17 0 -38.5 -1.5t-45.5 -3.5v-624zM48 22q0 11 4.5 14.5t12.5 7.5q11 5 19 10t13 13t7 19.5t2 30.5v489q0 18 -2 30t-7 19.5t-13 12.5t-19 10q-8 4 -12.5 8t-4.5 15v21h249
q103 0 183 -24.5t134.5 -70.5t83 -111.5t28.5 -147.5t-29.5 -150t-84 -116.5t-131.5 -75t-172 -26.5h-261v22z" />
    <glyph glyph-name="E" unicode="E" horiz-adv-x="667" 
d="M48 22q0 11 4.5 14.5t12.5 7.5q11 5 19 10t13 13t7 19.5t2 30.5v489q0 18 -2 30t-7 19.5t-13 12.5t-19 10q-8 4 -12.5 8t-4.5 15v21h451q36 0 79 9v-135h-19q-9 0 -13.5 2.5t-7 6.5t-4.5 10.5t-7 13.5q-19 32 -49.5 40.5t-84.5 8.5h-192v-286h121q31 0 49.5 3t29.5 17
q6 8 8.5 18t15.5 10h21v-159h-20q-15 0 -16 9t-8 22q-12 21 -30.5 28.5t-52.5 7.5h-118v-304h224q60 0 96 15.5t54 52.5q11 23 13.5 39t14.5 16h28v-167h-583v22z" />
    <glyph glyph-name="F" unicode="F" horiz-adv-x="587" 
d="M309 385q31 0 49.5 3.5t29.5 17.5q6 8 8.5 18t15.5 10h22v-160h-21q-15 0 -16 9.5t-8 22.5q-12 21 -30 28t-52 7h-106v-224q0 -19 2.5 -30.5t7.5 -19.5t13 -13t19 -10q8 -4 12.5 -7.5t4.5 -14.5v-22h-212v22q0 11 4.5 14.5t12.5 7.5q11 5 19 10t13 13t7 19.5t2 30.5v489
q0 18 -2 30t-7 19.5t-13 12.5t-19 10q-8 4 -12.5 8t-4.5 15v21h459q35 0 81 9v-143h-19q-9 0 -13.5 2.5t-7 7.5t-4.5 12t-7 15q-19 35 -49 44t-85 9h-202v-293h108z" />
    <glyph glyph-name="G" unicode="G" horiz-adv-x="769" 
d="M708 130q0 -27 3.5 -40t20.5 -19q8 -3 17 -3t9 -6v-20q-81 -27 -165.5 -40.5t-170.5 -13.5q-161 0 -261 82q-64 53 -97.5 128t-33.5 168q0 83 27.5 152.5t81.5 122.5q95 93 240 93q76 0 135 -26q29 -13 48 -22t30 -9t18.5 5t12.5 5h15v-145h-17q-11 0 -17 10t-16 26
q-33 53 -86.5 81t-122.5 28q-52 0 -96 -21.5t-76 -62t-50 -98.5t-18 -131q0 -164 79.5 -251t228.5 -87q92 0 131 31.5t39 106.5q0 26 -6 44.5t-20 31.5q-8 8 -18.5 10t-10.5 12v25h151q-3 -38 -4 -60t-1 -29v-78z" />
    <glyph glyph-name="H" unicode="H" horiz-adv-x="822" 
d="M201 117q0 -19 2.5 -30.5t7.5 -19.5t13 -13t19 -10q8 -4 12.5 -7.5t4.5 -14.5v-22h-212v22q0 11 4.5 14.5t12.5 7.5q11 5 19 10t13 13t7 19.5t2 30.5v489q0 18 -2 30t-7 19.5t-13 12.5t-19 10q-8 4 -12.5 8t-4.5 15v21h212v-21q0 -11 -4.5 -15t-12.5 -8q-11 -5 -19 -10
t-13 -12.5t-7.5 -19.5t-2.5 -30v-212h419v212q0 18 -2 30t-7 19.5t-13 12.5t-19 10q-8 4 -12.5 8t-4.5 15v21h212v-21q0 -11 -4.5 -15t-12.5 -8q-11 -5 -19 -10t-13 -12.5t-7.5 -19.5t-2.5 -30v-489q0 -19 2.5 -30.5t7.5 -19.5t13 -13t19 -10q8 -4 12.5 -7.5t4.5 -14.5v-22
h-212v22q0 11 4.5 14.5t12.5 7.5q11 5 19 10t13 13t7 19.5t2 30.5v230h-419v-230z" />
    <glyph glyph-name="I" unicode="I" horiz-adv-x="308" 
d="M201 117q0 -19 2.5 -30.5t7.5 -19.5t13 -13t19 -10q8 -4 12.5 -7.5t4.5 -14.5v-22h-212v22q0 11 4.5 14.5t12.5 7.5q11 5 19 10t13 13t7 19.5t2 30.5v489q0 18 -2 30t-7 19.5t-13 12.5t-19 10q-8 4 -12.5 8t-4.5 15v21h212v-21q0 -11 -4.5 -15t-12.5 -8q-11 -5 -19 -10
t-13 -12.5t-7.5 -19.5t-2.5 -30v-489z" />
    <glyph glyph-name="J" unicode="J" horiz-adv-x="307" 
d="M205 172q0 -168 -48.5 -250t-156.5 -82q-42 0 -65.5 20.5t-23.5 51.5q0 23 14.5 38t37.5 15q15 0 25.5 -7.5t12.5 -16.5q7 -25 11.5 -36.5t22.5 -11.5q75 0 75 243v470q0 18 -2.5 30t-7.5 19.5t-13 12.5t-19 10q-8 4 -12.5 8t-4.5 15v21h212v-21q0 -11 -4 -15t-12 -8
q-11 -5 -19 -10t-13 -12.5t-7.5 -19.5t-2.5 -30v-434z" />
    <glyph glyph-name="K" unicode="K" horiz-adv-x="737" 
d="M498 634q16 13 16 27q0 9 -6 13t-12.5 7t-12.5 6.5t-6 12.5v22h232v-19q0 -14 -6 -17.5t-20 -5.5q-41 -8 -75.5 -27t-72.5 -48l-257 -203l368 -291q51 -41 82 -57.5t31 -25.5v-28h-268v19q0 11 2.5 14t11.5 8q10 5 17.5 10.5t7.5 19.5q0 17 -21 33l-308 246v-233
q0 -19 2.5 -30.5t7.5 -19.5t13 -13t19 -10q8 -4 12.5 -7.5t4.5 -14.5v-22h-212v22q0 11 4.5 14.5t12.5 7.5q11 5 19 10t13 13t7 19.5t2 30.5v489q0 18 -2 30t-7 19.5t-13 12.5t-19 10q-8 4 -12.5 8t-4.5 15v21h212v-21q0 -11 -4.5 -15t-12.5 -8q-11 -5 -19 -10t-13 -12.5
t-7.5 -19.5t-2.5 -30v-209z" />
    <glyph glyph-name="L" unicode="L" horiz-adv-x="667" 
d="M106 606q0 18 -2 30t-7 19.5t-13 12.5t-19 10q-8 4 -12.5 8t-4.5 15v21h212v-21q0 -11 -4.5 -15t-12.5 -8q-11 -5 -19 -10t-13 -12.5t-7.5 -19.5t-2.5 -30v-562h224q60 0 96 15.5t54 52.5q11 23 13.5 39t14.5 16h28v-167h-583v22q0 11 4.5 14.5t12.5 7.5q11 5 19 10
t13 13t7 19.5t2 30.5v489z" />
    <glyph glyph-name="M" unicode="M" horiz-adv-x="906" 
d="M148 117q0 -19 2.5 -31t8 -19.5t14.5 -12.5t22 -10q9 -4 14 -8t5 -14v-22h-178v22q0 11 5 14.5t14 7.5q13 5 22 10t14.5 13t8 19.5t2.5 30.5v489q0 18 -2.5 30t-7.5 19.5t-13 12.5t-19 10q-8 4 -12.5 8t-4.5 15v21h178l227 -587l232 587h178v-21q0 -11 -4.5 -15t-12.5 -8
q-11 -5 -19 -10t-13 -12.5t-7 -19.5t-2 -30v-489q0 -19 2 -30.5t7 -19.5t13 -13t19 -10q8 -4 12.5 -7.5t4.5 -14.5v-22h-208v22q0 11 4.5 14.5t12.5 7.5q11 5 19 10t13 13t7 19.5t2 30.5v552l-261 -669h-41l-258 669v-552z" />
    <glyph glyph-name="N" unicode="N" horiz-adv-x="769" 
d="M148 117q0 -19 2.5 -31t8 -19.5t14.5 -12.5t22 -10q9 -4 14 -8t5 -14v-22h-178v22q0 11 5 14.5t14 7.5q13 5 22 10t14.5 13t8 19.5t2.5 30.5v489q0 28 -8 43t-34 29q-7 4 -12 8t-5 15v21h146l433 -542v426q0 19 -2.5 30.5t-8 19t-14.5 12.5t-22 10q-9 4 -14 8t-5 15v21
h178v-21q0 -11 -4.5 -15t-13.5 -8q-13 -5 -22 -10t-14.5 -12.5t-8 -19t-2.5 -30.5v-606h-29l-492 611v-494z" />
    <glyph glyph-name="O" unicode="O" horiz-adv-x="808" 
d="M30 361q0 85 31 157t88 123q102 93 255 93t255 -93q57 -51 88 -123t31 -157t-31 -156.5t-88 -123.5q-102 -93 -255 -93t-255 93q-57 52 -88 123.5t-31 156.5zM404 692q-125 0 -195.5 -86t-70.5 -245t70.5 -245t195.5 -86t195.5 86t70.5 245t-70.5 245t-195.5 86z" />
    <glyph glyph-name="P" unicode="P" horiz-adv-x="653" 
d="M258 722q91 0 150.5 -5t89.5 -17q69 -27 101.5 -70t32.5 -109q0 -51 -26.5 -93.5t-76.5 -68.5q-32 -17 -80.5 -23t-115.5 -6h-132v-213q0 -19 2.5 -30.5t7.5 -19.5t13 -13t19 -10q8 -4 12.5 -7.5t4.5 -14.5v-22h-212v22q0 11 4.5 14.5t12.5 7.5q11 5 19 10t13 13t7 19.5
t2 30.5v489q0 18 -2 30t-7 19.5t-13 12.5t-19 10q-8 4 -12.5 8t-4.5 15v21h210zM316 374q108 0 157 36.5t49 125.5q0 42 -14 71t-45 49q-26 16 -63.5 19t-90.5 3h-108v-304h115z" />
    <glyph glyph-name="Q" unicode="Q" horiz-adv-x="808" 
d="M404 692q-125 0 -195.5 -86t-70.5 -245t70.5 -245t195.5 -86t195.5 86t70.5 245t-70.5 245t-195.5 86zM449 -9q47 -13 85.5 -28t70 -28t57 -21.5t45.5 -8.5q29 0 57 29l24 -23q-59 -85 -152 -85q-57 0 -98 26q-35 23 -75 53.5t-92 58.5q-41 22 -87 38t-89 43
q-78 50 -121.5 132t-43.5 184q0 85 31 156.5t88 123.5q102 93 255 93t255 -93q57 -51 88 -123t31 -157q0 -75 -23.5 -139.5t-66.5 -113t-103.5 -79.5t-135.5 -38z" />
    <glyph glyph-name="R" unicode="R" horiz-adv-x="733" 
d="M201 117q0 -19 2.5 -30.5t7.5 -19.5t13 -13t19 -10q8 -4 12.5 -7.5t4.5 -14.5v-22h-212v22q0 11 4.5 14.5t12.5 7.5q11 5 19 10t13 13t7 19.5t2 30.5v489q0 18 -2 30t-7 19.5t-13 12.5t-19 10q-8 4 -12.5 8t-4.5 15v21h277q78 0 136 -8.5t95.5 -29.5t56 -57t18.5 -91
q0 -141 -154 -167l179 -268q19 -29 34 -38t36 -17q13 -5 19 -7.5t6 -13.5v-25h-150l-151 234q-47 73 -75 92q-18 11 -39.5 14.5t-48.5 3.5h-86v-227zM292 387q118 0 174 34t56 119q0 42 -16.5 72t-46.5 47q-23 13 -61 16t-92 3h-105v-291h91z" />
    <glyph glyph-name="S" unicode="S" horiz-adv-x="590" 
d="M62 201h2q9 0 11.5 -9t9.5 -24q35 -71 87 -104.5t129 -33.5q79 0 125 41.5t46 109.5q0 48 -29 85q-27 35 -77 52.5t-119 39.5q-86 29 -128 69t-42 112q0 41 15 76.5t42 61.5t63.5 41.5t79.5 15.5q39 0 68 -7.5t49.5 -17t33 -17t19.5 -7.5q6 0 10 2.5t7 2.5h15v-163
l-12 -2q-3 -1 -7 -1q-12 0 -13 14.5t-13 42.5q-24 57 -61 84t-94 27t-90.5 -31t-33.5 -82q0 -32 13.5 -52.5t39 -35.5t63.5 -27t87 -28q96 -31 141.5 -80t45.5 -135q0 -53 -16.5 -96t-47 -73.5t-73.5 -47t-97 -16.5q-39 0 -70.5 4t-55 9.5t-39.5 9.5t-25 4q-11 0 -19.5 -4
t-14.5 -9t-11.5 -9t-10.5 -4h-2l-17 4v206z" />
    <glyph glyph-name="T" unicode="T" horiz-adv-x="715" 
d="M202 678q-42 0 -71 -6t-55 -32q-9 -9 -13.5 -17t-8 -13.5t-8.5 -9t-14 -3.5h-13v135q17 -6 36.5 -8t41.5 -2h522q22 0 41.5 2t36.5 8v-135h-14q-9 0 -13.5 3.5t-8 9t-8 13.5t-13.5 17q-26 26 -55.5 32t-71.5 6h-108v-561q0 -19 3 -31t10 -19.5t17 -12.5t24 -10
q10 -4 15.5 -8t5.5 -14v-22h-245v22q0 10 6 14t16 8q14 5 24 10t16.5 12.5t9.5 19.5t3 31v561h-108z" />
    <glyph glyph-name="U" unicode="U" horiz-adv-x="812" 
d="M668 606q0 19 -2.5 30.5t-8 19t-14.5 12.5t-22 10q-9 4 -14 8t-5 15v21h178v-21q0 -11 -5 -15t-14 -8q-12 -5 -21 -10t-15 -12.5t-8.5 -19t-2.5 -30.5v-269q0 -78 -8.5 -135.5t-37.5 -98.5q-45 -62 -111 -88.5t-162 -26.5q-153 0 -226 73q-23 23 -36.5 49.5t-20.5 57
t-9 66t-2 76.5v296q0 18 -2.5 30t-7.5 19.5t-13 12.5t-19 10q-8 4 -12.5 8t-4.5 15v21h212v-21q0 -11 -4.5 -15t-12.5 -8q-11 -5 -19 -10t-13 -12.5t-7 -19.5t-2 -30v-276q0 -72 7.5 -123t33.5 -83q57 -72 186 -72q68 0 115 16t76 50t41.5 87t12.5 127v274z" />
    <glyph glyph-name="V" unicode="V" horiz-adv-x="738" 
d="M69 598q-14 29 -26.5 47t-43.5 33q-8 4 -12.5 8t-4.5 15v21h221v-21q0 -11 -6.5 -16t-15 -9t-15 -10t-6.5 -19q0 -5 2.5 -17.5t9.5 -27.5l220 -482l226 463q11 23 16 39t5 22q0 16 -8.5 22.5t-21.5 11.5q-8 4 -12.5 8.5t-4.5 14.5v21h169v-21q0 -11 -5 -15t-12 -8
q-30 -16 -44.5 -38.5t-29.5 -52.5l-292 -593h-32z" />
    <glyph glyph-name="W" unicode="W" horiz-adv-x="940" 
d="M371 598q-4 11 -7.5 22t-9 21t-15 19t-27.5 18q-8 4 -12.5 8t-4.5 15v21h392v-21q0 -10 -4.5 -14.5t-12.5 -8.5q-18 -7 -28.5 -15t-18 -18.5t-13.5 -24.5t-14 -33l-67 -152l111 -300l182 448q19 48 19 62q0 17 -8.5 22.5t-20.5 10.5q-8 4 -12.5 8.5t-4.5 14.5v21h170v-21
q0 -11 -5 -15t-12 -8q-47 -24 -74 -91l-240 -593h-32l-125 324l-145 -324h-32l-238 604q-14 34 -29 51t-40 29q-8 4 -12.5 8t-4.5 15v21h216v-21q0 -11 -7 -16t-15 -9t-15 -10t-7 -19q0 -12 13 -45l183 -475l112 249zM507 490l53 130q8 19 8 32q0 35 -58 35q-56 0 -56 -38
q0 -14 5 -27z" />
    <glyph glyph-name="X" unicode="X" horiz-adv-x="773" 
d="M547 19q0 9 5 13.5t11.5 8t11.5 7.5t5 12q0 11 -7 22.5t-20 26.5l-182 217l-193 -208q-17 -18 -25.5 -30.5t-8.5 -23.5q0 -12 7.5 -16t22.5 -9q7 -2 8 -6.5t1 -12.5v-20h-194v16q0 19 8.5 23t30.5 14q20 9 45 27.5t51 46.5l220 233l-163 200q-20 25 -40 47.5t-46 40.5
q-20 13 -36.5 19t-30.5 11q-17 6 -17 23v21h259v-19q0 -9 -5 -13.5t-11.5 -7.5t-11.5 -7.5t-5 -14.5q0 -17 26 -47l150 -179l157 170q17 18 26 30.5t9 23.5q0 12 -8 16t-23 9q-7 2 -8 6.5t-1 12.5v20h195v-15q0 -9 -2 -14t-6.5 -8.5t-12 -6.5t-19.5 -9q-20 -9 -44.5 -27.5
t-50.5 -46.5l-184 -196l220 -264q23 -28 45.5 -51t57.5 -38q12 -5 19 -9.5t7 -10.5v-26h-243v19z" />
    <glyph glyph-name="Y" unicode="Y" horiz-adv-x="700" 
d="M116 580q-17 23 -31 40.5t-27 29.5q-12 11 -25.5 17t-26.5 11q-8 4 -12.5 8.5t-4.5 14.5v21h232v-19q0 -9 -5 -13.5t-11.5 -7.5t-11.5 -7.5t-5 -14.5t7 -21t19 -26l169 -221l168 211q16 20 24 32.5t8 22.5q0 12 -7.5 16t-22.5 9q-7 2 -8 6.5t-1 12.5v20h177v-15
q0 -9 -2 -14t-6 -8.5t-11 -7t-18 -9.5q-16 -8 -36 -26.5t-43 -46.5l-209 -258v-220q0 -19 3 -31t9.5 -19.5t16.5 -12.5t24 -10q10 -4 16 -8t6 -14v-22h-245v22q0 10 5.5 14t15.5 8q14 5 24 10t17 12.5t10 19.5t3 31v220z" />
    <glyph glyph-name="Z" unicode="Z" horiz-adv-x="748" 
d="M573 51q40 0 65 11t45 37q5 6 7.5 12t13.5 6h18v-117h-696l-14 23l533 648h-299q-41 0 -66 -6.5t-42 -27.5q-8 -11 -10.5 -20.5t-13.5 -9.5h-21v124q47 -9 80 -9h499l9 -24l-528 -647h420z" />
    <glyph glyph-name="bracketleft" unicode="[" horiz-adv-x="370" 
d="M354 -86v-37h-221v845h221v-37h-140v-771h140z" />
    <glyph glyph-name="backslash" unicode="\" horiz-adv-x="278" 
d="M268 -93l-284 827h54l284 -827h-54z" />
    <glyph glyph-name="bracketright" unicode="]" horiz-adv-x="370" 
d="M16 685v37h221v-846h-221v37h140v772h-140z" />
    <glyph glyph-name="asciicircum" unicode="^" horiz-adv-x="1000" 
d="M547 714l250 -276h-48l-250 205l-251 -205h-47l251 276h95z" />
    <glyph glyph-name="underscore" unicode="_" 
d="M500 -166v-70h-500v70h500z" />
    <glyph glyph-name="grave" unicode="`" 
d="M336 459h-33l-161 100q-30 20 -30 41q0 15 10 24.5t25 9.5q13 0 23.5 -7.5t24.5 -21.5z" />
    <glyph glyph-name="a" unicode="a" horiz-adv-x="425" 
d="M276 60q-51 -72 -131 -72q-51 0 -82 30.5t-31 80.5q0 69 57 107t172 43q0 118 -69 118q-26 0 -37 -9t-22 -32q-8 -17 -16 -25.5t-25 -8.5q-14 0 -22.5 10t-8.5 24q0 35 36 57t103 22q79 0 112 -45.5t35 -142.5l2 -81q1 -48 7 -70t31 -22q9 0 22 7l13 -29q-38 -34 -79 -34
q-52 0 -67 72zM264 213q-75 -2 -114 -31t-39 -79q0 -31 17 -49.5t44 -18.5q42 0 67.5 34t25.5 97v9z" />
    <glyph glyph-name="b" unicode="b" horiz-adv-x="470" 
d="M139 65q15 -15 38.5 -23.5t49.5 -8.5q58 0 90 42t32 126q0 80 -30 121.5t-87 41.5q-48 0 -93 -39v-260zM56 616q0 26 -2.5 41t-12.5 20q-11 5 -19 8t-8 17v18l125 2v-355q23 17 51.5 26.5t58.5 9.5q42 0 77.5 -14t61 -40t40 -62.5t14.5 -80.5q0 -48 -15.5 -87.5t-42 -68
t-62.5 -44t-77 -15.5q-20 0 -37.5 3.5t-32.5 8t-27.5 8t-23.5 3.5t-27.5 -7t-40.5 -19v628z" />
    <glyph glyph-name="c" unicode="c" horiz-adv-x="377" 
d="M375 61q-75 -73 -161 -73q-40 0 -74 15t-59.5 42t-40 64.5t-14.5 82.5q0 46 15.5 85t42.5 67.5t63 44.5t77 16q58 0 91.5 -24t33.5 -56q0 -17 -10 -26.5t-27 -9.5q-18 0 -25.5 8t-14.5 26q-8 23 -19 33.5t-34 10.5q-21 0 -39.5 -11t-32.5 -31.5t-22.5 -49t-8.5 -63.5
q0 -39 10.5 -70.5t28.5 -54t42 -34.5t52 -12q55 0 104 46z" />
    <glyph glyph-name="d" unicode="d" horiz-adv-x="492" 
d="M331 47q-54 -57 -129 -57q-38 0 -70 14.5t-55 41t-36 64.5t-13 86t13 86t36 64.5t55 41t70 14.5q75 0 129 -57v271q0 26 -2.5 41t-12.5 20q-11 5 -19 8t-8 17v18l125 2v-620q0 -26 2.5 -40.5t12.5 -19.5t18.5 -8.5t8.5 -17.5v-17l-123 -8zM331 287q-41 71 -104 71
q-45 0 -75.5 -42t-30.5 -120t30 -119.5t79 -41.5q29 0 55 18t46 53v181z" />
    <glyph glyph-name="e" unicode="e" horiz-adv-x="394" 
d="M119 228v-18q0 -171 112 -171q68 0 117 61l23 -20q-28 -45 -68.5 -68.5t-90.5 -23.5q-41 0 -75 15t-58 42t-37.5 65t-13.5 84q0 47 14 86t38 67t56.5 43t69.5 15q72 0 115.5 -44t43.5 -119v-14h-246zM277 266v3q0 48 -20 73.5t-57 25.5q-32 0 -52.5 -25.5t-24.5 -76.5
h154z" />
    <glyph glyph-name="f" unicode="f" horiz-adv-x="252" 
d="M161 103q0 -26 3 -40.5t15 -19.5t22.5 -8t10.5 -17v-18h-176v18q0 14 8.5 17t18.5 8t12.5 19.5t2.5 40.5v253h-55v20q0 8 5 11.5t16 5.5q15 3 22.5 11.5t9.5 25.5q2 19 2 41t2 46t7 49.5t16 52.5q21 50 57.5 76.5t83.5 26.5q35 0 54.5 -16t19.5 -41q0 -38 -36 -38
q-14 0 -20 5.5t-14 15.5q-10 14 -18 22.5t-19 8.5q-50 0 -50 -143v-142h106v-38h-106v-253z" />
    <glyph glyph-name="g" unicode="g" horiz-adv-x="432" 
d="M109 65q38 11 73 16.5t70 5.5q85 0 130 -33t45 -88q0 -57 -50 -92.5t-140 -35.5q-78 0 -119.5 25t-41.5 62q0 18 11.5 29.5t30.5 11.5q16 0 25 -9t9 -23q0 -8 -4.5 -14.5t-4.5 -11.5q0 -15 23 -24t69 -9q63 0 99 23.5t36 56.5q0 31 -35 49t-104 18q-42 0 -74.5 -6
t-55.5 -13.5t-38 -13.5t-22 -6q-16 0 -16 16q0 11 13 30l82 121q-77 31 -77 111q0 31 12 57.5t34 45.5t52.5 30t67.5 11q80 0 133 -52q9 26 22 37t33 11q16 0 28 -11t12 -26q0 -17 -9.5 -25.5t-24.5 -8.5q-11 0 -17.5 5.5t-9.5 5.5q-6 0 -15 -16q17 -34 17 -64
q0 -28 -11.5 -52.5t-32.5 -42.5t-51 -28.5t-66 -10.5q-14 0 -28.5 2t-30.5 6zM210 164q39 0 61 26.5t22 75.5t-22.5 75.5t-60.5 26.5q-39 0 -60.5 -26t-21.5 -76q0 -49 21.5 -75.5t60.5 -26.5z" />
    <glyph glyph-name="h" unicode="h" horiz-adv-x="470" 
d="M73 616q0 26 -2.5 41t-12.5 20q-11 5 -19 8t-8 17v18l125 2v-374q54 55 119 55q64 0 93 -38t29 -116v-146q0 -26 2 -40.5t12 -19.5t19 -8t9 -17v-18h-167v18q0 14 8.5 17t18.5 8t12.5 19.5t2.5 40.5v188q0 31 -15.5 47t-44.5 16q-41 0 -69.5 -28.5t-28.5 -74.5v-148
q0 -26 2.5 -40.5t12.5 -19.5t18.5 -8t8.5 -17v-18h-167v18q0 14 8.5 17t18.5 8t12.5 19.5t2.5 40.5v513z" />
    <glyph glyph-name="i" unicode="i" horiz-adv-x="235" 
d="M69 642q0 20 14 34.5t34 14.5t34.5 -14.5t14.5 -34.5q0 -21 -14.5 -35t-34.5 -14t-34 14.5t-14 34.5zM161 103q0 -26 2 -40.5t12 -19.5t19 -8t9 -17v-18h-167v18q0 14 8.5 17t18.5 8t12.5 19.5t2.5 40.5v187q0 26 -2.5 40.5t-12.5 19.5q-11 5 -19 8.5t-8 17.5v18l125 2
v-293z" />
    <glyph glyph-name="j" unicode="j" horiz-adv-x="218" 
d="M65 642q0 20 14.5 34.5t34.5 14.5t34.5 -14.5t14.5 -34.5q0 -21 -14.5 -35t-34.5 -14t-34.5 14.5t-14.5 34.5zM73 290q0 27 -4.5 41.5t-21.5 19.5q-20 5 -32 6.5t-12 18.5v18l154 2v-324q0 -115 -38 -174.5t-98 -59.5q-29 0 -45 13.5t-16 33.5q0 18 10.5 28.5t26.5 10.5
q11 0 18.5 -5t13.5 -10.5t10.5 -10.5t8.5 -5q14 0 19.5 18t5.5 54v325z" />
    <glyph glyph-name="k" unicode="k" horiz-adv-x="422" 
d="M262 330q12 12 12 20q0 6 -5.5 8.5t-12.5 4t-12.5 4.5t-5.5 9v18h161v-18q0 -11 -6.5 -15t-18.5 -8.5t-29 -12.5t-37 -26l-76 -68l149 -176q13 -15 23 -22t17 -10.5t10.5 -7t3.5 -12.5v-18h-191v22q0 5 6 7t13 4t13 5.5t6 12.5q0 11 -8 21l-100 117l-18 -17v-69
q0 -26 2.5 -40.5t12.5 -19.5t18.5 -8t8.5 -17v-18h-167v18q0 14 8.5 17t18.5 8t12.5 19.5t2.5 40.5v513q0 26 -2.5 41t-12.5 20q-11 5 -19 8t-8 17v18l125 2v-491z" />
    <glyph glyph-name="l" unicode="l" horiz-adv-x="229" 
d="M156 103q0 -26 2.5 -40.5t12.5 -19.5t18.5 -8t8.5 -17v-18h-167v18q0 14 8.5 17t18.5 8t12.5 19.5t2.5 40.5v513q0 26 -2.5 41t-12.5 20q-11 5 -19 8t-8 17v18l125 2v-619z" />
    <glyph glyph-name="m" unicode="m" horiz-adv-x="692" 
d="M161 103q0 -26 2 -40.5t12 -19.5t19 -8t9 -17v-18h-167v18q0 14 8.5 17t18.5 8t12.5 19.5t2.5 40.5v187q0 26 -2.5 40.5t-12.5 19.5q-11 5 -19 8.5t-8 17.5v18l123 2l2 -48q54 55 114 55q35 0 62 -17t41 -49q32 33 61.5 49.5t64.5 16.5q115 0 115 -154v-146
q0 -26 2.5 -40.5t12.5 -19.5t18.5 -8t8.5 -17v-18h-167v18q0 14 8.5 17t18.5 8t12.5 19.5t2.5 40.5v167q0 42 -12.5 63t-44.5 21q-16 0 -32 -8t-29 -21.5t-20.5 -32.5t-7.5 -41v-148q0 -26 2.5 -40.5t12.5 -19.5t18.5 -8t8.5 -17v-18h-167v18q0 14 8.5 17t18.5 8t12.5 19.5
t2.5 40.5v167q0 42 -12.5 63t-44.5 21q-16 0 -32 -8t-29 -21.5t-20.5 -32.5t-7.5 -41v-148z" />
    <glyph glyph-name="n" unicode="n" horiz-adv-x="475" 
d="M161 103q0 -26 2 -40.5t12 -19.5t19 -8t9 -17v-18h-167v18q0 14 8.5 17t18.5 8t12.5 19.5t2.5 40.5v187q0 26 -2.5 40.5t-12.5 19.5q-11 5 -19 8.5t-8 17.5v18l123 2l2 -48q27 28 55.5 41.5t62.5 13.5q64 0 93.5 -38t29.5 -116v-146q0 -26 2 -40.5t12 -19.5t18.5 -8
t8.5 -17v-18h-166v18q0 14 8.5 17t18.5 8t12 19.5t2 40.5v188q0 63 -59 63q-41 0 -69.5 -28.5t-28.5 -74.5v-148z" />
    <glyph glyph-name="o" unicode="o" horiz-adv-x="444" 
d="M222 405q43 0 79 -15t61.5 -42.5t40 -66t14.5 -84.5t-14.5 -84.5t-40 -66t-61.5 -43t-79 -15.5t-79 15.5t-61.5 43.5t-39.5 66t-14 84t14 84t39.5 65.5t61.5 43t79 15.5zM222 368q-54 0 -78 -42t-24 -129t24 -129.5t78 -42.5t78 42.5t24 129.5t-24 129t-78 42z" />
    <glyph glyph-name="p" unicode="p" horiz-adv-x="492" 
d="M161 106q20 -35 45.5 -53t54.5 -18q49 0 79.5 42t30.5 120t-30.5 119.5t-75.5 41.5q-63 0 -104 -71v-181zM161 -59q0 -26 2.5 -40.5t13.5 -19.5t20.5 -8t9.5 -17v-18h-171v18q0 14 8 17t19 8q10 5 12.5 19.5t2.5 40.5v349q0 26 -2.5 40.5t-12.5 19.5q-11 5 -19 8.5
t-8 17.5v18l123 2l2 -50q54 57 128 57q38 0 70.5 -14.5t55.5 -41t36 -64.5t13 -86t-13 -86t-36 -64.5t-55.5 -41t-70.5 -14.5q-74 0 -128 57v-107z" />
    <glyph glyph-name="q" unicode="q" horiz-adv-x="470" 
d="M331 323q-41 42 -96 42q-53 0 -84 -44t-31 -126q0 -77 30.5 -118.5t79.5 -41.5q29 0 55 18t46 53v217zM331 48q-54 -57 -129 -57q-38 0 -70 14.5t-55 41t-36 64.5t-13 86q0 46 14.5 84t40 65t60.5 42t77 15q57 0 118 -33l76 36v-568h-129v18q0 14 9.5 17t20.5 8
t13.5 19.5t2.5 40.5v107z" />
    <glyph glyph-name="r" unicode="r" horiz-adv-x="312" 
d="M141 269q23 69 51.5 102.5t69.5 33.5q29 0 46 -15t17 -38q0 -19 -11 -31.5t-28 -12.5q-12 0 -20.5 5.5t-16 11.5t-14.5 11.5t-15 5.5t-18 -12.5t-19 -36.5t-15.5 -59.5t-6.5 -82.5v-48q0 -26 3 -40.5t14 -19.5t21 -8t10 -17v-18h-173v18q0 14 8.5 17t18.5 8t12.5 19.5
t2.5 40.5v187q0 26 -2.5 40.5t-12.5 19.5q-11 5 -19 8.5t-8 17.5v18l105 2v-127z" />
    <glyph glyph-name="s" unicode="s" horiz-adv-x="333" 
d="M301 120q0 -60 -39 -96t-105 -36q-59 0 -93.5 24.5t-34.5 60.5q0 21 11 34t27 13q20 0 32 -11t12 -29q0 -7 -1.5 -14t-1.5 -13q0 -30 58 -30q36 0 56.5 18.5t20.5 45.5q0 17 -6 28t-18.5 20t-30.5 17t-42 19q-27 12 -48 23.5t-35 25t-21.5 30t-7.5 38.5q0 52 35.5 84.5
t96.5 32.5q50 0 78.5 -20t28.5 -50q0 -37 -40 -37q-15 0 -24.5 8.5t-9.5 23.5q0 11 3.5 16.5t3.5 7.5q0 18 -43 18q-29 0 -46 -14t-17 -38q0 -16 6.5 -26t19 -17.5t31 -14.5t41.5 -18q52 -23 77.5 -49.5t25.5 -74.5z" />
    <glyph glyph-name="t" unicode="t" horiz-adv-x="258" 
d="M154 394h89v-38h-89v-236q0 -41 11 -59.5t37 -18.5q19 0 47 14l12 -27q-28 -21 -53 -31t-45 -10q-55 0 -73.5 30.5t-18.5 97.5v240h-41v20q0 12 7 13.5t15 4.5q11 5 15 15t4 27v83h83v-125z" />
    <glyph glyph-name="u" unicode="u" horiz-adv-x="472" 
d="M314 290q0 26 -2.5 40.5t-12.5 19.5q-11 5 -19 8.5t-8 17.5v18l125 2v-294q0 -26 2 -40.5t12 -19.5t19 -8.5t9 -17.5v-16l-123 -9l-2 55q-52 -55 -119 -55q-64 0 -93 37.5t-29 115.5v146q0 26 -2.5 40.5t-12.5 19.5q-11 5 -19 8.5t-8 17.5v18l125 2v-293q0 -31 15.5 -47
t44.5 -16q41 0 69.5 29t28.5 74v147z" />
    <glyph glyph-name="v" unicode="v" horiz-adv-x="380" 
d="M62 281q-11 30 -20 47.5t-29 25.5q-8 3 -13 6.5t-5 14.5v18h175v-16q0 -11 -5 -14.5t-11.5 -5.5t-11.5 -6t-5 -15q0 -5 1 -11.5t3 -12.5l72 -198l76 198q5 12 5 24q0 11 -5.5 14.5t-11.5 6t-11.5 6t-5.5 14.5v16h133v-18q0 -11 -5 -14.5t-13 -6.5q-17 -7 -27 -20t-19 -35
l-124 -308h-32z" />
    <glyph glyph-name="w" unicode="w" horiz-adv-x="615" 
d="M173 -9l-111 290q-11 30 -20 47.5t-29 25.5q-8 3 -13 6.5t-5 14.5v18h171v-16q0 -11 -5.5 -14.5t-11.5 -5.5t-11.5 -6t-5.5 -15q0 -5 1 -11.5t3 -12.5l73 -198l104 272l31 8l104 -275l76 193q5 10 5 24q0 11 -5.5 14.5t-11.5 6t-11.5 6t-5.5 14.5v16h133v-18
q0 -11 -5 -14.5t-13 -6.5q-17 -7 -27 -20t-19 -35l-124 -308h-25l-108 277l-109 -277h-25z" />
    <glyph glyph-name="x" unicode="x" horiz-adv-x="411" 
d="M335 98q16 -21 28 -35.5t31 -22.5q8 -3 13 -7t5 -15v-18h-187v19q0 6 5 9t11.5 6t11.5 6.5t5 11.5q0 5 -3 13t-9 16l-55 73l-51 -73q-7 -9 -10 -17t-3 -13q0 -7 4.5 -11t10 -6.5t10 -5.5t4.5 -9v-19h-147v18q0 12 4.5 14.5t16.5 5.5q22 5 39.5 17t26.5 26l70 106l-82 109
l-28 35t-31 23q-8 3 -13 7t-5 15v18h182v-19q0 -6 -4.5 -9t-9.5 -5.5t-9.5 -6t-4.5 -11.5q0 -5 2.5 -13t9.5 -17l45 -61l45 61q7 9 9.5 17t2.5 13q0 8 -4.5 11.5t-9.5 6t-9.5 5.5t-4.5 9v19h135v-18q0 -12 -3.5 -14.5t-14.5 -5.5q-18 -5 -31.5 -16t-25.5 -28l-65 -90z" />
    <glyph glyph-name="y" unicode="y" horiz-adv-x="405" 
d="M306 300q6 15 6 30q0 12 -6 16.5t-12.5 7.5t-12.5 7.5t-6 14.5v18h134v-18q0 -15 -7 -17q-20 -9 -30.5 -23.5t-21.5 -40.5l-135 -309q-32 -74 -71 -111t-81 -37q-32 0 -48.5 13.5t-16.5 36.5q0 19 10.5 30t27.5 11q12 0 19 -5.5t12 -12t11 -12t16 -5.5q18 0 39 28t47 84
l-120 290q-9 23 -16 36.5t-26 21.5q-8 3 -13 7t-5 15v18h176v-18q0 -10 -5.5 -14t-11.5 -8t-11.5 -9t-5.5 -17q0 -14 8 -31l77 -186z" />
    <glyph glyph-name="z" unicode="z" horiz-adv-x="396" 
d="M358 379l-228 -342h154q21 0 34.5 7.5t22.5 16.5t15 16.5t11 7.5q8 0 10.5 -4.5t2.5 -13.5v-67h-354l-7 14l229 342h-126q-17 0 -27.5 -6.5t-18 -14t-12.5 -14t-11 -6.5q-8 0 -10.5 5.5t-2.5 17.5v56h310z" />
    <glyph glyph-name="braceleft" unicode="{" 
d="M414 714q-36 0 -58 -7t-35 -22t-17.5 -39.5t-4.5 -60.5v-69q0 -47 -4.5 -82t-18.5 -59.5t-40.5 -40t-71.5 -24.5q45 -9 71.5 -24.5t40.5 -40t18.5 -59t4.5 -82.5v-69q0 -36 4.5 -60t17 -39t35 -22t58.5 -7v-26h-5q-54 0 -90 8.5t-57.5 28.5t-30.5 52t-9 80v101
q0 37 -6 63t-21 43t-41 26t-67 12v31q41 3 67 12t41 25.5t21 42.5t6 64v101q0 48 9 80t30.5 52t57.5 28.5t90 8.5h5v-26z" />
    <glyph glyph-name="bar" unicode="|" 
d="M287 764v-1000h-73v1000h73z" />
    <glyph glyph-name="braceright" unicode="}" 
d="M86 740h5q54 0 90.5 -8.5t58 -28.5t30.5 -52t9 -80v-101q0 -38 6 -64t21 -42.5t41.5 -25.5t66.5 -12v-31q-40 -3 -66.5 -12t-41.5 -25.5t-21 -42.5t-6 -64v-101q0 -48 -9 -80t-30.5 -52t-58 -28.5t-90.5 -8.5h-5v26q36 0 58.5 7t35 22t17.5 39t5 60v69q0 48 4 82.5t18 59
t40.5 40t71.5 24.5q-45 9 -71.5 24.5t-40.5 40t-18 59.5t-4 82v69q0 36 -5 60.5t-17.5 39.5t-35 22t-58.5 7v26z" />
    <glyph glyph-name="asciitilde" unicode="~" horiz-adv-x="833" 
d="M747 300q-50 -35 -96 -52t-94 -17q-38 0 -72 11t-69 23t-69 22t-72 10q-45 0 -89.5 -19.5t-98.5 -57.5v76q103 70 189 70q39 0 73.5 -9t68.5 -21q37 -13 71 -24.5t69 -11.5q47 0 92 19.5t97 56.5v-76z" />
    <glyph glyph-name="exclamdown" unicode="&#xa1;" horiz-adv-x="310" 
d="M213 0h-116l39 520h37zM215 622q0 -24 -17.5 -42t-42.5 -18q-26 0 -43 17t-17 43q0 25 18 42.5t42 17.5q23 0 41.5 -18.5t18.5 -41.5z" />
    <glyph glyph-name="cent" unicode="&#xa2;" horiz-adv-x="505" 
d="M421 71q-37 -36 -78.5 -54.5t-84.5 -18.5q-13 0 -31 3l-39 -126h-40l41 136q-57 25 -87 74t-30 116q0 47 15.5 86t42 68t62.5 45t76 16q10 0 20.5 -2t22.5 -4l36 113h41l-39 -126q45 -24 45 -62q0 -17 -10 -27t-27 -10q-21 0 -33 19l-78 -256q21 -10 46 -10q54 0 106 47z
M298 366q-18 12 -35 12q-19 0 -37.5 -11.5t-32.5 -32.5t-22.5 -50.5t-8.5 -65.5q0 -42 12 -74.5t38 -58.5z" />
    <glyph glyph-name="sterling" unicode="&#xa3;" horiz-adv-x="505" 
d="M234 45q-50 -56 -114 -56q-41 0 -64 22.5t-23 60.5q0 42 28.5 66.5t78.5 24.5q36 0 82 -22q2 7 3 13.5t1 12.5q0 26 -16 62.5t-43 87.5h-125v46h105q-36 72 -36 126q0 35 14 65.5t39.5 52.5t61.5 34.5t79 12.5q63 0 99 -27t36 -65q0 -23 -13 -36.5t-35 -13.5
q-20 0 -33 12t-13 31q0 16 7.5 26t7.5 15q0 6 -15.5 12.5t-42.5 6.5q-44 0 -69.5 -26.5t-25.5 -69.5q0 -25 12.5 -64.5t39.5 -91.5h137v-46h-118q21 -46 21 -94q0 -55 -25 -104q59 -35 88.5 -58.5t39.5 -23.5q12 0 12 8q0 6 -10 19.5t-10 35.5q0 21 12.5 33.5t33.5 12.5
q22 0 34.5 -15.5t12.5 -42.5q0 -45 -30.5 -72t-83.5 -27q-36 0 -69 15t-71 41zM198 72q-23 18 -42.5 27t-39.5 9t-31.5 -11.5t-11.5 -30.5q0 -20 14 -33t37 -13q45 0 74 52z" />
    <glyph glyph-name="currency" unicode="&#xa4;" horiz-adv-x="606" 
d="M179 595q56 42 124 42q70 0 125 -42l100 100l40 -39l-100 -101q40 -53 40 -123q0 -34 -9.5 -64.5t-30.5 -58.5l100 -100l-40 -40l-100 100q-26 -20 -56.5 -31t-67.5 -11q-69 0 -125 42l-100 -100l-40 40l101 100q-17 21 -29 52t-12 71q0 68 41 123l-101 101l40 39z
M304 581q-31 0 -58 -11.5t-47 -32t-31.5 -47.5t-11.5 -57q0 -31 11.5 -58t31.5 -47t47 -32t58 -12t58 12t47 32t31.5 47t11.5 58q0 30 -11.5 57t-31.5 47.5t-47 32t-58 11.5z" />
    <glyph glyph-name="yen" unicode="&#xa5;" horiz-adv-x="556" 
d="M158 21q0 10 5.5 14t15.5 8q26 9 39 21t13 49v178h-207v37h207l-59 97h-148v37h126l-73 127q-14 24 -26 40t-32 27q-7 3 -12 7t-5 15v21h185v-18q0 -9 -5 -13t-11.5 -7.5t-11.5 -8t-5 -13.5q0 -11 20 -46l129 -220l135 221q8 14 12 24.5t4 15.5q0 15 -7.5 18t-22.5 8
q-12 5 -12 20v19h155v-15q0 -15 -3.5 -19t-17.5 -10q-22 -10 -35.5 -29t-30.5 -45l-76 -119h128v-37h-153l-61 -97h214v-37h-214v-178q0 -37 12.5 -49t38.5 -21q10 -4 15.5 -8t5.5 -14v-21h-232v21z" />
    <glyph glyph-name="brokenbar" unicode="&#xa6;" 
d="M287 699v-370h-73v370h73zM287 199v-370h-73v370h73z" />
    <glyph glyph-name="section" unicode="&#xa7;" 
d="M302 170q47 -38 70.5 -73.5t23.5 -71.5q0 -54 -45 -89t-124 -35q-31 0 -56.5 8.5t-44 22.5t-28.5 32t-10 38q0 28 15.5 44.5t40.5 16.5q22 0 36 -13.5t14 -34.5q0 -12 -5 -20.5t-10.5 -15t-10.5 -11.5t-5 -11q0 -13 18 -22.5t53 -9.5q40 0 64 21t24 53q0 28 -23.5 56.5
t-67.5 66.5l-88 76q-43 37 -64.5 70.5t-21.5 70.5q0 51 38 86t102 37q-45 39 -68.5 72t-23.5 71q0 27 11 50.5t31 41t48 27.5t63 10q63 0 100 -30t37 -74q0 -25 -16 -42t-41 -17q-21 0 -35.5 13t-14.5 31q0 11 5 19.5t11 15.5t11 13t5 12q0 11 -17 22t-46 11
q-38 0 -58.5 -19t-20.5 -51q0 -34 25 -63t69 -67l86 -74q85 -72 85 -141q0 -54 -37.5 -87.5t-103.5 -35.5zM124 374q0 -32 18.5 -56.5t50.5 -55.5q34 -32 60.5 -49.5t51.5 -17.5q30 0 50 19t20 48q0 26 -16.5 50t-45.5 53q-37 36 -65 54t-53 18q-30 0 -50.5 -19t-20.5 -44z
" />
    <glyph glyph-name="dieresis" unicode="&#xa8;" 
d="M164 584q20 0 34.5 -14.5t14.5 -34.5q0 -21 -14 -35t-35 -14t-34.5 14t-13.5 35q0 20 14 34.5t34 14.5zM336 584q20 0 34 -14.5t14 -34.5q0 -21 -13.5 -35t-34.5 -14t-35 14t-14 35q0 20 14.5 34.5t34.5 14.5z" />
    <glyph glyph-name="copyright" unicode="&#xa9;" horiz-adv-x="822" 
d="M412 679q68 0 131.5 -26.5t112.5 -74.5q48 -48 75 -112.5t27 -134.5q0 -69 -26 -131.5t-76 -113.5q-49 -50 -111.5 -76t-133.5 -26q-70 0 -132 26t-113 76q-102 100 -102 245q0 69 26 131.5t76 113.5q49 50 112.5 76.5t133.5 26.5zM412 637q-60 0 -116 -23.5t-99 -67.5
q-44 -45 -66 -99.5t-22 -115.5q0 -126 89 -215q45 -44 98.5 -66.5t114.5 -22.5q126 0 213 89q44 45 67 100t23 115t-23.5 117.5t-65.5 99.5t-98 65.5t-115 23.5zM566 536l1 -154h-21q-32 133 -137 133q-117 0 -117 -181q0 -92 32 -139t95 -47q81 0 137 86l19 -13
q-59 -103 -169 -103q-42 0 -79 16t-64 44.5t-42.5 66.5t-15.5 82q0 45 15.5 84t42.5 67t63.5 44t78.5 16q23 0 41 -5t31.5 -11t23.5 -11t16 -5q25 0 31 30h18z" />
    <glyph glyph-name="ordfeminine" unicode="&#xaa;" horiz-adv-x="319" 
d="M207 489q-38 -50 -98 -50q-38 0 -61.5 21t-23.5 56q0 99 172 105q0 83 -52 83q-19 0 -27.5 -6.5t-16.5 -22.5q-6 -11 -12 -17.5t-19 -6.5q-10 0 -16.5 7t-6.5 17q0 25 26.5 40t77.5 15q60 0 84 -32t26 -99l2 -57q1 -33 5.5 -48.5t22.5 -15.5q8 0 17 5l10 -21
q-29 -23 -60 -23q-38 0 -50 50zM198 596q-56 -1 -85.5 -21.5t-29.5 -55.5q0 -22 13 -35t33 -13q31 0 50.5 24t19.5 68v6z" />
    <glyph glyph-name="guillemotleft" unicode="&#xab;" horiz-adv-x="431" 
d="M28 197q46 36 78 66.5t53.5 53t33.5 35t18 12.5q9 0 9 -9q0 -34 -95 -158q95 -124 95 -158q0 -9 -9 -9q-6 0 -18 13t-33.5 35.5t-53.5 53t-78 65.5zM211 197q46 36 78 66.5t53.5 53t33.5 35t18 12.5q9 0 9 -9q0 -34 -95 -158q95 -124 95 -158q0 -9 -9 -9q-6 0 -18 13
t-33.5 35.5t-53.5 53t-78 65.5z" />
    <glyph glyph-name="logicalnot" unicode="&#xac;" horiz-adv-x="833" 
d="M709 420v-245h-67v177h-518v68h585z" />
    <glyph glyph-name="registered" unicode="&#xae;" horiz-adv-x="822" 
d="M412 679q69 0 133.5 -27t113.5 -77q48 -48 73.5 -112t25.5 -135q0 -67 -27 -131t-79 -115q-49 -48 -111 -73t-135 -25q-66 0 -128 26.5t-112 75.5q-51 50 -76.5 112t-25.5 133q0 69 25.5 131.5t75.5 113.5q49 50 113 76.5t134 26.5zM412 637q-60 0 -116 -23.5t-99 -67.5
q-44 -45 -66 -99.5t-22 -115.5q0 -126 89 -215t213 -89q61 0 115.5 22.5t97.5 66.5q44 45 66.5 100t22.5 115q0 61 -23 118t-65 99t-98 65.5t-115 23.5zM422 534q75 0 115 -27.5t40 -67.5q0 -42 -33.5 -65t-105.5 -36q46 -14 70.5 -37t34.5 -64q4 -15 5 -28.5t3.5 -24
t7.5 -16.5t17 -6q31 0 31 64h22v-9q0 -42 -20 -63.5t-58 -21.5q-50 0 -66 30q-6 12 -8 24.5t-2.5 26t-1 26t-3.5 24.5q-17 68 -96 68h-14v-120q0 -26 13 -36t45 -12v-22h-190v22q33 2 46 12t13 36v252q0 26 -13 36.5t-46 12.5v22h194zM360 352q11 -1 18.5 -1h12.5
q53 0 80.5 22.5t27.5 61.5q0 34 -23.5 56t-66.5 22q-49 0 -49 -34v-127z" />
    <glyph glyph-name="macron" unicode="&#xaf;" 
d="M376 566v-62h-252v62h252z" />
    <glyph glyph-name="degree" unicode="&#xb0;" horiz-adv-x="329" 
d="M165 711q29 0 54.5 -11t44.5 -30t30 -45t11 -55q0 -28 -11 -53.5t-29.5 -45t-44.5 -30.5t-56 -11t-55.5 11t-44 30t-29.5 44.5t-11 54.5t11 55t30.5 45t45 30t54.5 11zM165 665q-39 0 -67 -27t-28 -67t27.5 -68t67.5 -28q41 0 67.5 28.5t26.5 67.5t-27 66.5t-67 27.5z
" />
    <glyph glyph-name="plusminus" unicode="&#xb1;" horiz-adv-x="833" 
d="M451 582v-166h258v-68h-258v-166h-69v166h-258v68h258v166h69zM709 83v-69h-585v69h585z" />
    <glyph glyph-name="twosuperior" unicode="&#xb2;" horiz-adv-x="333" 
d="M3 301q103 106 157.5 180t54.5 127q0 32 -18.5 50t-49.5 18q-52 0 -100 -60l-15 9q-4 2 -4 6q0 6 16 22q53 53 124 53q53 0 83.5 -26.5t30.5 -71.5q0 -27 -15 -56t-42.5 -62.5t-67 -73t-88.5 -87.5h142q18 0 28.5 3.5t18.5 15.5q5 8 8 12.5t11 4.5h13l-15 -86h-272v22z
" />
    <glyph glyph-name="threesuperior" unicode="&#xb3;" horiz-adv-x="333" 
d="M11 292q1 5 4 6t11 1h18q38 0 70.5 10.5t55.5 27.5t36 40.5t13 48.5q0 32 -20 51t-53 19q-24 0 -57 -14l-6 9q-2 2 -2 6q0 8 10.5 13.5t29.5 16.5q42 26 65 47.5t23 50.5q0 22 -14.5 35t-38.5 13q-48 0 -107 -63l-10 10q-5 5 -5 8t6 11t19 19q56 48 113 48q40 0 64 -20.5
t24 -54.5q0 -55 -86 -98h6q51 0 79 -26t28 -71q0 -66 -65 -116q-65 -48 -170 -48q-20 0 -41 3v17z" />
    <glyph glyph-name="acute" unicode="&#xb4;" 
d="M197 459h-33l141 146q14 14 24.5 21.5t23.5 7.5q15 0 25 -9.5t10 -24.5q0 -21 -30 -41z" />
    <glyph glyph-name="mu" unicode="&#xb5;" horiz-adv-x="571" 
d="M81 95q-17 -74 -24.5 -130.5t-14 -94t-16.5 -56.5t-33 -19q-43 0 -43 46q0 17 8.5 47t21 72.5t28 97.5t30.5 124l53 250h82l-49 -232q-5 -23 -7 -39.5t-2 -25.5q0 -35 20.5 -53.5t58.5 -18.5q49 0 76 27t39 84l55 258h84l-56 -260q-9 -42 -9 -62q0 -49 50 -49q46 0 68 46
q13 26 16 44.5t16 18.5q11 0 11 -14t-6 -40t-18 -52q-38 -76 -105 -76q-39 0 -61 26.5t-22 75.5v6q-25 -55 -59 -81.5t-85 -26.5q-95 0 -107 107z" />
    <glyph glyph-name="paragraph" unicode="&#xb6;" 
d="M468 680h-59v-680h-54v680h-87v-680h-54v382q-85 4 -133.5 50.5t-48.5 119.5q0 38 13.5 69t38.5 53.5t60.5 35t79.5 12.5h244v-42z" />
    <glyph glyph-name="periodcentered" unicode="&#xb7;" horiz-adv-x="252" 
d="M56 350q0 29 20.5 49.5t49.5 20.5t50 -20.5t21 -49.5t-21 -50t-50 -21t-49.5 21t-20.5 50z" />
    <glyph glyph-name="cedilla" unicode="&#xb8;" 
d="M256 0v-55q17 3 30 3q43 0 66 -21.5t23 -58.5q0 -39 -28 -62.5t-79 -23.5q-64 0 -142 39l15 36q34 -19 61.5 -27t47.5 -8q60 0 60 45q0 20 -14.5 32t-41.5 12q-12 0 -29 -3v92h31z" />
    <glyph glyph-name="onesuperior" unicode="&#xb9;" horiz-adv-x="333" 
d="M144 647h-40v12q0 6 6.5 9.5t18.5 8t30.5 11t42.5 18.5v-427h-58v368z" />
    <glyph glyph-name="ordmasculine" unicode="&#xba;" horiz-adv-x="333" 
d="M167 730q65 0 105.5 -40t40.5 -105t-40.5 -105.5t-105.5 -40.5q-66 0 -106 40.5t-40 105.5q0 64 40 104.5t106 40.5zM167 705q-41 0 -59 -30t-18 -90q0 -61 18 -91t59 -30t58.5 30t17.5 91q0 60 -17.5 90t-58.5 30z" />
    <glyph glyph-name="guillemotright" unicode="&#xbb;" horiz-adv-x="431" 
d="M403 197q-46 -36 -78.5 -66.5t-54 -53t-33.5 -35t-18 -12.5q-9 0 -9 11q0 33 95 156q-95 123 -95 156q0 11 9 11q6 0 18 -13t33.5 -35.5t54 -53t78.5 -65.5zM220 197q-46 -36 -78.5 -66.5t-54 -53t-33.5 -35t-18 -12.5q-9 0 -9 11q0 33 95 156q-95 123 -95 156q0 11 9 11
q6 0 18 -13t33.5 -35.5t54 -53t78.5 -65.5z" />
    <glyph glyph-name="onequarter" unicode="&#xbc;" horiz-adv-x="803" 
d="M137 651h-38v11q0 10 24 15.5t69 27.5v-398h-55v344zM597 711h54l-445 -723h-55zM673 119h-182v18l216 261h21v-235q18 0 25 12q4 8 6.5 13.5t8.5 5.5h12l-15 -75h-37v-119h-55v119zM673 163v154l-126 -154h126z" />
    <glyph glyph-name="onehalf" unicode="&#xbd;" horiz-adv-x="803" 
d="M137 651h-38v11q0 10 24 15.5t69 27.5v-398h-55v344zM597 711h54l-445 -723h-55zM488 20q99 100 150.5 169t51.5 118q0 29 -17.5 46t-47.5 17q-51 0 -95 -56l-14 9q-4 1 -4 6t15 20q49 49 119 49q50 0 79.5 -24.5t29.5 -66.5q0 -25 -14.5 -52t-41 -58t-64 -68t-84.5 -82
h136q17 0 27 3t17 14q5 8 8 12.5t11 4.5h12l-15 -81h-259v20z" />
    <glyph glyph-name="threequarters" unicode="&#xbe;" horiz-adv-x="803" 
d="M11 319q0 7 14 7q2 0 6 -0.5t11 -0.5q36 0 67 9.5t53 26t34.5 38t12.5 45.5q0 31 -19 48.5t-51 17.5q-13 0 -26 -3.5t-28 -9.5l-6 8q-2 2 -2 6q0 7 10.5 12t28.5 16q40 24 61.5 44.5t21.5 46.5q0 20 -13.5 32.5t-36.5 12.5q-46 0 -102 -59l-10 10q-4 4 -4 6q0 9 23 29
q53 44 108 44q38 0 61 -18.5t23 -50.5q0 -52 -82 -92h6q48 0 75 -24t27 -66q0 -63 -62 -108q-60 -45 -162 -45h-19.5t-20.5 2zM597 711h54l-445 -723h-55zM673 119h-182v18l216 261h21v-235q18 0 25 12q4 8 6.5 13.5t8.5 5.5h12l-15 -75h-37v-119h-55v119zM673 163v154
l-126 -154h126z" />
    <glyph glyph-name="questiondown" unicode="&#xbf;" horiz-adv-x="444" 
d="M330 384l-16 -15q-20 13 -36.5 18.5t-29.5 5.5q-71 0 -71 -109q0 -56 13.5 -105.5t37.5 -87.5q33 -52 55 -52q11 0 13 6t4 16q8 36 40 36q20 0 32.5 -14t12.5 -37q0 -52 -70 -52t-136 71q-48 52 -72.5 109t-24.5 114q0 81 35.5 125.5t96.5 44.5q27 0 65 -11l-14 68l37 -6
zM345 616q0 -24 -17 -42t-42 -18q-26 0 -43 17t-17 43q0 25 18 42.5t42 17.5q23 0 41 -18.5t18 -41.5z" />
    <glyph glyph-name="Agrave" unicode="&#xc0;" horiz-adv-x="769" 
d="M134 116q-5 -11 -7 -20.5t-2 -17.5q0 -13 7 -20t15 -12t15 -9.5t7 -13.5v-23h-178v20q0 17 8.5 19t22.5 10q23 13 41.5 42t40.5 74l237 485l-20 34q-4 5 -4 12q0 10 9 13t22 8q15 7 24 16t20 9q6 0 12 -13l277 -581q17 -36 32.5 -62t43.5 -42q10 -5 14.5 -8.5t4.5 -14.5
v-21h-223v23q0 9 7 13.5t15 9.5t15 12t7 20q0 17 -10 38l-42 97h-367zM522 259l-157 342l-166 -342h323zM471 788h-33l-161 100q-30 20 -30 41q0 15 10 24.5t25 9.5q13 0 23.5 -7.5t24.5 -21.5z" />
    <glyph glyph-name="Aacute" unicode="&#xc1;" horiz-adv-x="769" 
d="M134 116q-5 -11 -7 -20.5t-2 -17.5q0 -13 7 -20t15 -12t15 -9.5t7 -13.5v-23h-178v20q0 17 8.5 19t22.5 10q23 13 41.5 42t40.5 74l237 485l-20 34q-4 5 -4 12q0 10 9 13t22 8q15 7 24 16t20 9q6 0 12 -13l277 -581q17 -36 32.5 -62t43.5 -42q10 -5 14.5 -8.5t4.5 -14.5
v-21h-223v23q0 9 7 13.5t15 9.5t15 12t7 20q0 17 -10 38l-42 97h-367zM522 259l-157 342l-166 -342h323zM332 788h-33l141 146q14 14 24.5 21.5t23.5 7.5q15 0 25 -9.5t10 -24.5q0 -21 -30 -41z" />
    <glyph glyph-name="Acircumflex" unicode="&#xc2;" horiz-adv-x="769" 
d="M134 116q-5 -11 -7 -20.5t-2 -17.5q0 -13 7 -20t15 -12t15 -9.5t7 -13.5v-23h-178v20q0 17 8.5 19t22.5 10q23 13 41.5 42t40.5 74l237 485l-20 34q-4 5 -4 12q0 10 9 13t22 8q15 7 24 16t20 9q6 0 12 -13l277 -581q17 -36 32.5 -62t43.5 -42q10 -5 14.5 -8.5t4.5 -14.5
v-21h-223v23q0 9 7 13.5t15 9.5t15 12t7 20q0 17 -10 38l-42 97h-367zM522 259l-157 342l-166 -342h323zM414 959l113 -171h-28l-114 103l-114 -103h-28l113 171h58z" />
    <glyph glyph-name="Atilde" unicode="&#xc3;" horiz-adv-x="769" 
d="M134 116q-5 -11 -7 -20.5t-2 -17.5q0 -13 7 -20t15 -12t15 -9.5t7 -13.5v-23h-178v20q0 17 8.5 19t22.5 10q23 13 41.5 42t40.5 74l237 485l-20 34q-4 5 -4 12q0 10 9 13t22 8q15 7 24 16t20 9q6 0 12 -13l277 -581q17 -36 32.5 -62t43.5 -42q10 -5 14.5 -8.5t4.5 -14.5
v-21h-223v23q0 9 7 13.5t15 9.5t15 12t7 20q0 17 -10 38l-42 97h-367zM522 259l-157 342l-166 -342h323zM525 933q-19 -99 -95 -99q-19 0 -36 4l-53 14q-12 3 -28 3q-17 0 -26.5 -10.5t-16.5 -33.5h-25q18 104 96 104q14 0 31 -5l54 -14q8 -2 15 -3t12 -1q18 0 28.5 9
t17.5 32h26z" />
    <glyph glyph-name="Adieresis" unicode="&#xc4;" horiz-adv-x="769" 
d="M134 116q-5 -11 -7 -20.5t-2 -17.5q0 -13 7 -20t15 -12t15 -9.5t7 -13.5v-23h-178v20q0 17 8.5 19t22.5 10q23 13 41.5 42t40.5 74l237 485l-20 34q-4 5 -4 12q0 10 9 13t22 8q15 7 24 16t20 9q6 0 12 -13l277 -581q17 -36 32.5 -62t43.5 -42q10 -5 14.5 -8.5t4.5 -14.5
v-21h-223v23q0 9 7 13.5t15 9.5t15 12t7 20q0 17 -10 38l-42 97h-367zM522 259l-157 342l-166 -342h323zM299 913q20 0 34.5 -14.5t14.5 -34.5q0 -21 -14 -35t-35 -14t-34.5 14t-13.5 35q0 20 14 34.5t34 14.5zM471 913q20 0 34 -14.5t14 -34.5q0 -21 -13.5 -35t-34.5 -14
t-35 14t-14 35q0 20 14.5 34.5t34.5 14.5z" />
    <glyph glyph-name="Aring" unicode="&#xc5;" horiz-adv-x="769" 
d="M134 116q-5 -11 -7 -20.5t-2 -17.5q0 -13 7 -20t15 -12t15 -9.5t7 -13.5v-23h-178v20q0 17 8.5 19t22.5 10q23 13 41.5 42t40.5 74l237 485l-6 10q-4 5 -4 12q0 10 8.5 13t21.5 8q15 7 24 15.5t20 8.5q7 0 13 -13l263 -556q17 -36 33 -62t43 -42q10 -5 14.5 -8.5
t4.5 -14.5v-21h-223v23q0 9 7 13.5t15 9.5t15 12t7 20q0 17 -10 38l-42 97h-367zM522 259l-157 342l-166 -342h323zM386 963q23 0 43 -8.5t35 -23.5t24 -35t9 -43t-8.5 -43t-23.5 -35t-35.5 -24t-43.5 -9t-43 8.5t-35 23.5t-23.5 35.5t-8.5 43.5t8.5 43t23.5 35t35 23.5
t43 8.5zM386 921q-29 0 -48.5 -20t-19.5 -49q0 -28 20 -48t48 -20q29 0 49 20t20 48q0 29 -20 49t-49 20z" />
    <glyph glyph-name="AE" unicode="&#xc6;" horiz-adv-x="998" 
d="M379 22q0 11 4.5 14.5t12.5 7.5q11 5 19 10t13 13t7 19.5t2 30.5v231h-220l-91 -212q-7 -15 -9.5 -30t-2.5 -26q0 -22 10.5 -27t24.5 -13q9 -5 9 -18v-22h-182v22q0 11 4.5 14.5t12.5 7.5q38 19 58.5 52t42.5 85l184 426q5 11 8 20.5t3 17.5q0 12 -7.5 18t-16.5 11
t-16.5 11t-7.5 16v21h587q35 0 81 9v-135h-19q-9 0 -13.5 2.5t-7 6.5t-4.5 10.5t-7 13.5q-19 32 -49.5 40.5t-84.5 8.5h-192v-286h121q31 0 49.5 3t29.5 17q6 8 8.5 18t15.5 10h21v-159h-20q-15 0 -16 9t-8 22q-12 21 -30.5 28.5t-52.5 7.5h-118v-304h224q60 0 96.5 15.5
t53.5 52.5q11 23 13.5 39t14.5 16h28v-167h-583v22zM438 392v203q0 43 -8.5 63.5t-35.5 20.5q-23 0 -39.5 -20t-33.5 -61l-88 -206h205z" />
    <glyph glyph-name="Ccedilla" unicode="&#xc7;" horiz-adv-x="682" 
d="M661 134q-54 -71 -127 -108.5t-158 -37.5q-134 0 -229 84q-57 51 -87 121.5t-30 156.5t27 156t80 124q51 51 114.5 77.5t135.5 26.5q39 0 70 -6t53.5 -13.5t37 -14t20.5 -6.5q8 0 14.5 2t11.5 2h17v-164h-13q-18 0 -19.5 8t-6.5 22q-23 64 -68.5 97.5t-113.5 33.5
q-57 0 -103.5 -22t-79.5 -65t-50.5 -105t-17.5 -142q0 -75 18 -134t52 -99.5t82.5 -61.5t108.5 -21q66 0 125 29t109 87zM347 0v-55q17 3 30 3q43 0 66 -21.5t23 -58.5q0 -39 -28 -62.5t-79 -23.5q-64 0 -142 39l15 36q34 -19 61.5 -27t47.5 -8q60 0 60 45q0 20 -14.5 32
t-41.5 12q-12 0 -29 -3v92h31z" />
    <glyph glyph-name="Egrave" unicode="&#xc8;" horiz-adv-x="667" 
d="M48 22q0 11 4.5 14.5t12.5 7.5q11 5 19 10t13 13t7 19.5t2 30.5v489q0 18 -2 30t-7 19.5t-13 12.5t-19 10q-8 4 -12.5 8t-4.5 15v21h451q36 0 79 9v-135h-19q-9 0 -13.5 2.5t-7 6.5t-4.5 10.5t-7 13.5q-19 32 -49.5 40.5t-84.5 8.5h-192v-286h121q31 0 49.5 3t29.5 17
q6 8 8.5 18t15.5 10h21v-159h-20q-15 0 -16 9t-8 22q-12 21 -30.5 28.5t-52.5 7.5h-118v-304h224q60 0 96 15.5t54 52.5q11 23 13.5 39t14.5 16h28v-167h-583v22zM420 788h-33l-161 100q-30 20 -30 41q0 15 10 24.5t25 9.5q13 0 23.5 -7.5t24.5 -21.5z" />
    <glyph glyph-name="Eacute" unicode="&#xc9;" horiz-adv-x="667" 
d="M48 22q0 11 4.5 14.5t12.5 7.5q11 5 19 10t13 13t7 19.5t2 30.5v489q0 18 -2 30t-7 19.5t-13 12.5t-19 10q-8 4 -12.5 8t-4.5 15v21h451q36 0 79 9v-135h-19q-9 0 -13.5 2.5t-7 6.5t-4.5 10.5t-7 13.5q-19 32 -49.5 40.5t-84.5 8.5h-192v-286h121q31 0 49.5 3t29.5 17
q6 8 8.5 18t15.5 10h21v-159h-20q-15 0 -16 9t-8 22q-12 21 -30.5 28.5t-52.5 7.5h-118v-304h224q60 0 96 15.5t54 52.5q11 23 13.5 39t14.5 16h28v-167h-583v22zM281 788h-33l141 146q14 14 24.5 21.5t23.5 7.5q15 0 25 -9.5t10 -24.5q0 -21 -30 -41z" />
    <glyph glyph-name="Ecircumflex" unicode="&#xca;" horiz-adv-x="667" 
d="M48 22q0 11 4.5 14.5t12.5 7.5q11 5 19 10t13 13t7 19.5t2 30.5v489q0 18 -2 30t-7 19.5t-13 12.5t-19 10q-8 4 -12.5 8t-4.5 15v21h451q36 0 79 9v-135h-19q-9 0 -13.5 2.5t-7 6.5t-4.5 10.5t-7 13.5q-19 32 -49.5 40.5t-84.5 8.5h-192v-286h121q31 0 49.5 3t29.5 17
q6 8 8.5 18t15.5 10h21v-159h-20q-15 0 -16 9t-8 22q-12 21 -30.5 28.5t-52.5 7.5h-118v-304h224q60 0 96 15.5t54 52.5q11 23 13.5 39t14.5 16h28v-167h-583v22zM363 959l113 -171h-28l-114 103l-114 -103h-28l113 171h58z" />
    <glyph glyph-name="Edieresis" unicode="&#xcb;" horiz-adv-x="667" 
d="M48 22q0 11 4.5 14.5t12.5 7.5q11 5 19 10t13 13t7 19.5t2 30.5v489q0 18 -2 30t-7 19.5t-13 12.5t-19 10q-8 4 -12.5 8t-4.5 15v21h451q36 0 79 9v-135h-19q-9 0 -13.5 2.5t-7 6.5t-4.5 10.5t-7 13.5q-19 32 -49.5 40.5t-84.5 8.5h-192v-286h121q31 0 49.5 3t29.5 17
q6 8 8.5 18t15.5 10h21v-159h-20q-15 0 -16 9t-8 22q-12 21 -30.5 28.5t-52.5 7.5h-118v-304h224q60 0 96 15.5t54 52.5q11 23 13.5 39t14.5 16h28v-167h-583v22zM248 913q20 0 34.5 -14.5t14.5 -34.5q0 -21 -14 -35t-35 -14t-34.5 14t-13.5 35q0 20 14 34.5t34 14.5z
M420 913q20 0 34 -14.5t14 -34.5q0 -21 -13.5 -35t-34.5 -14t-35 14t-14 35q0 20 14.5 34.5t34.5 14.5z" />
    <glyph glyph-name="Igrave" unicode="&#xcc;" horiz-adv-x="308" 
d="M201 117q0 -19 2.5 -30.5t7.5 -19.5t13 -13t19 -10q8 -4 12.5 -7.5t4.5 -14.5v-22h-212v22q0 11 4.5 14.5t12.5 7.5q11 5 19 10t13 13t7 19.5t2 30.5v489q0 18 -2 30t-7 19.5t-13 12.5t-19 10q-8 4 -12.5 8t-4.5 15v21h212v-21q0 -11 -4.5 -15t-12.5 -8q-11 -5 -19 -10
t-13 -12.5t-7.5 -19.5t-2.5 -30v-489zM240 788h-33l-161 100q-30 20 -30 41q0 15 10 24.5t25 9.5q13 0 23.5 -7.5t24.5 -21.5z" />
    <glyph glyph-name="Iacute" unicode="&#xcd;" horiz-adv-x="308" 
d="M201 117q0 -19 2.5 -30.5t7.5 -19.5t13 -13t19 -10q8 -4 12.5 -7.5t4.5 -14.5v-22h-212v22q0 11 4.5 14.5t12.5 7.5q11 5 19 10t13 13t7 19.5t2 30.5v489q0 18 -2 30t-7 19.5t-13 12.5t-19 10q-8 4 -12.5 8t-4.5 15v21h212v-21q0 -11 -4.5 -15t-12.5 -8q-11 -5 -19 -10
t-13 -12.5t-7.5 -19.5t-2.5 -30v-489zM101 788h-33l141 146q14 14 24.5 21.5t23.5 7.5q15 0 25 -9.5t10 -24.5q0 -21 -30 -41z" />
    <glyph glyph-name="Icircumflex" unicode="&#xce;" horiz-adv-x="308" 
d="M201 117q0 -19 2.5 -30.5t7.5 -19.5t13 -13t19 -10q8 -4 12.5 -7.5t4.5 -14.5v-22h-212v22q0 11 4.5 14.5t12.5 7.5q11 5 19 10t13 13t7 19.5t2 30.5v489q0 18 -2 30t-7 19.5t-13 12.5t-19 10q-8 4 -12.5 8t-4.5 15v21h212v-21q0 -11 -4.5 -15t-12.5 -8q-11 -5 -19 -10
t-13 -12.5t-7.5 -19.5t-2.5 -30v-489zM183 959l113 -171h-28l-114 103l-114 -103h-28l113 171h58z" />
    <glyph glyph-name="Idieresis" unicode="&#xcf;" horiz-adv-x="308" 
d="M201 117q0 -19 2.5 -30.5t7.5 -19.5t13 -13t19 -10q8 -4 12.5 -7.5t4.5 -14.5v-22h-212v22q0 11 4.5 14.5t12.5 7.5q11 5 19 10t13 13t7 19.5t2 30.5v489q0 18 -2 30t-7 19.5t-13 12.5t-19 10q-8 4 -12.5 8t-4.5 15v21h212v-21q0 -11 -4.5 -15t-12.5 -8q-11 -5 -19 -10
t-13 -12.5t-7.5 -19.5t-2.5 -30v-489zM68 913q20 0 34.5 -14.5t14.5 -34.5q0 -21 -14 -35t-35 -14t-34.5 14t-13.5 35q0 20 14 34.5t34 14.5zM240 913q20 0 34 -14.5t14 -34.5q0 -21 -13.5 -35t-34.5 -14t-35 14t-14 35q0 20 14.5 34.5t34.5 14.5z" />
    <glyph glyph-name="Eth" unicode="&#xd0;" horiz-adv-x="760" 
d="M208 49q26 -2 46.5 -3.5t37.5 -1.5q159 0 245.5 83t86.5 234q0 152 -86.5 234.5t-245.5 82.5q-17 0 -38.5 -1.5t-45.5 -3.5v-279h178v-47h-178v-298zM55 22q0 11 4.5 14.5t12.5 7.5q11 5 19 10t13 13t7 19.5t2 30.5v230h-113v47h113v212q0 18 -2 30t-7 19.5t-13 12.5
t-19 10q-8 4 -12.5 8t-4.5 15v21h249q103 0 183 -24.5t134.5 -70.5t83 -111.5t28.5 -147.5t-29.5 -150t-84 -116.5t-131.5 -75t-172 -26.5h-261v22z" />
    <glyph glyph-name="Ntilde" unicode="&#xd1;" horiz-adv-x="769" 
d="M148 117q0 -19 2.5 -31t8 -19.5t14.5 -12.5t22 -10q9 -4 14 -8t5 -14v-22h-178v22q0 11 5 14.5t14 7.5q13 5 22 10t14.5 13t8 19.5t2.5 30.5v489q0 28 -8 43t-34 29q-7 4 -12 8t-5 15v21h146l433 -542v426q0 19 -2.5 30.5t-8 19t-14.5 12.5t-22 10q-9 4 -14 8t-5 15v21
h178v-21q0 -11 -4.5 -15t-13.5 -8q-13 -5 -22 -10t-14.5 -12.5t-8 -19t-2.5 -30.5v-606h-29l-492 611v-494zM525 933q-19 -99 -95 -99q-19 0 -36 4l-53 14q-12 3 -28 3q-17 0 -26.5 -10.5t-16.5 -33.5h-25q18 104 96 104q14 0 31 -5l54 -14q8 -2 15 -3t12 -1q18 0 28.5 9
t17.5 32h26z" />
    <glyph glyph-name="Ograve" unicode="&#xd2;" horiz-adv-x="808" 
d="M30 361q0 85 31 157t88 123q102 93 255 93t255 -93q57 -51 88 -123t31 -157t-31 -156.5t-88 -123.5q-102 -93 -255 -93t-255 93q-57 52 -88 123.5t-31 156.5zM404 692q-125 0 -195.5 -86t-70.5 -245t70.5 -245t195.5 -86t195.5 86t70.5 245t-70.5 245t-195.5 86zM490 788
h-33l-161 100q-30 20 -30 41q0 15 10 24.5t25 9.5q13 0 23.5 -7.5t24.5 -21.5z" />
    <glyph glyph-name="Oacute" unicode="&#xd3;" horiz-adv-x="808" 
d="M30 361q0 85 31 157t88 123q102 93 255 93t255 -93q57 -51 88 -123t31 -157t-31 -156.5t-88 -123.5q-102 -93 -255 -93t-255 93q-57 52 -88 123.5t-31 156.5zM404 692q-125 0 -195.5 -86t-70.5 -245t70.5 -245t195.5 -86t195.5 86t70.5 245t-70.5 245t-195.5 86zM351 788
h-33l141 146q14 14 24.5 21.5t23.5 7.5q15 0 25 -9.5t10 -24.5q0 -21 -30 -41z" />
    <glyph glyph-name="Ocircumflex" unicode="&#xd4;" horiz-adv-x="808" 
d="M30 361q0 85 31 157t88 123q102 93 255 93t255 -93q57 -51 88 -123t31 -157t-31 -156.5t-88 -123.5q-102 -93 -255 -93t-255 93q-57 52 -88 123.5t-31 156.5zM404 692q-125 0 -195.5 -86t-70.5 -245t70.5 -245t195.5 -86t195.5 86t70.5 245t-70.5 245t-195.5 86zM433 959
l113 -171h-28l-114 103l-114 -103h-28l113 171h58z" />
    <glyph glyph-name="Otilde" unicode="&#xd5;" horiz-adv-x="808" 
d="M30 361q0 85 31 157t88 123q102 93 255 93t255 -93q57 -51 88 -123t31 -157t-31 -156.5t-88 -123.5q-102 -93 -255 -93t-255 93q-57 52 -88 123.5t-31 156.5zM404 692q-125 0 -195.5 -86t-70.5 -245t70.5 -245t195.5 -86t195.5 86t70.5 245t-70.5 245t-195.5 86zM544 933
q-19 -99 -95 -99q-19 0 -36 4l-53 14q-12 3 -28 3q-17 0 -26.5 -10.5t-16.5 -33.5h-25q18 104 96 104q14 0 31 -5l54 -14q8 -2 15 -3t12 -1q18 0 28.5 9t17.5 32h26z" />
    <glyph glyph-name="Odieresis" unicode="&#xd6;" horiz-adv-x="808" 
d="M30 361q0 85 31 157t88 123q102 93 255 93t255 -93q57 -51 88 -123t31 -157t-31 -156.5t-88 -123.5q-102 -93 -255 -93t-255 93q-57 52 -88 123.5t-31 156.5zM404 692q-125 0 -195.5 -86t-70.5 -245t70.5 -245t195.5 -86t195.5 86t70.5 245t-70.5 245t-195.5 86zM318 913
q20 0 34.5 -14.5t14.5 -34.5q0 -21 -14 -35t-35 -14t-34.5 14t-13.5 35q0 20 14 34.5t34 14.5zM490 913q20 0 34 -14.5t14 -34.5q0 -21 -13.5 -35t-34.5 -14t-35 14t-14 35q0 20 14.5 34.5t34.5 14.5z" />
    <glyph glyph-name="multiply" unicode="&#xd7;" horiz-adv-x="833" 
d="M420 346l229 229l48 -48l-229 -229l229 -229l-48 -47l-229 228l-229 -228l-48 47l229 229l-229 229l48 48z" />
    <glyph glyph-name="Oslash" unicode="&#xd8;" horiz-adv-x="808" 
d="M557 644q-30 26 -67.5 37t-85.5 11q-125 0 -195.5 -86t-70.5 -245q0 -81 19 -144t64 -113zM253 75q32 -24 69 -34.5t82 -10.5q125 0 195.5 86t70.5 245q0 169 -80 254zM184 52q-76 54 -115 133t-39 176q0 85 31 156.5t88 123.5q102 93 255 93q102 0 181 -41l49 78h51
l-62 -101q75 -52 115 -131.5t40 -177.5q0 -85 -31 -157t-88 -123q-102 -93 -255 -93q-97 0 -182 41l-59 -96h-52z" />
    <glyph glyph-name="Ugrave" unicode="&#xd9;" horiz-adv-x="812" 
d="M668 606q0 19 -2.5 30.5t-8 19t-14.5 12.5t-22 10q-9 4 -14 8t-5 15v21h178v-21q0 -11 -5 -15t-14 -8q-12 -5 -21 -10t-15 -12.5t-8.5 -19t-2.5 -30.5v-269q0 -78 -8.5 -135.5t-37.5 -98.5q-45 -62 -111 -88.5t-162 -26.5q-153 0 -226 73q-23 23 -36.5 49.5t-20.5 57
t-9 66t-2 76.5v296q0 18 -2.5 30t-7.5 19.5t-13 12.5t-19 10q-8 4 -12.5 8t-4.5 15v21h212v-21q0 -11 -4.5 -15t-12.5 -8q-11 -5 -19 -10t-13 -12.5t-7 -19.5t-2 -30v-276q0 -72 7.5 -123t33.5 -83q57 -72 186 -72q68 0 115 16t76 50t41.5 87t12.5 127v274zM515 788h-33
l-161 100q-30 20 -30 41q0 15 10 24.5t25 9.5q13 0 23.5 -7.5t24.5 -21.5z" />
    <glyph glyph-name="Uacute" unicode="&#xda;" horiz-adv-x="812" 
d="M668 606q0 19 -2.5 30.5t-8 19t-14.5 12.5t-22 10q-9 4 -14 8t-5 15v21h178v-21q0 -11 -5 -15t-14 -8q-12 -5 -21 -10t-15 -12.5t-8.5 -19t-2.5 -30.5v-269q0 -78 -8.5 -135.5t-37.5 -98.5q-45 -62 -111 -88.5t-162 -26.5q-153 0 -226 73q-23 23 -36.5 49.5t-20.5 57
t-9 66t-2 76.5v296q0 18 -2.5 30t-7.5 19.5t-13 12.5t-19 10q-8 4 -12.5 8t-4.5 15v21h212v-21q0 -11 -4.5 -15t-12.5 -8q-11 -5 -19 -10t-13 -12.5t-7 -19.5t-2 -30v-276q0 -72 7.5 -123t33.5 -83q57 -72 186 -72q68 0 115 16t76 50t41.5 87t12.5 127v274zM376 788h-33
l141 146q14 14 24.5 21.5t23.5 7.5q15 0 25 -9.5t10 -24.5q0 -21 -30 -41z" />
    <glyph glyph-name="Ucircumflex" unicode="&#xdb;" horiz-adv-x="812" 
d="M668 606q0 19 -2.5 30.5t-8 19t-14.5 12.5t-22 10q-9 4 -14 8t-5 15v21h178v-21q0 -11 -5 -15t-14 -8q-12 -5 -21 -10t-15 -12.5t-8.5 -19t-2.5 -30.5v-269q0 -78 -8.5 -135.5t-37.5 -98.5q-45 -62 -111 -88.5t-162 -26.5q-153 0 -226 73q-23 23 -36.5 49.5t-20.5 57
t-9 66t-2 76.5v296q0 18 -2.5 30t-7.5 19.5t-13 12.5t-19 10q-8 4 -12.5 8t-4.5 15v21h212v-21q0 -11 -4.5 -15t-12.5 -8q-11 -5 -19 -10t-13 -12.5t-7 -19.5t-2 -30v-276q0 -72 7.5 -123t33.5 -83q57 -72 186 -72q68 0 115 16t76 50t41.5 87t12.5 127v274zM458 959
l113 -171h-28l-114 103l-114 -103h-28l113 171h58z" />
    <glyph glyph-name="Udieresis" unicode="&#xdc;" horiz-adv-x="812" 
d="M668 606q0 19 -2.5 30.5t-8 19t-14.5 12.5t-22 10q-9 4 -14 8t-5 15v21h178v-21q0 -11 -5 -15t-14 -8q-12 -5 -21 -10t-15 -12.5t-8.5 -19t-2.5 -30.5v-269q0 -78 -8.5 -135.5t-37.5 -98.5q-45 -62 -111 -88.5t-162 -26.5q-153 0 -226 73q-23 23 -36.5 49.5t-20.5 57
t-9 66t-2 76.5v296q0 18 -2.5 30t-7.5 19.5t-13 12.5t-19 10q-8 4 -12.5 8t-4.5 15v21h212v-21q0 -11 -4.5 -15t-12.5 -8q-11 -5 -19 -10t-13 -12.5t-7 -19.5t-2 -30v-276q0 -72 7.5 -123t33.5 -83q57 -72 186 -72q68 0 115 16t76 50t41.5 87t12.5 127v274zM343 913
q20 0 34.5 -14.5t14.5 -34.5q0 -21 -14 -35t-35 -14t-34.5 14t-13.5 35q0 20 14 34.5t34 14.5zM515 913q20 0 34 -14.5t14 -34.5q0 -21 -13.5 -35t-34.5 -14t-35 14t-14 35q0 20 14.5 34.5t34.5 14.5z" />
    <glyph glyph-name="Yacute" unicode="&#xdd;" horiz-adv-x="700" 
d="M116 580q-17 23 -31 40.5t-27 29.5q-12 11 -25.5 17t-26.5 11q-8 4 -12.5 8.5t-4.5 14.5v21h232v-19q0 -9 -5 -13.5t-11.5 -7.5t-11.5 -7.5t-5 -14.5t7 -21t19 -26l169 -221l168 211q16 20 24 32.5t8 22.5q0 12 -7.5 16t-22.5 9q-7 2 -8 6.5t-1 12.5v20h177v-15
q0 -9 -2 -14t-6 -8.5t-11 -7t-18 -9.5q-16 -8 -36 -26.5t-43 -46.5l-209 -258v-220q0 -19 3 -31t9.5 -19.5t16.5 -12.5t24 -10q10 -4 16 -8t6 -14v-22h-245v22q0 10 5.5 14t15.5 8q14 5 24 10t17 12.5t10 19.5t3 31v220zM297 788h-33l141 146q14 14 24.5 21.5t23.5 7.5
q15 0 25 -9.5t10 -24.5q0 -21 -30 -41z" />
    <glyph glyph-name="Thorn" unicode="&#xde;" horiz-adv-x="653" 
d="M106 606q0 18 -2 30t-7 19.5t-13 12.5t-19 10q-8 4 -12.5 8t-4.5 15v21h212v-21q0 -11 -4.5 -15t-12.5 -8q-11 -5 -19 -10t-13 -12.5t-7.5 -19.5t-2.5 -30v-43h57q91 0 150.5 -5t89.5 -17q69 -27 101.5 -70t32.5 -109q0 -51 -26.5 -93.5t-76.5 -68.5q-32 -17 -80.5 -23
t-115.5 -6h-132v-54q0 -19 2.5 -30.5t7.5 -19.5t13 -13t19 -10q8 -4 12.5 -7.5t4.5 -14.5v-22h-212v22q0 11 4.5 14.5t12.5 7.5q11 5 19 10t13 13t7 19.5t2 30.5v489zM316 215q108 0 157 36.5t49 125.5q0 42 -14 71t-45 49q-26 16 -63.5 19t-90.5 3h-108v-304h115z" />
    <glyph glyph-name="germandbls" unicode="&#xdf;" horiz-adv-x="521" 
d="M33 0v18q0 14 8.5 17t18.5 8t12 19.5t2 40.5v396q0 112 48 167.5t142 55.5q80 0 128.5 -47t48.5 -127q0 -69 -40 -114t-117 -60q103 -10 156.5 -61t53.5 -136q0 -43 -12.5 -78t-35.5 -59.5t-55 -37.5t-70 -13q-57 0 -92.5 29t-35.5 74q0 26 14.5 42.5t36.5 16.5
q20 0 32.5 -13t12.5 -32q0 -11 -4 -19t-9 -14t-9 -10.5t-4 -8.5q0 -22 42 -22q43 0 69 37.5t26 106.5q0 175 -153 175h-15q-15 0 -21.5 4t-6.5 16q0 23 20 23h25q48 0 78.5 40t30.5 112q0 66 -26 102.5t-71 36.5q-55 0 -79 -46.5t-24 -143.5v-495h-125z" />
    <glyph glyph-name="agrave" unicode="&#xe0;" horiz-adv-x="425" 
d="M276 60q-51 -72 -131 -72q-51 0 -82 30.5t-31 80.5q0 69 57 107t172 43q0 118 -69 118q-26 0 -37 -9t-22 -32q-8 -17 -16 -25.5t-25 -8.5q-14 0 -22.5 10t-8.5 24q0 35 36 57t103 22q79 0 112 -45.5t35 -142.5l2 -81q1 -48 7 -70t31 -22q9 0 22 7l13 -29q-38 -34 -79 -34
q-52 0 -67 72zM264 213q-75 -2 -114 -31t-39 -79q0 -31 17 -49.5t44 -18.5q42 0 67.5 34t25.5 97v9zM289 459h-33l-161 100q-30 20 -30 41q0 15 10 24.5t25 9.5q13 0 23.5 -7.5t24.5 -21.5z" />
    <glyph glyph-name="aacute" unicode="&#xe1;" horiz-adv-x="425" 
d="M276 60q-51 -72 -131 -72q-51 0 -82 30.5t-31 80.5q0 69 57 107t172 43q0 118 -69 118q-26 0 -37 -9t-22 -32q-8 -17 -16 -25.5t-25 -8.5q-14 0 -22.5 10t-8.5 24q0 35 36 57t103 22q79 0 112 -45.5t35 -142.5l2 -81q1 -48 7 -70t31 -22q9 0 22 7l13 -29q-38 -34 -79 -34
q-52 0 -67 72zM264 213q-75 -2 -114 -31t-39 -79q0 -31 17 -49.5t44 -18.5q42 0 67.5 34t25.5 97v9zM150 459h-33l141 146q14 14 24.5 21.5t23.5 7.5q15 0 25 -9.5t10 -24.5q0 -21 -30 -41z" />
    <glyph glyph-name="acircumflex" unicode="&#xe2;" horiz-adv-x="425" 
d="M276 60q-51 -72 -131 -72q-51 0 -82 30.5t-31 80.5q0 69 57 107t172 43q0 118 -69 118q-26 0 -37 -9t-22 -32q-8 -17 -16 -25.5t-25 -8.5q-14 0 -22.5 10t-8.5 24q0 35 36 57t103 22q79 0 112 -45.5t35 -142.5l2 -81q1 -48 7 -70t31 -22q9 0 22 7l13 -29q-38 -34 -79 -34
q-52 0 -67 72zM264 213q-75 -2 -114 -31t-39 -79q0 -31 17 -49.5t44 -18.5q42 0 67.5 34t25.5 97v9zM232 630l113 -171h-28l-114 103l-114 -103h-28l113 171h58z" />
    <glyph glyph-name="atilde" unicode="&#xe3;" horiz-adv-x="425" 
d="M276 60q-51 -72 -131 -72q-51 0 -82 30.5t-31 80.5q0 69 57 107t172 43q0 118 -69 118q-26 0 -37 -9t-22 -32q-8 -17 -16 -25.5t-25 -8.5q-14 0 -22.5 10t-8.5 24q0 35 36 57t103 22q79 0 112 -45.5t35 -142.5l2 -81q1 -48 7 -70t31 -22q9 0 22 7l13 -29q-38 -34 -79 -34
q-52 0 -67 72zM264 213q-75 -2 -114 -31t-39 -79q0 -31 17 -49.5t44 -18.5q42 0 67.5 34t25.5 97v9zM343 604q-19 -99 -95 -99q-19 0 -36 4l-53 14q-12 3 -28 3q-17 0 -26.5 -10.5t-16.5 -33.5h-25q18 104 96 104q14 0 31 -5l54 -14q8 -2 15 -3t12 -1q18 0 28.5 9t17.5 32
h26z" />
    <glyph glyph-name="adieresis" unicode="&#xe4;" horiz-adv-x="425" 
d="M276 60q-51 -72 -131 -72q-51 0 -82 30.5t-31 80.5q0 69 57 107t172 43q0 118 -69 118q-26 0 -37 -9t-22 -32q-8 -17 -16 -25.5t-25 -8.5q-14 0 -22.5 10t-8.5 24q0 35 36 57t103 22q79 0 112 -45.5t35 -142.5l2 -81q1 -48 7 -70t31 -22q9 0 22 7l13 -29q-38 -34 -79 -34
q-52 0 -67 72zM264 213q-75 -2 -114 -31t-39 -79q0 -31 17 -49.5t44 -18.5q42 0 67.5 34t25.5 97v9zM117 584q20 0 34.5 -14.5t14.5 -34.5q0 -21 -14 -35t-35 -14t-34.5 14t-13.5 35q0 20 14 34.5t34 14.5zM289 584q20 0 34 -14.5t14 -34.5q0 -21 -13.5 -35t-34.5 -14
t-35 14t-14 35q0 20 14.5 34.5t34.5 14.5z" />
    <glyph glyph-name="aring" unicode="&#xe5;" horiz-adv-x="425" 
d="M276 60q-51 -72 -131 -72q-51 0 -82 30.5t-31 80.5q0 69 57 107t172 43q0 118 -69 118q-26 0 -37 -9t-22 -32q-8 -17 -16 -25.5t-25 -8.5q-14 0 -22.5 10t-8.5 24q0 35 36 57t103 22q79 0 112 -45.5t35 -142.5l2 -81q1 -48 7 -70t31 -22q9 0 22 7l13 -29q-38 -34 -79 -34
q-52 0 -67 72zM264 213q-75 -2 -114 -31t-39 -79q0 -31 17 -49.5t44 -18.5q42 0 67.5 34t25.5 97v9zM209 675q25 0 46.5 -9t37 -25t24.5 -37.5t9 -46.5t-9 -46t-24.5 -37t-37 -25t-46.5 -9t-46.5 9t-37.5 25t-25 37t-9 46t9 46.5t25 37.5t37.5 25t46.5 9zM209 630
q-30 0 -51.5 -21t-21.5 -52q0 -30 21.5 -51.5t51.5 -21.5q31 0 52 21.5t21 51.5q0 31 -21 52t-52 21z" />
    <glyph glyph-name="ae" unicode="&#xe6;" horiz-adv-x="620" 
d="M263 221q-78 -5 -119 -36t-41 -82q0 -32 17.5 -50t47.5 -18q52 0 73.5 34.5t21.5 105.5v46zM347 223v-17q0 -167 112 -167q67 0 116 61l23 -20q-56 -92 -168 -92q-45 0 -81 20t-58 55q-58 -75 -147 -75q-57 0 -88 30t-31 82q0 72 60 112t178 44q-1 53 -22 82t-56 29
q-26 0 -37 -9t-22 -32q-8 -17 -16 -25.5t-25 -8.5q-14 0 -22.5 10t-8.5 24q0 35 36 57t103 22q81 0 119 -55q44 55 122 55q73 0 116.5 -44t43.5 -122q0 -4 -0.5 -7.5t-0.5 -8.5h-246zM504 261v7q0 49 -20 74.5t-57 25.5q-33 0 -54 -27.5t-23 -79.5h154z" />
    <glyph glyph-name="ccedilla" unicode="&#xe7;" horiz-adv-x="377" 
d="M375 61q-75 -73 -161 -73q-40 0 -74 15t-59.5 42t-40 64.5t-14.5 82.5q0 46 15.5 85t42.5 67.5t63 44.5t77 16q58 0 91.5 -24t33.5 -56q0 -17 -10 -26.5t-27 -9.5q-18 0 -25.5 8t-14.5 26q-8 23 -19 33.5t-34 10.5q-21 0 -39.5 -11t-32.5 -31.5t-22.5 -49t-8.5 -63.5
q0 -39 10.5 -70.5t28.5 -54t42 -34.5t52 -12q55 0 104 46zM195 0v-55q17 3 30 3q43 0 66 -21.5t23 -58.5q0 -39 -28 -62.5t-79 -23.5q-64 0 -142 39l15 36q34 -19 61.5 -27t47.5 -8q60 0 60 45q0 20 -14.5 32t-41.5 12q-12 0 -29 -3v92h31z" />
    <glyph glyph-name="egrave" unicode="&#xe8;" horiz-adv-x="394" 
d="M119 228v-18q0 -171 112 -171q68 0 117 61l23 -20q-28 -45 -68.5 -68.5t-90.5 -23.5q-41 0 -75 15t-58 42t-37.5 65t-13.5 84q0 47 14 86t38 67t56.5 43t69.5 15q72 0 115.5 -44t43.5 -119v-14h-246zM277 266v3q0 48 -20 73.5t-57 25.5q-32 0 -52.5 -25.5t-24.5 -76.5
h154zM301 459h-33l-161 100q-30 20 -30 41q0 15 10 24.5t25 9.5q13 0 23.5 -7.5t24.5 -21.5z" />
    <glyph glyph-name="eacute" unicode="&#xe9;" horiz-adv-x="394" 
d="M119 228v-18q0 -171 112 -171q68 0 117 61l23 -20q-28 -45 -68.5 -68.5t-90.5 -23.5q-41 0 -75 15t-58 42t-37.5 65t-13.5 84q0 47 14 86t38 67t56.5 43t69.5 15q72 0 115.5 -44t43.5 -119v-14h-246zM277 266v3q0 48 -20 73.5t-57 25.5q-32 0 -52.5 -25.5t-24.5 -76.5
h154zM162 459h-33l141 146q14 14 24.5 21.5t23.5 7.5q15 0 25 -9.5t10 -24.5q0 -21 -30 -41z" />
    <glyph glyph-name="ecircumflex" unicode="&#xea;" horiz-adv-x="394" 
d="M119 228v-18q0 -171 112 -171q68 0 117 61l23 -20q-28 -45 -68.5 -68.5t-90.5 -23.5q-41 0 -75 15t-58 42t-37.5 65t-13.5 84q0 47 14 86t38 67t56.5 43t69.5 15q72 0 115.5 -44t43.5 -119v-14h-246zM277 266v3q0 48 -20 73.5t-57 25.5q-32 0 -52.5 -25.5t-24.5 -76.5
h154zM244 630l113 -171h-28l-114 103l-114 -103h-28l113 171h58z" />
    <glyph glyph-name="edieresis" unicode="&#xeb;" horiz-adv-x="394" 
d="M119 228v-18q0 -171 112 -171q68 0 117 61l23 -20q-28 -45 -68.5 -68.5t-90.5 -23.5q-41 0 -75 15t-58 42t-37.5 65t-13.5 84q0 47 14 86t38 67t56.5 43t69.5 15q72 0 115.5 -44t43.5 -119v-14h-246zM277 266v3q0 48 -20 73.5t-57 25.5q-32 0 -52.5 -25.5t-24.5 -76.5
h154zM129 584q20 0 34.5 -14.5t14.5 -34.5q0 -21 -14 -35t-35 -14t-34.5 14t-13.5 35q0 20 14 34.5t34 14.5zM301 584q20 0 34 -14.5t14 -34.5q0 -21 -13.5 -35t-34.5 -14t-35 14t-14 35q0 20 14.5 34.5t34.5 14.5z" />
    <glyph glyph-name="igrave" unicode="&#xec;" horiz-adv-x="235" 
d="M161 103q0 -26 2 -40.5t12 -19.5t19 -8t9 -17v-18h-167v18q0 14 8.5 17t18.5 8t12.5 19.5t2.5 40.5v187q0 26 -2.5 40.5t-12.5 19.5q-11 5 -19 8.5t-8 17.5v18l125 2v-293zM204 459h-33l-161 100q-30 20 -30 41q0 15 10 24.5t25 9.5q13 0 23.5 -7.5t24.5 -21.5z" />
    <glyph glyph-name="iacute" unicode="&#xed;" horiz-adv-x="235" 
d="M161 103q0 -26 2 -40.5t12 -19.5t19 -8t9 -17v-18h-167v18q0 14 8.5 17t18.5 8t12.5 19.5t2.5 40.5v187q0 26 -2.5 40.5t-12.5 19.5q-11 5 -19 8.5t-8 17.5v18l125 2v-293zM65 459h-33l141 146q14 14 24.5 21.5t23.5 7.5q15 0 25 -9.5t10 -24.5q0 -21 -30 -41z" />
    <glyph glyph-name="icircumflex" unicode="&#xee;" horiz-adv-x="235" 
d="M161 103q0 -26 2 -40.5t12 -19.5t19 -8t9 -17v-18h-167v18q0 14 8.5 17t18.5 8t12.5 19.5t2.5 40.5v187q0 26 -2.5 40.5t-12.5 19.5q-11 5 -19 8.5t-8 17.5v18l125 2v-293zM147 630l113 -171h-28l-114 103l-114 -103h-28l113 171h58z" />
    <glyph glyph-name="idieresis" unicode="&#xef;" horiz-adv-x="235" 
d="M161 103q0 -26 2 -40.5t12 -19.5t19 -8t9 -17v-18h-167v18q0 14 8.5 17t18.5 8t12.5 19.5t2.5 40.5v187q0 26 -2.5 40.5t-12.5 19.5q-11 5 -19 8.5t-8 17.5v18l125 2v-293zM32 584q20 0 34.5 -14.5t14.5 -34.5q0 -21 -14 -35t-35 -14t-34.5 14t-13.5 35q0 20 14 34.5
t34 14.5zM204 584q20 0 34 -14.5t14 -34.5q0 -21 -13.5 -35t-34.5 -14t-35 14t-14 35q0 20 14.5 34.5t34.5 14.5z" />
    <glyph glyph-name="eth" unicode="&#xf0;" horiz-adv-x="444" 
d="M222 25q54 0 78 42.5t24 129.5t-24 129t-78 42t-78 -42t-24 -129t24 -129.5t78 -42.5zM288 389q-12 39 -28 77t-37 75l-104 -49l-15 31l102 48q-18 32 -45 64t-61 66l19 21q39 -27 73 -58.5t64 -66.5l103 45l15 -32l-95 -44q69 -89 103.5 -175t34.5 -182q0 -51 -14 -92
t-39.5 -69.5t-61.5 -44t-80 -15.5q-43 0 -79 15.5t-61.5 43.5t-39.5 66t-14 84q0 45 14.5 83.5t39.5 66t58.5 43t71.5 15.5q41 0 76 -16z" />
    <glyph glyph-name="ntilde" unicode="&#xf1;" horiz-adv-x="475" 
d="M161 103q0 -26 2 -40.5t12 -19.5t19 -8t9 -17v-18h-167v18q0 14 8.5 17t18.5 8t12.5 19.5t2.5 40.5v187q0 26 -2.5 40.5t-12.5 19.5q-11 5 -19 8.5t-8 17.5v18l123 2l2 -48q27 28 55.5 41.5t62.5 13.5q64 0 93.5 -38t29.5 -116v-146q0 -26 2 -40.5t12 -19.5t18.5 -8
t8.5 -17v-18h-166v18q0 14 8.5 17t18.5 8t12 19.5t2 40.5v188q0 63 -59 63q-41 0 -69.5 -28.5t-28.5 -74.5v-148zM378 604q-19 -99 -95 -99q-19 0 -36 4l-53 14q-12 3 -28 3q-17 0 -26.5 -10.5t-16.5 -33.5h-25q18 104 96 104q14 0 31 -5l54 -14q8 -2 15 -3t12 -1
q18 0 28.5 9t17.5 32h26z" />
    <glyph glyph-name="ograve" unicode="&#xf2;" horiz-adv-x="444" 
d="M222 405q43 0 79 -15t61.5 -42.5t40 -66t14.5 -84.5t-14.5 -84.5t-40 -66t-61.5 -43t-79 -15.5t-79 15.5t-61.5 43.5t-39.5 66t-14 84t14 84t39.5 65.5t61.5 43t79 15.5zM222 368q-54 0 -78 -42t-24 -129t24 -129.5t78 -42.5t78 42.5t24 129.5t-24 129t-78 42zM308 459
h-33l-161 100q-30 20 -30 41q0 15 10 24.5t25 9.5q13 0 23.5 -7.5t24.5 -21.5z" />
    <glyph glyph-name="oacute" unicode="&#xf3;" horiz-adv-x="444" 
d="M222 405q43 0 79 -15t61.5 -42.5t40 -66t14.5 -84.5t-14.5 -84.5t-40 -66t-61.5 -43t-79 -15.5t-79 15.5t-61.5 43.5t-39.5 66t-14 84t14 84t39.5 65.5t61.5 43t79 15.5zM222 368q-54 0 -78 -42t-24 -129t24 -129.5t78 -42.5t78 42.5t24 129.5t-24 129t-78 42zM169 459
h-33l141 146q14 14 24.5 21.5t23.5 7.5q15 0 25 -9.5t10 -24.5q0 -21 -30 -41z" />
    <glyph glyph-name="ocircumflex" unicode="&#xf4;" horiz-adv-x="444" 
d="M222 405q43 0 79 -15t61.5 -42.5t40 -66t14.5 -84.5t-14.5 -84.5t-40 -66t-61.5 -43t-79 -15.5t-79 15.5t-61.5 43.5t-39.5 66t-14 84t14 84t39.5 65.5t61.5 43t79 15.5zM222 368q-54 0 -78 -42t-24 -129t24 -129.5t78 -42.5t78 42.5t24 129.5t-24 129t-78 42zM251 630
l113 -171h-28l-114 103l-114 -103h-28l113 171h58z" />
    <glyph glyph-name="otilde" unicode="&#xf5;" horiz-adv-x="444" 
d="M222 405q43 0 79 -15t61.5 -42.5t40 -66t14.5 -84.5t-14.5 -84.5t-40 -66t-61.5 -43t-79 -15.5t-79 15.5t-61.5 43.5t-39.5 66t-14 84t14 84t39.5 65.5t61.5 43t79 15.5zM222 368q-54 0 -78 -42t-24 -129t24 -129.5t78 -42.5t78 42.5t24 129.5t-24 129t-78 42zM362 604
q-19 -99 -95 -99q-19 0 -36 4l-53 14q-12 3 -28 3q-17 0 -26.5 -10.5t-16.5 -33.5h-25q18 104 96 104q14 0 31 -5l54 -14q8 -2 15 -3t12 -1q18 0 28.5 9t17.5 32h26z" />
    <glyph glyph-name="odieresis" unicode="&#xf6;" horiz-adv-x="444" 
d="M222 405q43 0 79 -15t61.5 -42.5t40 -66t14.5 -84.5t-14.5 -84.5t-40 -66t-61.5 -43t-79 -15.5t-79 15.5t-61.5 43.5t-39.5 66t-14 84t14 84t39.5 65.5t61.5 43t79 15.5zM222 368q-54 0 -78 -42t-24 -129t24 -129.5t78 -42.5t78 42.5t24 129.5t-24 129t-78 42zM136 584
q20 0 34.5 -14.5t14.5 -34.5q0 -21 -14 -35t-35 -14t-34.5 14t-13.5 35q0 20 14 34.5t34 14.5zM308 584q20 0 34 -14.5t14 -34.5q0 -21 -13.5 -35t-34.5 -14t-35 14t-14 35q0 20 14.5 34.5t34.5 14.5z" />
    <glyph glyph-name="divide" unicode="&#xf7;" horiz-adv-x="833" 
d="M417 540q25 0 43 -18t18 -44q0 -25 -17.5 -43t-43.5 -18t-43.5 17.5t-17.5 43.5t18 44t43 18zM709 332v-68h-585v68h585zM417 179q25 0 43 -17.5t18 -43.5q0 -25 -17.5 -43t-43.5 -18t-43.5 17.5t-17.5 43.5t18 43.5t43 17.5z" />
    <glyph glyph-name="oslash" unicode="&#xf8;" horiz-adv-x="444" 
d="M290 337q-9 14 -27 22.5t-41 8.5q-102 0 -102 -167q0 -87 16 -119zM153 53q30 -28 69 -28q54 0 78 42.5t24 129.5q0 84 -14 108zM98 30q-70 69 -70 167q0 46 14 84t39.5 65.5t61.5 43t79 15.5q56 0 96 -24l35 56h39l-47 -75q34 -27 53 -69t19 -96q0 -46 -14.5 -84.5
t-40 -66t-61.5 -43t-79 -15.5q-52 0 -96 22l-39 -61h-39z" />
    <glyph glyph-name="ugrave" unicode="&#xf9;" horiz-adv-x="472" 
d="M314 290q0 26 -2.5 40.5t-12.5 19.5q-11 5 -19 8.5t-8 17.5v18l125 2v-294q0 -26 2 -40.5t12 -19.5t19 -8.5t9 -17.5v-16l-123 -9l-2 55q-52 -55 -119 -55q-64 0 -93 37.5t-29 115.5v146q0 26 -2.5 40.5t-12.5 19.5q-11 5 -19 8.5t-8 17.5v18l125 2v-293q0 -31 15.5 -47
t44.5 -16q41 0 69.5 29t28.5 74v147zM322 459h-33l-161 100q-30 20 -30 41q0 15 10 24.5t25 9.5q13 0 23.5 -7.5t24.5 -21.5z" />
    <glyph glyph-name="uacute" unicode="&#xfa;" horiz-adv-x="472" 
d="M314 290q0 26 -2.5 40.5t-12.5 19.5q-11 5 -19 8.5t-8 17.5v18l125 2v-294q0 -26 2 -40.5t12 -19.5t19 -8.5t9 -17.5v-16l-123 -9l-2 55q-52 -55 -119 -55q-64 0 -93 37.5t-29 115.5v146q0 26 -2.5 40.5t-12.5 19.5q-11 5 -19 8.5t-8 17.5v18l125 2v-293q0 -31 15.5 -47
t44.5 -16q41 0 69.5 29t28.5 74v147zM183 459h-33l141 146q14 14 24.5 21.5t23.5 7.5q15 0 25 -9.5t10 -24.5q0 -21 -30 -41z" />
    <glyph glyph-name="ucircumflex" unicode="&#xfb;" horiz-adv-x="472" 
d="M314 290q0 26 -2.5 40.5t-12.5 19.5q-11 5 -19 8.5t-8 17.5v18l125 2v-294q0 -26 2 -40.5t12 -19.5t19 -8.5t9 -17.5v-16l-123 -9l-2 55q-52 -55 -119 -55q-64 0 -93 37.5t-29 115.5v146q0 26 -2.5 40.5t-12.5 19.5q-11 5 -19 8.5t-8 17.5v18l125 2v-293q0 -31 15.5 -47
t44.5 -16q41 0 69.5 29t28.5 74v147zM265 630l113 -171h-28l-114 103l-114 -103h-28l113 171h58z" />
    <glyph glyph-name="udieresis" unicode="&#xfc;" horiz-adv-x="472" 
d="M314 290q0 26 -2.5 40.5t-12.5 19.5q-11 5 -19 8.5t-8 17.5v18l125 2v-294q0 -26 2 -40.5t12 -19.5t19 -8.5t9 -17.5v-16l-123 -9l-2 55q-52 -55 -119 -55q-64 0 -93 37.5t-29 115.5v146q0 26 -2.5 40.5t-12.5 19.5q-11 5 -19 8.5t-8 17.5v18l125 2v-293q0 -31 15.5 -47
t44.5 -16q41 0 69.5 29t28.5 74v147zM150 584q20 0 34.5 -14.5t14.5 -34.5q0 -21 -14 -35t-35 -14t-34.5 14t-13.5 35q0 20 14 34.5t34 14.5zM322 584q20 0 34 -14.5t14 -34.5q0 -21 -13.5 -35t-34.5 -14t-35 14t-14 35q0 20 14.5 34.5t34.5 14.5z" />
    <glyph glyph-name="yacute" unicode="&#xfd;" horiz-adv-x="405" 
d="M306 300q6 15 6 30q0 12 -6 16.5t-12.5 7.5t-12.5 7.5t-6 14.5v18h134v-18q0 -15 -7 -17q-20 -9 -30.5 -23.5t-21.5 -40.5l-135 -309q-32 -74 -71 -111t-81 -37q-32 0 -48.5 13.5t-16.5 36.5q0 19 10.5 30t27.5 11q12 0 19 -5.5t12 -12t11 -12t16 -5.5q18 0 39 28t47 84
l-120 290q-9 23 -16 36.5t-26 21.5q-8 3 -13 7t-5 15v18h176v-18q0 -10 -5.5 -14t-11.5 -8t-11.5 -9t-5.5 -17q0 -14 8 -31l77 -186zM150 459h-33l141 146q14 14 24.5 21.5t23.5 7.5q15 0 25 -9.5t10 -24.5q0 -21 -30 -41z" />
    <glyph glyph-name="thorn" unicode="&#xfe;" horiz-adv-x="487" 
d="M156 -59q0 -26 2.5 -40.5t13.5 -19.5t21 -8t10 -17v-18h-172v18q0 14 8 17t19 8q10 5 12.5 19.5t2.5 40.5v675q0 26 -2.5 41t-12.5 20q-11 5 -19 8t-8 17v18l125 2v-376q54 57 129 57q38 0 70 -14.5t55 -41t36 -64.5t13 -86t-13 -86t-36 -64.5t-55 -41t-70 -14.5
q-75 0 -129 57v-107zM156 106q20 -35 46 -53t55 -18q49 0 79.5 42t30.5 120t-31 119.5t-76 41.5q-63 0 -104 -71v-181z" />
    <glyph glyph-name="ydieresis" unicode="&#xff;" horiz-adv-x="405" 
d="M306 300q6 15 6 30q0 12 -6 16.5t-12.5 7.5t-12.5 7.5t-6 14.5v18h134v-18q0 -15 -7 -17q-20 -9 -30.5 -23.5t-21.5 -40.5l-135 -309q-32 -74 -71 -111t-81 -37q-32 0 -48.5 13.5t-16.5 36.5q0 19 10.5 30t27.5 11q12 0 19 -5.5t12 -12t11 -12t16 -5.5q18 0 39 28t47 84
l-120 290q-9 23 -16 36.5t-26 21.5q-8 3 -13 7t-5 15v18h176v-18q0 -10 -5.5 -14t-11.5 -8t-11.5 -9t-5.5 -17q0 -14 8 -31l77 -186zM117 584q20 0 34.5 -14.5t14.5 -34.5q0 -21 -14 -35t-35 -14t-34.5 14t-13.5 35q0 20 14 34.5t34 14.5zM289 584q20 0 34 -14.5t14 -34.5
q0 -21 -13.5 -35t-34.5 -14t-35 14t-14 35q0 20 14.5 34.5t34.5 14.5z" />
    <glyph glyph-name="dotlessi" unicode="&#x131;" horiz-adv-x="235" 
d="M161 103q0 -26 2 -40.5t12 -19.5t19 -8t9 -17v-18h-167v18q0 14 8.5 17t18.5 8t12.5 19.5t2.5 40.5v187q0 26 -2.5 40.5t-12.5 19.5q-11 5 -19 8.5t-8 17.5v18l125 2v-293z" />
    <glyph glyph-name="Lslash" unicode="&#x141;" horiz-adv-x="674" 
d="M0 228v51l113 71v256q0 18 -2 30t-7 19.5t-13 12.5t-19 10q-8 4 -12.5 8t-4.5 15v21h212v-21q0 -11 -4.5 -15t-12.5 -8q-11 -5 -19 -10t-13 -12.5t-7.5 -19.5t-2.5 -30v-207l145 90v-52l-145 -90v-303h223q60 0 97 15.5t54 52.5q11 23 13.5 39t14.5 16h28v-167h-583v22
q0 11 4.5 14.5t12.5 7.5q11 5 19 10t13 13t7 19.5t2 30.5v181z" />
    <glyph glyph-name="lslash" unicode="&#x142;" horiz-adv-x="238" 
d="M238 463v-42l-77 -52v-266q0 -26 2 -40.5t12 -19.5t19 -8t9 -17v-18h-167v18q0 14 8.5 17t18.5 8t12.5 19.5t2.5 40.5v222l-78 -52v42l78 53v248q0 26 -2.5 41t-12.5 20q-11 5 -19 8t-8 17v18l125 2v-310z" />
    <glyph glyph-name="OE" unicode="&#x152;" horiz-adv-x="1076" 
d="M907 722q34 0 80 9v-135h-19q-9 0 -13.5 2.5t-7 6.5t-4.5 10.5t-7 13.5q-19 32 -49.5 40.5t-84.5 8.5h-173v-286h102q31 0 49.5 3t29.5 17q6 8 8.5 18t15.5 10h22v-159h-21q-15 0 -16 9t-8 22q-12 21 -30 28.5t-52 7.5h-100v-304h205q60 0 96.5 15.5t53.5 52.5
q11 23 13.5 39t14.5 16h28v-167h-515h-41q-82 0 -151 6.5t-129 39.5q-39 21 -71.5 54t-55 74t-35 88.5t-12.5 98.5q0 103 47.5 185t132.5 130q56 32 119 39t138 7h92h348zM534 582q0 28 -4 47t-16.5 30.5t-35.5 16.5t-61 5q-137 0 -208 -82t-71 -238q0 -153 70.5 -236
t195.5 -83q41 0 69 9.5t42 23.5q13 14 16 28t3 30v23v426z" />
    <glyph glyph-name="oe" unicode="&#x153;" horiz-adv-x="671" 
d="M215 25q51 0 73 42.5t22 129.5t-22 129t-73 42q-50 0 -72.5 -42t-22.5 -129t22 -129.5t73 -42.5zM397 228v-18q0 -171 112 -171q68 0 117 61l22 -20q-57 -92 -158 -92q-46 0 -82 17t-59 48q-21 -31 -56.5 -48t-80.5 -17q-41 0 -75 15.5t-58 43t-37.5 66t-13.5 84.5
t13.5 84.5t37.5 66t58 42.5t75 15q52 0 87 -20t53 -46q51 66 132 66q73 0 116 -44t43 -119v-14h-246zM555 266v3q0 48 -20 73.5t-57 25.5q-32 0 -52.5 -25.5t-24.5 -76.5h154z" />
    <glyph glyph-name="Scaron" unicode="&#x160;" horiz-adv-x="590" 
d="M62 201h2q9 0 11.5 -9t9.5 -24q35 -71 87 -104.5t129 -33.5q79 0 125 41.5t46 109.5q0 48 -29 85q-27 35 -77 52.5t-119 39.5q-86 29 -128 69t-42 112q0 41 15 76.5t42 61.5t63.5 41.5t79.5 15.5q39 0 68 -7.5t49.5 -17t33 -17t19.5 -7.5q6 0 10 2.5t7 2.5h15v-163
l-12 -2q-3 -1 -7 -1q-12 0 -13 14.5t-13 42.5q-24 57 -61 84t-94 27t-90.5 -31t-33.5 -82q0 -32 13.5 -52.5t39 -35.5t63.5 -27t87 -28q96 -31 141.5 -80t45.5 -135q0 -53 -16.5 -96t-47 -73.5t-73.5 -47t-97 -16.5q-39 0 -70.5 4t-55 9.5t-39.5 9.5t-25 4q-11 0 -19.5 -4
t-14.5 -9t-11.5 -9t-10.5 -4h-2l-17 4v206zM181 959l114 -103l114 103h28l-113 -171h-58l-113 171h28z" />
    <glyph glyph-name="scaron" unicode="&#x161;" horiz-adv-x="333" 
d="M301 120q0 -60 -39 -96t-105 -36q-59 0 -93.5 24.5t-34.5 60.5q0 21 11 34t27 13q20 0 32 -11t12 -29q0 -7 -1.5 -14t-1.5 -13q0 -30 58 -30q36 0 56.5 18.5t20.5 45.5q0 17 -6 28t-18.5 20t-30.5 17t-42 19q-27 12 -48 23.5t-35 25t-21.5 30t-7.5 38.5q0 52 35.5 84.5
t96.5 32.5q50 0 78.5 -20t28.5 -50q0 -37 -40 -37q-15 0 -24.5 8.5t-9.5 23.5q0 11 3.5 16.5t3.5 7.5q0 18 -43 18q-29 0 -46 -14t-17 -38q0 -16 6.5 -26t19 -17.5t31 -14.5t41.5 -18q52 -23 77.5 -49.5t25.5 -74.5zM53 630l114 -103l114 103h28l-113 -171h-58l-113 171h28z
" />
    <glyph glyph-name="Ydieresis" unicode="&#x178;" horiz-adv-x="700" 
d="M116 580q-17 23 -31 40.5t-27 29.5q-12 11 -25.5 17t-26.5 11q-8 4 -12.5 8.5t-4.5 14.5v21h232v-19q0 -9 -5 -13.5t-11.5 -7.5t-11.5 -7.5t-5 -14.5t7 -21t19 -26l169 -221l168 211q16 20 24 32.5t8 22.5q0 12 -7.5 16t-22.5 9q-7 2 -8 6.5t-1 12.5v20h177v-15
q0 -9 -2 -14t-6 -8.5t-11 -7t-18 -9.5q-16 -8 -36 -26.5t-43 -46.5l-209 -258v-220q0 -19 3 -31t9.5 -19.5t16.5 -12.5t24 -10q10 -4 16 -8t6 -14v-22h-245v22q0 10 5.5 14t15.5 8q14 5 24 10t17 12.5t10 19.5t3 31v220zM264 913q20 0 34.5 -14.5t14.5 -34.5q0 -21 -14 -35
t-35 -14t-34.5 14t-13.5 35q0 20 14 34.5t34 14.5zM436 913q20 0 34 -14.5t14 -34.5q0 -21 -13.5 -35t-34.5 -14t-35 14t-14 35q0 20 14.5 34.5t34.5 14.5z" />
    <glyph glyph-name="Zcaron" unicode="&#x17d;" horiz-adv-x="748" 
d="M573 51q40 0 65 11t45 37q5 6 7.5 12t13.5 6h18v-117h-696l-14 23l533 648h-299q-41 0 -66 -6.5t-42 -27.5q-8 -11 -10.5 -20.5t-13.5 -9.5h-21v124q47 -9 80 -9h499l9 -24l-528 -647h420zM260 959l114 -103l114 103h28l-113 -171h-58l-113 171h28z" />
    <glyph glyph-name="zcaron" unicode="&#x17e;" horiz-adv-x="396" 
d="M358 379l-228 -342h154q21 0 34.5 7.5t22.5 16.5t15 16.5t11 7.5q8 0 10.5 -4.5t2.5 -13.5v-67h-354l-7 14l229 342h-126q-17 0 -27.5 -6.5t-18 -14t-12.5 -14t-11 -6.5q-8 0 -10.5 5.5t-2.5 17.5v56h310zM84 630l114 -103l114 103h28l-113 -171h-58l-113 171h28z" />
    <glyph glyph-name="florin" unicode="&#x192;" horiz-adv-x="505" 
d="M263 149q-26 -159 -69 -237.5t-117 -78.5q-35 0 -54 14.5t-19 37.5q0 19 10.5 30t28.5 11q21 0 33 -20q6 -10 10 -19.5t16 -9.5q22 0 35.5 43.5t26.5 132.5l47 317h-78l6 41h79q26 159 74.5 237.5t123.5 78.5q32 0 51 -14.5t19 -37.5q0 -18 -11 -28.5t-29 -10.5
q-14 0 -22.5 7.5t-14.5 16t-11.5 16t-14.5 7.5q-18 0 -32.5 -42.5t-28.5 -127.5l-16 -102h81l-6 -41h-83z" />
    <glyph glyph-name="circumflex" unicode="&#x2c6;" 
d="M279 630l113 -171h-28l-114 103l-114 -103h-28l113 171h58z" />
    <glyph glyph-name="caron" unicode="&#x2c7;" 
d="M136 630l114 -103l114 103h28l-113 -171h-58l-113 171h28z" />
    <glyph glyph-name="breve" unicode="&#x2d8;" 
d="M132 611q8 -37 36.5 -53t81.5 -16t81 16t36 53h25q-20 -133 -142 -133q-60 0 -96.5 33.5t-46.5 99.5h25z" />
    <glyph glyph-name="dotaccent" unicode="&#x2d9;" 
d="M250 587q21 0 36 -15.5t15 -36.5t-14.5 -36t-36.5 -15q-21 0 -36 14.5t-15 36.5q0 21 15.5 36.5t35.5 15.5z" />
    <glyph glyph-name="ring" unicode="&#x2da;" 
d="M250 685q25 0 46.5 -9t37.5 -24.5t25 -37t9 -46.5t-9 -46.5t-25 -37.5t-37.5 -25t-46.5 -9t-46 9t-37 25t-25 37.5t-9 46.5t9 46.5t25 37t37 24.5t46 9zM250 641q-30 0 -51 -21.5t-21 -52.5q0 -30 21 -51t51 -21q31 0 52.5 21t21.5 51q0 31 -21.5 52.5t-52.5 21.5z" />
    <glyph glyph-name="ogonek" unicode="&#x2db;" 
d="M305 15q-89 -69 -89 -130q0 -27 14 -42.5t36 -15.5q39 0 58 36l14 -9q-18 -36 -44.5 -54.5t-58.5 -18.5q-35 0 -56.5 20t-21.5 50q0 44 31 84t93 80h24z" />
    <glyph glyph-name="tilde" unicode="&#x2dc;" 
d="M390 604q-19 -99 -95 -99q-19 0 -36 4l-53 14q-12 3 -28 3q-17 0 -26.5 -10.5t-16.5 -33.5h-25q18 104 96 104q14 0 31 -5l54 -14q8 -2 15 -3t12 -1q18 0 28.5 9t17.5 32h26z" />
    <glyph glyph-name="hungarumlaut" unicode="&#x2dd;" 
d="M184 459h-28l70 137q11 20 21 29.5t24 9.5t23.5 -9.5t9.5 -23.5q0 -15 -20 -37zM303 459h-29l88 141q22 35 50 35q12 0 20.5 -8.5t8.5 -20.5q0 -22 -22 -42z" />
    <glyph glyph-name="endash" unicode="&#x2013;" 
d="M0 227h500v-49h-500v49z" />
    <glyph glyph-name="emdash" unicode="&#x2014;" horiz-adv-x="1000" 
d="M0 227h1000v-49h-1000v49z" />
    <glyph glyph-name="quoteleft" unicode="&#x2018;" horiz-adv-x="252" 
d="M108 597q14 6 27 6q25 0 40.5 -15t15.5 -38q0 -27 -16 -43.5t-41 -16.5q-35 0 -55.5 23t-20.5 62q0 42 24 80.5t74 78.5l26 -27q-33 -28 -51.5 -54.5t-22.5 -55.5z" />
    <glyph glyph-name="quoteright" unicode="&#x2019;" horiz-adv-x="252" 
d="M149 627q-15 -6 -27 -6q-24 0 -40 15t-16 38q0 27 16 43.5t41 16.5q35 0 55.5 -23t20.5 -65q0 -76 -99 -156l-25 27q33 28 51.5 54t22.5 56z" />
    <glyph glyph-name="quotesinglbase" unicode="&#x201a;" horiz-adv-x="252" 
d="M142 7q-15 -6 -27 -6q-24 0 -40 15t-16 38q0 27 16 43.5t41 16.5q35 0 55.5 -23t20.5 -65q0 -77 -99 -156l-25 27q33 28 51.5 54t22.5 56z" />
    <glyph glyph-name="quotedblleft" unicode="&#x201c;" horiz-adv-x="444" 
d="M300 597q14 6 27 6q25 0 40.5 -15t15.5 -38q0 -27 -16 -43.5t-41 -16.5q-35 0 -55.5 23t-20.5 62q0 42 24.5 80.5t74.5 78.5l25 -27q-33 -28 -51.5 -54.5t-22.5 -55.5zM108 597q14 6 27 6q25 0 40.5 -15t15.5 -38q0 -27 -16 -43.5t-41 -16.5q-35 0 -55.5 23t-20.5 62
q0 42 24 80.5t74 78.5l26 -27q-33 -28 -51.5 -54.5t-22.5 -55.5z" />
    <glyph glyph-name="quotedblright" unicode="&#x201d;" horiz-adv-x="444" 
d="M149 627q-15 -6 -27 -6q-24 0 -40 15t-16 38q0 27 16 43.5t41 16.5q35 0 55.5 -23t20.5 -65q0 -76 -99 -156l-25 27q33 28 51.5 54t22.5 56zM341 627q-15 -6 -27 -6q-24 0 -40 15t-16 38q0 27 16 43.5t41 16.5q35 0 55.5 -23t20.5 -65q0 -43 -27 -81.5t-72 -74.5l-25 27
q33 28 51.5 54t22.5 56z" />
    <glyph glyph-name="quotedblbase" unicode="&#x201e;" horiz-adv-x="444" 
d="M334 7q-15 -6 -27 -6q-24 0 -40 15t-16 38q0 27 16 43.5t41 16.5q35 0 55.5 -23t20.5 -65q0 -77 -99 -156l-25 27q33 28 51.5 54t22.5 56zM141 7q-15 -6 -27 -6q-24 0 -40 15t-16 38q0 27 16 43.5t41 16.5q35 0 55.5 -23t20.5 -65q0 -77 -98 -156l-26 27q33 28 51.5 54
t22.5 56z" />
    <glyph glyph-name="dagger" unicode="&#x2020;" 
d="M238 -115q0 111 -11 215.5t-36 207.5q46 71 48 179q-25 -1 -45 -7.5t-37 -14t-31.5 -13.5t-29.5 -6q-23 0 -37.5 13t-14.5 35q0 25 14.5 39t40.5 14q14 0 28.5 -6t31 -13.5t36.5 -13.5t44 -6v11q0 32 -6.5 57.5t-14.5 45.5t-14.5 35t-6.5 25q0 23 14.5 37.5t39.5 14.5
q23 0 37.5 -14.5t14.5 -37.5q0 -10 -6.5 -24.5t-14.5 -34t-14.5 -44.5t-6.5 -57v-14q24 0 44 6t36.5 13.5t31.5 13.5t28 6q26 0 40.5 -14t14.5 -37q0 -24 -14 -37t-40 -13q-13 0 -27.5 6t-31.5 13.5t-37 14t-45 7.5q0 -105 48 -179q-46 -165 -46 -423h-25z" />
    <glyph glyph-name="daggerdbl" unicode="&#x2021;" 
d="M191 307q45 72 45 161v16h-6q-19 0 -36.5 -6t-34 -13t-32 -13t-31.5 -6q-23 0 -37.5 13t-14.5 35q0 25 14.5 39t40.5 14q12 0 26 -5.5t30.5 -12.5t36.5 -13t45 -7v10q0 35 -6 61.5t-13.5 46t-14 33t-6.5 22.5q0 23 14.5 37.5t39.5 14.5q23 0 37.5 -14.5t14.5 -37.5
q0 -9 -6 -22.5t-13.5 -32.5t-14 -44t-6.5 -57q0 -4 0.5 -8t0.5 -9q24 1 43.5 7t36 13t31 12.5t26.5 5.5q26 0 40.5 -14t14.5 -37q0 -24 -14 -37t-38 -13q-14 0 -29 5.5t-32 12.5t-37 13.5t-44 7.5q3 -113 47 -179q-46 -72 -46 -157v-7t1 -11h6q20 0 37 6t33.5 12.5t32 12.5
t31.5 6q23 0 37.5 -13t14.5 -37q0 -23 -14.5 -36.5t-40.5 -13.5q-12 0 -26 5.5t-30.5 12.5t-36.5 12.5t-45 6.5v-10q0 -34 6.5 -61t14 -46.5t13.5 -33t6 -22.5q0 -23 -14.5 -37t-39.5 -14q-24 0 -38 14t-14 37q0 9 6.5 22.5t14 32.5t13.5 44t6 57q0 4 -0.5 8t-0.5 9
q-24 -1 -43.5 -7t-36.5 -12.5t-31.5 -12t-27.5 -5.5q-24 0 -38.5 14t-14.5 38q0 23 14.5 35.5t37.5 12.5q14 0 29 -5.5t32 -12.5t37 -13.5t44 -7.5q-3 113 -47 178z" />
    <glyph glyph-name="bullet" unicode="&#x2022;" horiz-adv-x="590" 
d="M150 372q0 30 11.5 56.5t31 46t46 30.5t56.5 11t56 -11t45.5 -30.5t31 -46t11.5 -56.5t-11.5 -56t-31 -46t-46 -31.5t-56.5 -11.5t-56 11.5t-45.5 31t-31 46t-11.5 56.5z" />
    <glyph glyph-name="ellipsis" unicode="&#x2026;" horiz-adv-x="1000" 
d="M107 54q0 24 17.5 42t42.5 18t42.5 -17.5t17.5 -42.5t-18 -42.5t-42 -17.5q-23 0 -41.5 18t-18.5 42zM440 54q0 24 17.5 42t42.5 18t42.5 -17.5t17.5 -42.5t-18 -42.5t-42 -17.5q-23 0 -41.5 18t-18.5 42zM774 54q0 24 17.5 42t42.5 18t42.5 -17.5t17.5 -42.5t-18 -42.5
t-42 -17.5q-23 0 -41.5 18t-18.5 42z" />
    <glyph glyph-name="perthousand" unicode="&#x2030;" horiz-adv-x="1127" 
d="M27 485q0 46 13 85t34.5 67.5t49 45t56.5 16.5q32 0 59.5 -14t48.5 -39.5t33 -61t12 -78.5q0 -46 -13 -85.5t-35 -68t-49 -44.5t-56 -16q-31 0 -59 14t-49 39.5t-33 61t-12 78.5zM180 664q-38 0 -54 -45.5t-16 -138.5q0 -79 13.5 -116.5t56.5 -37.5q71 0 71 169
q0 87 -13 128t-58 41zM437 192q0 46 13 85t35 67.5t49.5 45t56.5 16.5q32 0 59.5 -14t48.5 -39.5t33 -61t12 -78.5q0 -46 -13 -85.5t-35 -68t-49 -44.5t-56 -16q-31 0 -59 14t-49 39.5t-33.5 61t-12.5 78.5zM591 372q-38 0 -54.5 -46t-16.5 -139q0 -79 14 -116t57 -37
q70 0 70 169q0 86 -12.5 127.5t-57.5 41.5zM559 711h53l-400 -723h-53zM794 192q0 46 13 85t35 67.5t49.5 45t56.5 16.5q32 0 59.5 -14t48.5 -39.5t33 -61t12 -78.5q0 -46 -13 -85.5t-35 -68t-49 -44.5t-56 -16q-31 0 -59 14t-49 39.5t-33.5 61t-12.5 78.5zM947 372
q-38 0 -54 -46t-16 -139q0 -79 13.5 -116t56.5 -37q71 0 71 169q0 87 -13 128t-58 41z" />
    <glyph glyph-name="guilsinglleft" unicode="&#x2039;" horiz-adv-x="248" 
d="M28 197q46 36 78 66.5t53.5 53t33.5 35t18 12.5q9 0 9 -9q0 -34 -95 -158q95 -124 95 -158q0 -9 -9 -9q-6 0 -18 13t-33.5 35.5t-53.5 53t-78 65.5z" />
    <glyph glyph-name="guilsinglright" unicode="&#x203a;" horiz-adv-x="248" 
d="M220 197q-46 -36 -78.5 -66.5t-54 -53t-33.5 -35t-18 -12.5q-9 0 -9 11q0 33 95 156q-95 123 -95 156q0 11 9 11q6 0 18 -13t33.5 -35.5t54 -53t78.5 -65.5z" />
    <glyph glyph-name="fraction" unicode="&#x2044;" horiz-adv-x="167" 
d="M279 711h54l-445 -723h-55z" />
    <glyph glyph-name="trademark" unicode="&#x2122;" horiz-adv-x="822" 
d="M339 704l5 -89h-13q-7 74 -66 74h-8v-207q0 -24 20 -26l16 -1v-14h-124v14l15 1q21 2 21 26v207h-8q-32 0 -47.5 -17.5t-19.5 -56.5h-13l5 89h217zM474 704l67 -191l70 191h88v-12l-14 -1q-21 -1 -21 -26v-183q0 -24 21 -26l14 -1v-14h-117v14l15 1q21 2 21 26v189
l-84 -231h-10l-84 232v-190q0 -24 21 -26l16 -1v-14h-96v14l16 1q21 2 21 26v181q0 24 -21 26l-16 2v13h93z" />
    <glyph glyph-name="minus" unicode="&#x2212;" horiz-adv-x="833" 
d="M709 333v-69h-585v69h585z" />
    <glyph glyph-name="fi" unicode="&#xfb01;" horiz-adv-x="465" 
d="M161 103q0 -26 3 -40.5t15 -19.5t22.5 -8t10.5 -17v-18h-176v18q0 14 8.5 17t18.5 8t12.5 19.5t2.5 40.5v253h-55v20q0 8 5 11.5t16 5.5q15 3 22.5 11t9.5 25q5 47 6.5 81.5t9.5 55.5q26 77 74 116.5t107 39.5q42 0 67 -19t25 -45q0 -20 -11 -31t-29 -11q-11 0 -19.5 6
t-12.5 14q-10 23 -17 34.5t-30 11.5q-85 0 -85 -188v-100h230v-291q0 -26 2.5 -40.5t12.5 -19.5t18.5 -8t8.5 -17v-18h-167v18q0 14 8.5 17t18.5 8t12.5 19.5t2.5 40.5v187q0 23 -1.5 36t-8 20t-19 8.5t-33.5 1.5h-85v-253z" />
    <glyph glyph-name="fl" unicode="&#xfb02;" horiz-adv-x="464" 
d="M161 103q0 -26 3 -40.5t15 -19.5t22.5 -8t10.5 -17v-18h-176v18q0 14 8.5 17t18.5 8t12.5 19.5t2.5 40.5v253h-55v20q0 12 9 13.5t19 4.5q16 5 20.5 17.5t6.5 34.5q5 74 19 126t41.5 85.5t69 49t101.5 15.5h82v-619q0 -26 2.5 -40.5t12.5 -19.5t18.5 -8t8.5 -17v-18h-167
v18q0 14 8.5 17t18.5 8t12.5 19.5t2.5 40.5v253h-147v-253zM308 394v253q-9 -3 -16 -3q-9 0 -15 5.5t-12 12.5t-12.5 12.5t-16.5 5.5q-36 0 -55.5 -51t-19.5 -153v-82h147z" />
  </font>
</defs>
</svg>
