<?xml version="1.0" standalone="no"?>
<!DOCTYPE svg PUBLIC "-//W3C//DTD SVG 1.1//EN" "http://www.w3.org/Graphics/SVG/1.1/DTD/svg11.dtd" >
<svg xmlns="http://www.w3.org/2000/svg" xmlns:xlink="http://www.w3.org/1999/xlink" version="1.1">
<metadata>
Created by FontForge 20161116 at Sat Sep  2 10:33:22 2017
 By Jimmy Wärting
Copyright 1990 as an unpublished work by Bitstream Inc.  All rights reserved.  Confidential.
</metadata>
<defs>
<font id="CheltenhamBT-BoldHeadline" horiz-adv-x="500" >
  <font-face 
    font-family="Cheltenhm BdHd BT"
    font-weight="700"
    font-stretch="normal"
    units-per-em="1000"
    panose-1="0 0 0 0 0 0 0 0 0 0"
    ascent="800"
    descent="-200"
    x-height="424"
    cap-height="741"
    bbox="-167 -236 1177 963"
    underline-thickness="76"
    underline-position="-96"
    unicode-range="U+000D-FB02"
  />
<missing-glyph horiz-adv-x="275" 
 />
    <glyph glyph-name=".notdef" horiz-adv-x="275" 
 />
    <glyph glyph-name=".null" horiz-adv-x="0" 
 />
    <glyph glyph-name=".null" horiz-adv-x="0" 
 />
    <glyph glyph-name="nonmarkingreturn" unicode="&#xd;" horiz-adv-x="250" 
 />
    <glyph glyph-name="space" unicode=" " horiz-adv-x="275" 
 />
    <glyph glyph-name="exclam" unicode="!" horiz-adv-x="299" 
d="M66 72q0 35 24 59t59 24t59.5 -24t24.5 -59t-24.5 -59.5t-59.5 -24.5t-59 24.5t-24 59.5zM126 234q-6 91 -15.5 162.5t-18 124t-14.5 87t-6 51.5q0 96 77 96t77 -96q0 -17 -6 -51.5t-14 -87t-17.5 -124t-15.5 -162.5h-47z" />
    <glyph glyph-name="quotedbl" unicode="&#x22;" horiz-adv-x="345" 
d="M79 416l-39 225q-1 5 -1 9v9q0 26 13.5 41t36.5 15t36.5 -14t13.5 -40v-10t-1 -10l-39 -225h-20zM245 416l-39 225q-1 5 -1.5 9.5t-0.5 8.5q0 26 14 41t37 15t37 -14t14 -40q0 -5 -0.5 -10t-1.5 -10l-39 -225h-20z" />
    <glyph glyph-name="numbersign" unicode="#" horiz-adv-x="769" 
d="M452 715l-72 -203h124l73 203h104l-72 -203h138l-36 -96h-136l-43 -122h143l-35 -96h-142l-72 -203h-105l72 203h-124l-73 -203h-105l72 203h-141l36 96h140l43 122h-148l36 96h146l72 203h105zM300 294h129l43 122h-128z" />
    <glyph glyph-name="dollar" unicode="$" horiz-adv-x="551" 
d="M234 -6q-94 3 -145 47t-51 111q0 35 19 55.5t50 20.5q32 0 50.5 -19t18.5 -51q0 -43 -34 -64q19 -17 41 -24t51 -8v245q-85 41 -125.5 89.5t-40.5 117.5q0 70 44 119.5t122 60.5v73h75v-73q38 -2 69 -14t53 -30.5t33.5 -42t11.5 -49.5q0 -31 -17.5 -49t-46.5 -18
t-46.5 17.5t-17.5 46.5t21 50q-11 11 -25.5 15.5t-34.5 6.5v-205q50 -24 86.5 -48t60 -51.5t35 -60t11.5 -73.5q0 -40 -13.5 -74t-38.5 -60t-61 -42t-80 -19v-132h-75v132zM234 628q-40 -11 -58 -29.5t-18 -52.5q0 -59 76 -93v175zM310 64q45 8 70 35.5t25 66.5
q0 38 -23.5 63t-71.5 51v-216z" />
    <glyph glyph-name="percent" unicode="%" horiz-adv-x="825" 
d="M28 487q0 47 12 86t34 66.5t52 42.5t67 15q36 0 66.5 -15t52 -42.5t33.5 -66t12 -86.5t-12 -86.5t-33.5 -66t-52 -42.5t-66.5 -15q-37 0 -67 15t-52 42.5t-34 66.5t-12 86zM192 641q-33 0 -47.5 -34.5t-14.5 -108.5q0 -87 12.5 -126t50.5 -39q35 0 48.5 37t13.5 117
q0 81 -13.5 117.5t-49.5 36.5zM643 697l-392 -709h-69l392 709h69zM468 198q0 47 12 86t34 66.5t52 42.5t67 15q36 0 66.5 -15t52 -42.5t33.5 -66t12 -86.5t-12 -86.5t-33.5 -66t-52 -42.5t-66.5 -15q-37 0 -67 15t-52 42.5t-34 66.5t-12 86zM632 352q-33 0 -47.5 -34.5
t-14.5 -108.5q0 -87 12.5 -126t50.5 -39q35 0 48.5 37t13.5 117q0 81 -13.5 117.5t-49.5 36.5z" />
    <glyph glyph-name="ampersand" unicode="&#x26;" horiz-adv-x="817" 
d="M462 59q-84 -71 -197 -71q-54 0 -98.5 15.5t-77 43t-50 66t-17.5 84.5q0 43 12 76.5t37 61.5t64.5 53t94.5 51q-17 42 -25 77.5t-8 63.5q0 37 14.5 69t41 55t63 36.5t80.5 13.5q78 0 123.5 -40.5t45.5 -103.5q0 -31 -10.5 -55t-32.5 -45t-55.5 -41t-78.5 -41
q26 -63 57 -119t68 -107q31 31 46 57t15 44q0 17 -6.5 23.5t-19.5 11.5l-17 7q-12 5 -17.5 12t-5.5 21v34h261v-39q0 -12 -7.5 -17t-20 -9.5t-28 -11.5t-30.5 -22q-23 -23 -49 -68t-73 -102q29 -33 58.5 -48.5t67.5 -15.5q21 0 41.5 5t41.5 14l22 -38q3 -6 3 -13
q0 -23 -43.5 -41t-116.5 -18q-52 0 -92.5 16.5t-80.5 54.5zM407 116q-49 61 -83.5 125t-64.5 128q-50 -26 -72.5 -54t-22.5 -72q0 -32 11 -60t31.5 -49t48.5 -33t61 -12q24 0 46 6.5t45 20.5zM359 500q52 23 76.5 47.5t24.5 60.5q0 30 -18 49.5t-47 19.5q-30 0 -47.5 -19
t-17.5 -51q0 -38 29 -107z" />
    <glyph glyph-name="quotesingle" unicode="'" horiz-adv-x="178" 
d="M79 416l-39 225q-1 5 -1.5 9.5t-0.5 8.5q0 26 14 41t37 15t36.5 -14t13.5 -40v-10t-1 -10l-39 -225h-20z" />
    <glyph glyph-name="parenleft" unicode="(" horiz-adv-x="361" 
d="M267 -155q-109 115 -165 220.5t-56 218.5t56 219t165 221l30 31l20 -17l-11 -15q-34 -49 -55.5 -99t-32.5 -104t-15 -112.5t-4 -123.5t4 -123.5t15 -112t32.5 -103.5t55.5 -99l11 -15l-20 -17z" />
    <glyph glyph-name="parenright" unicode=")" horiz-adv-x="361" 
d="M94 724q109 -115 165.5 -221t56.5 -219t-56.5 -218.5t-165.5 -220.5l-30 -31l-20 17l11 15q35 49 56 99t32 103.5t15 112t4 123.5t-4 123.5t-15 112.5t-32 104t-56 99l-11 15l20 17z" />
    <glyph glyph-name="asterisk" unicode="*" 
d="M265 510v-12q0 -25 5.5 -43t12.5 -32.5t12.5 -27t5.5 -26.5q0 -22 -14 -36t-37 -14t-37 14t-14 36q0 14 5.5 26.5t12.5 27t12.5 32.5t5.5 43v12q-22 -13 -37 -25t-29 -34q-13 -20 -26 -35.5t-39 -15.5q-19 0 -34.5 17t-15.5 38t16 35t40 16q21 2 47.5 4.5t62.5 25.5
q-20 12 -36 18t-29.5 8.5t-24.5 2.5h-20q-23 2 -39.5 16.5t-16.5 35.5t15 37.5t35 16.5q21 0 33.5 -12t24.5 -29t28 -36t45 -33v12q0 25 -6 43t-12.5 32.5t-12.5 27.5t-6 26q0 22 14.5 36t37.5 14t37 -14t14 -36q0 -13 -5.5 -26t-12.5 -27.5t-12.5 -32.5t-5.5 -43v-12
q22 13 37 25t29 34q13 20 26 35.5t39 15.5q19 0 34 -17t15 -38t-16 -35t-40 -16q-21 -2 -47.5 -4.5t-62.5 -25.5q20 -12 36.5 -18t30 -8.5t24.5 -2.5h20q23 -2 39 -16.5t16 -35.5t-14.5 -37.5t-34.5 -16.5q-21 0 -33.5 12t-24.5 29t-28 36t-45 33z" />
    <glyph glyph-name="plus" unicode="+" horiz-adv-x="833" 
d="M466 596v-249h243v-97h-243v-250h-99v250h-243v97h243v249h99z" />
    <glyph glyph-name="comma" unicode="," horiz-adv-x="252" 
d="M112 -9q-34 3 -52.5 24.5t-18.5 55.5q0 35 23.5 59t59.5 24q35 0 58.5 -25.5t23.5 -70.5q0 -68 -36.5 -124.5t-108.5 -98.5l-26 42q70 54 77 114z" />
    <glyph glyph-name="hyphen" unicode="-" horiz-adv-x="333" 
d="M44 267h246v-111h-246v111z" />
    <glyph glyph-name="period" unicode="." horiz-adv-x="252" 
d="M43 65q0 35 24 59t59 24t59 -24t24 -59t-24 -59.5t-59 -24.5t-59 24.5t-24 59.5z" />
    <glyph glyph-name="slash" unicode="/" horiz-adv-x="343" 
d="M266 752h71l-283 -845h-70z" />
    <glyph glyph-name="zero" unicode="0" horiz-adv-x="551" 
d="M32 333q0 86 18.5 154t51.5 114.5t77 71t95 24.5q52 0 96.5 -25t77.5 -71t51.5 -112t18.5 -147q0 -83 -19 -148.5t-52 -111.5t-77 -70t-94 -24q-51 0 -95.5 24.5t-77.5 70t-52 109t-19 141.5zM169 358q0 -74 4.5 -129.5t16 -93t32.5 -56.5t54 -19q32 0 52.5 18.5
t32.5 55.5t16.5 92t4.5 128q0 138 -23 205t-84 67q-62 0 -84 -65.5t-22 -202.5z" />
    <glyph glyph-name="one" unicode="1" horiz-adv-x="551" 
d="M150 41q0 9 7 17.5t18 12.5l19 5q16 5 21 12t5 24v463h-105v35q0 27 29 39l117 48h87v-585q0 -17 5.5 -24t21.5 -12l18 -5q11 -4 18 -12.5t7 -17.5v-41h-268v41z" />
    <glyph glyph-name="two" unicode="2" horiz-adv-x="551" 
d="M23 55q0 14 2 24t8 20.5t16 22.5t26 28l96 100q40 41 71.5 76.5t53.5 67.5t33.5 62t11.5 61q0 47 -29 76t-77 29q-21 0 -38.5 -4.5t-35.5 -15.5q29 -29 29 -70q0 -34 -21.5 -53.5t-54.5 -19.5q-32 0 -52 23t-20 61q0 31 15 58.5t43 48.5t67 33.5t88 12.5q51 0 92 -13.5
t70.5 -38t45 -58t15.5 -73.5q0 -38 -12.5 -68.5t-34 -58t-50.5 -54.5t-62 -58l-158 -149h172q32 0 47 7t26 27l10 16q5 10 9 13.5t18 3.5h37l-11 -192h-446v55z" />
    <glyph glyph-name="three" unicode="3" horiz-adv-x="551" 
d="M150 80q19 -12 37.5 -17t39.5 -5q60 0 92.5 37.5t32.5 101.5q0 66 -42 104t-121 38h-6v69q70 0 108.5 31.5t38.5 85.5q0 48 -26.5 76.5t-69.5 28.5q-27 0 -56 -15q2 -10 4 -19t2 -18q0 -28 -17 -45t-46 -17q-30 0 -47 17.5t-17 46.5q0 24 13 45t37.5 37t59 25t77.5 9
q103 0 159.5 -45.5t56.5 -117.5q0 -123 -161 -155q94 -16 142.5 -65t48.5 -124q0 -45 -17 -82t-49.5 -63t-79.5 -40.5t-107 -14.5q-49 0 -88 10.5t-66 29t-41.5 44t-14.5 54.5q0 34 20.5 54t51.5 20q30 0 49 -19t19 -54q0 -28 -17 -48z" />
    <glyph glyph-name="four" unicode="4" horiz-adv-x="551" 
d="M245 41q0 10 6 18.5t14 11.5l14 5q14 5 17.5 12.5t3.5 23.5v61h-282v99l319 425h86v-445h101v-79h-101v-61q0 -16 4 -23.5t18 -12.5l15 -5q9 -3 15 -11.5t6 -18.5v-41h-236v41zM303 460v16q0 11 0.5 26.5t2.5 37.5q-20 -32 -37 -55t-28 -38l-95 -128q-10 -13 -25.5 -30.5
t-37.5 -40.5q28 3 50 3.5t39 0.5h131v208z" />
    <glyph glyph-name="five" unicode="5" horiz-adv-x="551" 
d="M150 82q17 -14 35.5 -19t41.5 -5q68 0 105.5 39.5t37.5 106.5t-38 105.5t-102 38.5q-66 0 -120 -45l-55 34l30 348h261q20 0 30.5 6.5t18 15t13.5 15t17 6.5h32l-17 -167h-291l-12 -128q-2 -22 -7 -44q32 29 69.5 40.5t85.5 11.5q49 0 89.5 -16.5t70 -46t45.5 -70
t16 -89.5q0 -51 -19 -93t-52.5 -72.5t-81 -47.5t-104.5 -17q-53 0 -94 11t-68.5 29.5t-42 44t-14.5 55.5q0 35 20 56t51 21q30 0 49.5 -20.5t19.5 -53.5q0 -24 -20 -50z" />
    <glyph glyph-name="six" unicode="6" horiz-adv-x="551" 
d="M176 365q65 62 146 62q40 0 73.5 -15t58 -42t38 -65t13.5 -83q0 -53 -15.5 -96t-44 -73.5t-68.5 -47t-89 -16.5q-55 0 -100.5 24t-77.5 67.5t-50 104.5t-18 134q0 86 24 156t65 119.5t95.5 76t115.5 26.5q68 0 107.5 -34t39.5 -85q0 -35 -19.5 -57.5t-50.5 -22.5
q-35 0 -56 23t-21 56q0 21 11 45q-12 3 -25 3q-30 0 -57 -17t-48 -50t-33.5 -81.5t-13.5 -111.5zM180 286q2 -228 101 -228q43 0 67 39t24 111q0 65 -23 97.5t-65 32.5q-25 0 -53 -13t-51 -39z" />
    <glyph glyph-name="seven" unicode="7" horiz-adv-x="551" 
d="M203 559q-20 0 -34.5 -5t-25.5 -18q-6 -6 -10 -13.5t-8 -13.5t-9.5 -10.5t-13.5 -4.5h-28l12 199q31 -4 60.5 -6t59.5 -2h299v-68q-87 -142 -132 -256t-51 -201q-3 -37 -5 -68t-10 -54t-24 -36t-47 -13q-35 0 -53.5 20.5t-18.5 62.5q0 124 235 487h-196z" />
    <glyph glyph-name="eight" unicode="8" horiz-adv-x="551" 
d="M160 344q-45 34 -66 72.5t-21 89.5q0 40 16.5 75t45 61t67.5 41t84 15q40 0 74 -12t59 -33.5t39 -50.5t14 -62q0 -51 -28 -88t-85 -63q80 -38 117.5 -84t37.5 -115q0 -95 -68 -148.5t-188 -53.5q-109 0 -170 49.5t-61 131.5q0 54 33 96.5t100 78.5zM294 417q79 45 79 112
q0 43 -27 69t-71 26t-71.5 -23.5t-27.5 -61.5q0 -41 29 -68.5t89 -53.5zM216 310q-80 -59 -80 -134q0 -49 33.5 -81.5t94.5 -32.5q63 0 97 28t34 66q0 28 -13 46t-36 34t-56 32.5t-74 41.5z" />
    <glyph glyph-name="nine" unicode="9" horiz-adv-x="551" 
d="M372 320q-63 -62 -149 -62q-40 0 -74 15.5t-58.5 42.5t-38 65t-13.5 83q0 50 16 92.5t45 73.5t70 48.5t90 17.5q56 0 101 -23.5t77.5 -67.5t50 -106.5t17.5 -140.5q0 -83 -23.5 -151.5t-64 -117t-95.5 -75.5t-118 -27q-67 0 -106.5 35t-39.5 86q0 35 22 56t54 21
t52.5 -21.5t20.5 -56.5q0 -22 -13 -44q12 -3 24 -3q30 0 57 17t48 50t34 81.5t14 111.5zM368 399q-1 228 -101 228q-43 0 -67.5 -39t-24.5 -111q0 -65 23.5 -97.5t65.5 -32.5q25 0 53 13t51 39z" />
    <glyph glyph-name="colon" unicode=":" horiz-adv-x="275" 
d="M55 352q0 35 24 59t59 24t59.5 -24t24.5 -59t-24.5 -59t-59.5 -24t-59 24t-24 59zM55 65q0 35 24 59t59 24t59.5 -24t24.5 -59t-24.5 -59.5t-59.5 -24.5t-59 24.5t-24 59.5z" />
    <glyph glyph-name="semicolon" unicode=";" horiz-adv-x="275" 
d="M126 -9q-34 3 -52.5 24.5t-18.5 55.5q0 35 23.5 59t59.5 24q35 0 59.5 -25.5t24.5 -70.5q0 -68 -37.5 -124.5t-109.5 -98.5l-26 42q70 54 77 114zM55 358q0 35 24 59t59 24t59.5 -24t24.5 -59t-24.5 -59t-59.5 -24t-59 24t-24 59z" />
    <glyph glyph-name="less" unicode="&#x3c;" horiz-adv-x="833" 
d="M704 476l-436 -178l436 -178v-107l-575 237v97l575 236v-107z" />
    <glyph glyph-name="equal" unicode="=" horiz-adv-x="833" 
d="M709 452v-97h-585v97h585zM709 242v-97h-585v97h585z" />
    <glyph glyph-name="greater" unicode="&#x3e;" horiz-adv-x="833" 
d="M704 347v-97l-575 -237v107l437 178l-437 178v107z" />
    <glyph glyph-name="question" unicode="?" horiz-adv-x="431" 
d="M110 72q0 35 24.5 59t59.5 24t59 -24t24 -59t-24 -59.5t-59 -24.5t-59.5 24.5t-24.5 59.5zM164 229q0 6 -0.5 12.5t-0.5 12.5q0 77 27 132t49.5 102t22.5 97q0 42 -21.5 67t-53.5 25q-18 0 -31 -8q16 -26 16 -51q0 -29 -21.5 -50t-53.5 -21q-28 0 -49 21.5t-21 57.5
q0 22 14 45t38.5 41.5t58 30.5t73.5 12q43 0 77 -13.5t58 -36.5t36.5 -53.5t12.5 -63.5q0 -27 -8 -50.5t-22.5 -45.5t-33.5 -44.5t-40 -48.5q-31 -35 -49 -70t-18 -88v-12h-60z" />
    <glyph glyph-name="at" unicode="@" horiz-adv-x="986" 
d="M546 463q-32 0 -56.5 -22.5t-47.5 -69.5q-29 -58 -43 -107t-14 -87q0 -40 17 -62t45 -22q63 0 117 119q23 51 32.5 96t9.5 74q0 39 -15.5 60t-44.5 21zM574 156q-59 -96 -144 -96q-69 0 -108.5 44.5t-39.5 122.5q0 56 24 108t71 96q34 32 72.5 48t78.5 16q92 0 108 -89
l24 80h93l-85 -302q-3 -12 -5.5 -23.5t-2.5 -22.5q0 -23 10 -36t27 -13q14 0 39 11t50 32q51 43 77.5 105.5t26.5 139.5q0 68 -24.5 123t-68 95t-104.5 61.5t-134 21.5q-66 0 -126.5 -18t-112.5 -55q-85 -60 -130.5 -151t-45.5 -203q0 -82 27 -148t76.5 -112t119.5 -71
t156 -25q82 0 156.5 25t149.5 76l19 -25q-148 -110 -325 -110q-95 0 -172.5 23t-132.5 64q-74 55 -113.5 135.5t-39.5 177.5q0 77 25.5 146.5t74.5 128.5q71 85 169 130.5t213 45.5q86 0 155 -24t118 -68.5t75.5 -106.5t26.5 -139q0 -80 -29 -147t-83 -116q-59 -53 -129 -53
q-48 0 -75.5 25t-31.5 73z" />
    <glyph glyph-name="A" unicode="A" horiz-adv-x="687" 
d="M-12 38q0 19 15 26l23 10q26 11 54 78l191 450l-28 60q-2 3 -2 10q0 11 13 16.5t30 17.5l21 16q15 11 22.5 21.5t15.5 10.5q6 0 8.5 -3.5t5.5 -9.5l281 -638q11 -23 24 -30l15 -7q9 -5 14.5 -9t5.5 -15v-42h-261v38q0 19 15 26l23 12q4 2 7 6.5t3 9.5q0 7 -2 14t-4 12
l-28 64h-272l-27 -63q-3 -7 -5 -12.5t-2 -11.5q0 -15 13 -21l16 -8q9 -5 14.5 -8.5t5.5 -14.5v-43h-205v38zM418 261l-104 246l-102 -246h206z" />
    <glyph glyph-name="B" unicode="B" horiz-adv-x="676" 
d="M316 428q63 0 97 32.5t34 89.5q0 53 -32 83.5t-90 30.5h-90v-236h81zM39 36q0 23 20 30l15 6q14 5 17.5 12.5t3.5 23.5v525q0 16 -3.5 23.5t-17.5 12.5l-15 6q-20 7 -20 30v36h302q127 0 190 -40t63 -138q0 -71 -40 -112.5t-123 -59.5q98 -17 148 -66t50 -124
q0 -121 -111 -174q-40 -19 -88.5 -23t-108.5 -4h-282v36zM315 79q80 0 122.5 34t42.5 97q0 68 -44.5 105t-131.5 37h-69v-273h80z" />
    <glyph glyph-name="C" unicode="C" horiz-adv-x="671" 
d="M637 154q5 -5 5 -17q0 -17 -12 -30.5t-34 -33.5q-50 -44 -104 -65t-122 -21q-135 0 -222 89q-54 56 -82.5 127t-28.5 155q0 77 24 147.5t70 127.5q48 59 108 89.5t126 30.5q40 0 69.5 -8.5t50.5 -18t35 -18t21 -8.5q5 0 11 2l12 5q8 3 14.5 5t11.5 2h25v-195h-30
q-19 0 -24.5 9t-19.5 34q-59 109 -152 109q-40 0 -75.5 -21t-62.5 -60.5t-42.5 -96t-15.5 -127.5q0 -67 15 -120.5t42.5 -90.5t65 -57t82.5 -20q55 0 105 27t104 81z" />
    <glyph glyph-name="D" unicode="D" horiz-adv-x="742" 
d="M39 36q0 23 20 30l15 6q14 5 17.5 12.5t3.5 23.5v525q0 16 -3.5 23.5t-17.5 12.5l-15 6q-20 7 -20 30v36h227q81 0 145 -9.5t117 -38.5q82 -46 129 -131t47 -194q0 -89 -36 -166t-102 -127q-61 -46 -131.5 -60.5t-161.5 -14.5h-234v36zM241 79q9 -1 17.5 -1h17.5
q275 0 275 294q0 143 -66.5 217t-191.5 74q-8 0 -21 -0.5t-31 -1.5v-582z" />
    <glyph glyph-name="E" unicode="E" horiz-adv-x="616" 
d="M39 36q0 23 20 30l15 6q14 5 17.5 12.5t3.5 23.5v525q0 16 -3.5 23.5t-17.5 12.5l-15 6q-20 7 -20 30v36h404q10 0 36.5 1t71.5 5v-179h-26q-18 0 -25.5 6t-14.5 21q-16 37 -39 52t-68 15h-136v-244h65q35 0 48 18l14 19q8 10 14 17t18 7h33v-201h-33q-12 0 -18 6.5
t-14 16.5l-14 20q-13 18 -48 18h-65v-259h192q28 0 51 15t35 42q11 25 17.5 38.5t28.5 13.5h31v-189h-558v36z" />
    <glyph glyph-name="F" unicode="F" horiz-adv-x="600" 
d="M39 36q0 23 20 30l15 6q14 5 17.5 12.5t3.5 23.5v525q0 14 -2.5 22.5t-15.5 13.5l-13 6q-17 8 -17 30v36h425q20 0 46.5 1.5t61.5 5.5v-181h-24q-19 0 -26.5 5.5t-15.5 22.5q-17 37 -38.5 52t-67.5 15h-166v-244h88q35 0 48 18l14 19q8 10 14 17t18 7h33v-201h-33
q-12 0 -18 6.5t-14 16.5l-14 20q-13 18 -48 18h-88v-231q0 -16 4 -23.5t18 -12.5l14 -6q21 -7 21 -30v-36h-260v36z" />
    <glyph glyph-name="G" unicode="G" horiz-adv-x="748" 
d="M740 56q-193 -68 -317 -68q-81 0 -143 19.5t-113 64.5q-64 57 -97 133.5t-33 170.5q0 71 25 139.5t73 125.5q50 59 110 86.5t137 27.5q40 0 68.5 -8t48.5 -17t33 -17t22 -8q7 0 10 1l14 6q8 3 15 5t12 2h19v-195h-29q-18 0 -24 6.5t-17 26.5q-34 61 -74.5 91t-91.5 30
q-44 0 -80.5 -20.5t-62 -59t-39.5 -94t-14 -126.5q0 -73 16 -131t45.5 -98.5t70.5 -62t91 -21.5q60 0 92 29.5t32 86.5v21q0 29 -26 41l-17 8q-21 11 -21 33v37h206q-5 -31 -6.5 -55.5t-1.5 -43.5q0 -42 6.5 -65t29.5 -34l16 -7q10 -5 12.5 -10t2.5 -14v-36z" />
    <glyph glyph-name="H" unicode="H" horiz-adv-x="792" 
d="M39 36q0 23 20 30l15 6q14 5 17.5 12.5t3.5 23.5v525q0 16 -3.5 23.5t-17.5 12.5l-15 6q-20 7 -20 30v36h260v-36q0 -22 -21 -30l-14 -6q-14 -5 -18 -12.5t-4 -23.5v-212h308v212q0 16 -3.5 23.5t-17.5 12.5l-15 6q-20 7 -20 30v36h258v-36q0 -23 -20 -30l-14 -6
q-14 -5 -18 -12.5t-4 -23.5v-525q0 -16 4 -23.5t18 -12.5l14 -6q20 -7 20 -30v-36h-258v36q0 23 20 30l15 6q14 5 17.5 12.5t3.5 23.5v232h-308v-232q0 -16 4 -23.5t18 -12.5l14 -6q21 -7 21 -30v-36h-260v36z" />
    <glyph glyph-name="I" unicode="I" horiz-adv-x="350" 
d="M44 36q0 23 20 30l14 6q14 5 18 12.5t4 23.5v525q0 16 -4 23.5t-18 12.5l-14 6q-20 7 -20 30v36h262v-36q0 -22 -21 -30l-14 -6q-14 -5 -18 -12.5t-4 -23.5v-525q0 -16 4 -23.5t18 -12.5l14 -6q21 -7 21 -30v-36h-262v36z" />
    <glyph glyph-name="J" unicode="J" horiz-adv-x="458" 
d="M107 79q20 -13 41 -13q80 0 80 122v445q0 16 -4 23.5t-18 12.5l-14 6q-20 7 -20 30v36h250v-36q0 -22 -17 -30l-12 -6q-12 -5 -15 -13t-3 -23v-344v-12q0 -57 -5 -104t-32 -91q-28 -45 -73.5 -70t-105.5 -25q-81 0 -127 38t-46 95q0 36 21 57t51 21q32 0 52 -19.5
t20 -51.5q0 -28 -23 -48z" />
    <glyph glyph-name="K" unicode="K" horiz-adv-x="711" 
d="M39 36q0 23 20 30l15 6q14 5 17.5 12.5t3.5 23.5v525q0 16 -3.5 23.5t-17.5 12.5l-15 6q-20 7 -20 30v36h260v-36q0 -22 -21 -30l-14 -6q-14 -5 -18 -12.5t-4 -23.5v-187l208 185q8 7 12.5 12t4.5 13q0 11 -13 16l-11 4q-5 2 -9.5 8t-4.5 11v46h256v-41q0 -19 -18 -22
l-17 -3q-11 -2 -26.5 -10t-29.5 -20l-248 -215l295 -301q26 -26 46 -40t34 -22.5t21.5 -15.5t7.5 -18v-33h-305v32q0 20 10 26l23 12q8 4 8 16q0 8 -11 21l-233 243v-242q0 -16 4 -23.5t18 -12.5l14 -6q21 -7 21 -30v-36h-260v36z" />
    <glyph glyph-name="L" unicode="L" horiz-adv-x="604" 
d="M39 36q0 23 20 30l15 6q14 5 17.5 12.5t3.5 23.5v525q0 16 -3.5 23.5t-17.5 12.5l-15 6q-20 7 -20 30v36h269v-36q0 -22 -24 -30l-17 -6q-14 -5 -19.5 -12t-5.5 -24v-553h192q28 0 51 15t35 42q11 25 17.5 38.5t28.5 13.5h31v-193q-42 2 -76 3t-63 1h-419v36z" />
    <glyph glyph-name="M" unicode="M" horiz-adv-x="898" 
d="M39 36q0 23 20 30l15 6q14 5 17.5 12.5t3.5 23.5v525q0 14 -2.5 22.5t-15.5 13.5l-13 6q-17 8 -17 30v36h233l166 -497l177 497h228v-36q0 -22 -17 -30l-12 -6q-13 -5 -16 -13.5t-3 -22.5v-525q0 -16 4 -23.5t18 -12.5l14 -6q20 -7 20 -30v-36h-246v36q0 23 20 30l15 6
q14 5 17.5 12.5t3.5 23.5v454q0 11 1 34.5t4 59.5q-7 -19 -15.5 -45t-19.5 -58l-194 -553h-51l-191 570q-3 8 -7.5 26.5t-12.5 47.5q2 -25 3.5 -42.5t1.5 -28.5v-465q0 -16 3.5 -23.5t17.5 -12.5l15 -6q20 -7 20 -30v-36h-205v36z" />
    <glyph glyph-name="N" unicode="N" horiz-adv-x="725" 
d="M39 36q0 23 20 30l15 6q14 5 17.5 12.5t3.5 23.5v525q0 14 -2.5 22.5t-15.5 13.5l-13 6q-17 8 -17 30v36h204l296 -459q-2 17 -2.5 35t-0.5 35v281q0 16 -4 23.5t-18 12.5l-14 6q-21 8 -21 30v36h203v-36q0 -23 -20 -30l-14 -6q-14 -5 -18 -12.5t-4 -23.5v-633h-69
l-384 595q2 -25 3.5 -42.5t1.5 -28.5v-416q0 -16 3.5 -23.5t17.5 -12.5l15 -6q20 -7 20 -30v-36h-203v36z" />
    <glyph glyph-name="O" unicode="O" horiz-adv-x="766" 
d="M37 372q0 85 25 155.5t71 121t109.5 78.5t140.5 28t141 -28t109.5 -78.5t70.5 -121t25 -155.5t-25 -155.5t-71 -121.5t-109.5 -79t-140.5 -28t-140.5 28t-109.5 79t-71 121.5t-25 155.5zM192 372q0 -309 191 -309t191 309q0 308 -191 308q-94 0 -142.5 -76.5
t-48.5 -231.5z" />
    <glyph glyph-name="P" unicode="P" horiz-adv-x="634" 
d="M39 36q0 23 20 30l15 6q14 5 17.5 12.5t3.5 23.5v525q0 16 -3.5 23.5t-17.5 12.5l-15 6q-20 7 -20 30v36h285q282 0 282 -203q0 -103 -68.5 -155t-205.5 -52h-90v-223q0 -16 4 -23.5t18 -12.5l14 -6q21 -7 21 -30v-36h-260v36zM283 409q86 0 128.5 28.5t42.5 94.5
q0 70 -41 100.5t-124 30.5h-47v-254h41z" />
    <glyph glyph-name="Q" unicode="Q" horiz-adv-x="766" 
d="M470 2q33 -2 61 -13t54 -23t51 -21.5t52 -9.5q7 0 19.5 1.5t29.5 5.5v-39q0 -12 -11.5 -24.5t-29.5 -22.5t-41 -16t-46 -6q-45 0 -84.5 20.5t-84.5 52.5q-35 25 -69.5 50t-75.5 44q-14 7 -31.5 13.5t-36 16t-38.5 22.5t-40 33q-54 53 -83 127.5t-29 162.5q0 84 25 153.5
t71 119.5t109.5 78t140.5 28t140.5 -28t109.5 -78t71 -119.5t25 -153.5q0 -70 -18 -131t-51.5 -109t-81.5 -81t-108 -48v-5zM192 376q0 -306 191 -306t191 306q0 305 -191 305t-191 -305z" />
    <glyph glyph-name="R" unicode="R" horiz-adv-x="683" 
d="M39 36q0 23 20 30l15 6q14 5 17.5 12.5t3.5 23.5v525q0 14 -3 22.5t-14 13.5l-12 6q-17 9 -17 30v36h280q282 0 282 -205q0 -81 -48 -130t-137 -54q34 -14 51.5 -37t34.5 -51l83 -134q12 -20 22.5 -34t24.5 -22l20 -11q21 -11 21 -28v-35h-175l-110 178q-45 74 -76.5 114
t-69.5 40q-6 0 -10 -1v-223q0 -16 4 -23.5t18 -12.5l14 -6q21 -7 21 -30v-36h-260v36zM287 409q86 0 128 28.5t42 94.5q0 70 -40.5 100.5t-123.5 30.5h-51v-254h45z" />
    <glyph glyph-name="S" unicode="S" horiz-adv-x="574" 
d="M46 205h26q12 0 19 -3t13 -9.5t12.5 -17t16.5 -24.5q30 -44 65.5 -65.5t83.5 -21.5q30 0 55.5 10t44 28t29 41.5t10.5 50.5t-10 44.5t-29.5 30t-49 23t-69.5 24.5q-52 19 -91 40t-65 48t-39 61t-13 79q0 47 15 86t42.5 67t65.5 43t84 15q26 0 46 -4.5t35.5 -9.5t27 -9.5
t18.5 -4.5t12 2l11 5q5 2 12.5 4t16.5 2h20v-195h-26q-11 0 -17 2t-10.5 7t-9 15t-11.5 25q-40 85 -120 85q-46 0 -75.5 -26t-29.5 -66q0 -22 8 -37t23 -25.5t36.5 -19t49.5 -17.5q45 -15 86.5 -30.5t76.5 -43.5q85 -66 85 -182q0 -54 -18.5 -99t-51 -77.5t-77 -50
t-97.5 -17.5q-29 0 -53.5 6.5t-44 14t-33.5 13.5t-22 6q-12 0 -17 -7l-8 -9q-4 -5 -11.5 -8.5t-14.5 -3.5h-33v205z" />
    <glyph glyph-name="T" unicode="T" horiz-adv-x="664" 
d="M198 36q0 23 21 30l16 6q14 5 18.5 12.5t4.5 23.5v554h-63q-38 0 -61 -10.5t-38 -39.5q-6 -10 -9 -18.5t-7 -14t-10 -8.5t-17 -3h-30v179q45 -4 71.5 -5t36.5 -1h403q10 0 36 1t71 5v-179h-29q-16 0 -22 5t-14 22q-17 37 -39 52t-68 15h-63v-554q0 -16 4.5 -23.5
t18.5 -12.5l16 -6q21 -7 21 -30v-36h-268v36z" />
    <glyph glyph-name="U" unicode="U" horiz-adv-x="757" 
d="M289 741v-36q0 -23 -18 -30l-14 -6q-13 -5 -16.5 -12.5t-3.5 -23.5v-321q0 -46 3.5 -83.5t20.5 -69.5q20 -36 58 -57t87 -21q44 0 80 17t59 46q23 30 30 73.5t7 106.5v309q0 16 -4 23.5t-16 12.5l-13 6q-18 7 -18 30v36h186v-36q0 -23 -18 -30l-13 -6q-13 -5 -16 -13
t-3 -23v-324q0 -73 -12.5 -129t-57.5 -106q-38 -42 -92 -64t-122 -22q-293 0 -293 336v309q0 16 -3.5 23.5t-16.5 12.5l-13 6q-19 7 -19 30v36h251z" />
    <glyph glyph-name="V" unicode="V" horiz-adv-x="683" 
d="M47 638q-9 23 -24 30l-14 7q-9 5 -14.5 8.5t-5.5 15.5v42h260v-38q0 -20 -14 -27l-24 -11q-4 -2 -6.5 -6.5t-2.5 -9.5q0 -13 5 -26l144 -350q6 -14 11.5 -30t10.5 -33q5 19 10.5 35t10.5 30l144 347q6 14 6 25q0 15 -11 20l-17 8q-9 5 -14.5 8.5t-5.5 14.5v43h201v-38
q0 -21 -13 -27l-21 -9q-13 -6 -24 -26t-24 -52l-244 -589h-61z" />
    <glyph glyph-name="W" unicode="W" horiz-adv-x="1000" 
d="M254 741v-38q0 -20 -14 -27l-24 -11q-4 -2 -7 -6.5t-3 -9.5q0 -9 6 -26l142 -399l103 304l-38 110q-4 11 -11 18.5t-14 11.5l-14 7q-9 5 -14.5 8.5t-5.5 15.5v42h253v-38q0 -19 -15 -27l-23 -11q-4 -2 -7 -6.5t-3 -9.5q0 -11 6 -26l141 -398l136 396q2 7 3.5 13t1.5 14
q0 5 -3.5 11t-8.5 8l-16 8q-9 5 -14.5 8.5t-5.5 14.5v43h200v-38q0 -21 -13 -27l-21 -9q-9 -5 -22 -24t-25 -54l-205 -589h-69l-114 308q-18 49 -33 112l-145 -420h-67l-232 631q-9 26 -31 37l-15 7q-9 5 -14 8.5t-5 15.5v42h260z" />
    <glyph glyph-name="X" unicode="X" horiz-adv-x="685" 
d="M0 38q0 8 5 15t13 11l28 14q14 6 26.5 17t20.5 22l179 251l-171 266q-8 13 -17.5 20.5t-23.5 12.5l-22 8q-19 7 -19 24v42h278v-31q0 -10 -3 -15.5t-11 -10.5l-12 -9q-9 -5 -9 -19q0 -9 4 -14l97 -157l103 145q10 13 10 24q0 13 -7 16l-13 8q-5 3 -12.5 6.5t-7.5 17.5v39
h205v-38q0 -20 -17 -27l-21 -9q-18 -8 -44 -45l-148 -207l198 -303q16 -25 36 -35l21 -11q10 -5 15 -9t5 -15v-42h-279v35q0 10 3 16t11 11l13 8q11 6 11 21q0 10 -9 23l-117 182l-125 -179q-5 -7 -7.5 -11.5t-2.5 -10.5q0 -7 2.5 -12t4.5 -7l13 -8q5 -3 12.5 -6.5
t7.5 -17.5v-44h-224v38z" />
    <glyph glyph-name="Y" unicode="Y" horiz-adv-x="632" 
d="M188 36q0 23 21 30l14 6q14 5 18 12.5t4 23.5v227l-180 293q-16 25 -36 36l-17 9q-11 5 -17.5 11.5t-6.5 19.5v37h284v-35q0 -8 -5 -15.5t-13 -12.5l-14 -7q-13 -6 -13 -24q0 -9 7 -20l117 -198l120 201q4 6 6.5 10.5t2.5 10.5q0 4 -2 8t-6 6l-17 8q-23 11 -23 29v39h215
v-38q0 -19 -18 -27l-21 -9q-8 -3 -20.5 -14.5t-23.5 -30.5l-172 -280v-234q0 -16 3.5 -23.5t17.5 -12.5l15 -6q20 -7 20 -30v-36h-260v36z" />
    <glyph glyph-name="Z" unicode="Z" horiz-adv-x="641" 
d="M12 36q0 32 34 81l371 545h-188q-38 0 -60.5 -10.5t-37.5 -39.5q-6 -10 -9 -18.5t-7 -14t-10.5 -8.5t-17.5 -3h-30v179q45 -4 71.5 -5t36.5 -1h436v-29q0 -24 -8.5 -40t-22.5 -37l-375 -552h223q42 0 65 15.5t38 53.5q9 23 14.5 33t25.5 10h38v-195h-587v36z" />
    <glyph glyph-name="bracketleft" unicode="[" horiz-adv-x="361" 
d="M72 741h211v-28q0 -18 -21 -21l-28 -4q-23 -3 -27.5 -21t-4.5 -54v-18v-621v-18q0 -36 4.5 -54t27.5 -21l28 -4q21 -3 21 -21v-28h-211v913z" />
    <glyph glyph-name="backslash" unicode="\" horiz-adv-x="343" 
d="M6 751h71l282 -844h-71z" />
    <glyph glyph-name="bracketright" unicode="]" horiz-adv-x="361" 
d="M78 -144q0 18 21 21l28 4q23 3 27.5 21t4.5 54v18v621v18q0 36 -4.5 54t-27.5 21l-28 4q-21 3 -21 21v28h211v-913h-211v28z" />
    <glyph glyph-name="asciicircum" unicode="^" horiz-adv-x="1000" 
d="M557 714l240 -276h-55l-243 182l-243 -182h-55l241 276h115z" />
    <glyph glyph-name="underscore" unicode="_" 
d="M500 -136v-100h-500v100h500z" />
    <glyph glyph-name="grave" unicode="`" 
d="M140 531q-32 14 -32 40q0 17 11.5 28.5t28.5 11.5q14 0 22.5 -6t18.5 -14l139 -121h-39z" />
    <glyph glyph-name="a" unicode="a" horiz-adv-x="498" 
d="M311 46q-54 -58 -133 -58q-68 0 -107 34t-39 89q0 150 259 167v7q0 38 -21 61t-51 23q-8 0 -16 -1t-16 -3q-2 -36 -20 -56t-47 -20q-26 0 -40.5 15.5t-14.5 42.5q0 35 39.5 62.5t108.5 27.5q100 0 151.5 -45.5t51.5 -133.5v-121q0 -33 7.5 -46.5t32.5 -13.5q10 0 22 4
l16 -22q3 -4 3 -13q0 -7 -7 -16.5t-19 -18.5t-29.5 -15.5t-38.5 -6.5q-65 0 -92 57zM291 214q-130 -3 -130 -94q0 -27 15 -41.5t41 -14.5q35 0 54.5 19t19.5 58v73z" />
    <glyph glyph-name="b" unicode="b" horiz-adv-x="535" 
d="M92 -3q-8 -4 -14 -4q-13 0 -13 16v633q0 14 -2 22t-13 14l-11 6q-14 7 -14 30v27l166 9v-362q56 47 116 47q42 0 77.5 -16.5t61.5 -46t40.5 -70.5t14.5 -90t-15.5 -90t-42.5 -71t-64 -46.5t-81 -16.5q-35 0 -69.5 12t-65.5 36zM192 87q38 -29 68 -29q44 0 75 42t31 118
q0 67 -25 103t-70 36q-44 0 -79 -38v-232z" />
    <glyph glyph-name="c" unicode="c" horiz-adv-x="461" 
d="M430 104q7 -6 7 -14q0 -10 -15 -27.5t-40.5 -34t-60 -28.5t-72.5 -12q-49 0 -89 16.5t-69 46t-45 70t-16 88.5q0 49 17 90.5t48 72t73.5 47.5t93.5 17q69 0 110 -30.5t41 -78.5q0 -31 -17 -48.5t-49 -17.5q-30 0 -47.5 18.5t-17.5 52.5q0 10 5 30q-5 0 -10 0.5t-10 0.5
q-45 0 -75 -39.5t-30 -111.5q0 -66 32.5 -103t81.5 -37q61 0 121 63z" />
    <glyph glyph-name="d" unicode="d" horiz-adv-x="547" 
d="M351 45q-32 -29 -63.5 -43t-66.5 -14q-39 0 -73 16.5t-60 46t-41 71t-15 91.5q0 48 15 89t40.5 70.5t61 46.5t75.5 17q35 0 64.5 -12.5t61.5 -36.5q-9 27 -9 54v201q0 15 -3 23t-15 13l-12 6q-7 3 -12 11t-5 19v27l175 9v-651q0 -15 3 -23.5t15 -13.5l12 -5q7 -3 12 -11
t5 -19v-27l-171 -9v15q0 18 6 39zM341 321q-36 35 -78 35q-44 0 -70 -37.5t-26 -106.5t25.5 -105.5t70.5 -36.5q43 0 78 38v213z" />
    <glyph glyph-name="e" unicode="e" horiz-adv-x="491" 
d="M452 106q6 -6 6 -13q0 -14 -31 -41q-37 -32 -72.5 -48t-89.5 -16q-52 0 -95.5 16t-74 45.5t-47.5 70.5t-17 91q0 48 17 89t47.5 71t71.5 47t89 17q45 0 83.5 -15t66.5 -42.5t43.5 -65.5t15.5 -85v-14h-298q1 -72 32 -109t89 -37q42 0 72 15.5t59 50.5zM334 281
q-2 42 -22.5 65t-54.5 23q-32 0 -54 -22.5t-28 -65.5h159z" />
    <glyph glyph-name="f" unicode="f" horiz-adv-x="324" 
d="M34 27q0 11 5 19t12 11l12 5q12 5 15 13.5t3 23.5v253h-45v34q0 23 16 30l12 5q11 5 15.5 16t6 28t2.5 39.5t7 51.5q9 46 27 82t42.5 61t54 38t60.5 13q41 0 65 -21t24 -56q0 -29 -16.5 -46.5t-45.5 -17.5q-56 0 -62 62q-23 -3 -29.5 -23.5t-6.5 -60.5v-163h118v-72h-118
v-253q0 -15 3.5 -23.5t15.5 -13.5l12 -5q7 -3 12 -11t5 -19v-27h-222v27z" />
    <glyph glyph-name="g" unicode="g" horiz-adv-x="488" 
d="M103 142q-33 23 -50.5 56t-17.5 73q0 36 14 66t39 52t60 34t78 12q42 0 74 -10.5t61 -34.5q22 22 40 33.5t40 11.5q21 0 36 -13t15 -36t-11 -35.5t-29 -12.5q-17 0 -28.5 9.5t-22.5 9.5q-7 0 -11 -1q16 -19 21.5 -39t5.5 -46q0 -36 -13.5 -66t-39 -52t-61.5 -34t-80 -12
q-32 0 -62 9l-18 -43q22 2 43 3t43 1q219 0 219 -131q0 -70 -60 -110t-176 -40q-85 0 -127.5 24.5t-42.5 70.5q0 24 15 38t39 14q27 0 42 -15.5t15 -43.5q18 -6 34.5 -8t32.5 -2q60 0 91 13.5t31 33.5q0 49 -166 49q-59 0 -92 -5.5t-44 -5.5t-14.5 3t-3.5 11t5 19t13 27z
M154 271q0 -48 18.5 -72t53.5 -24t53.5 24t18.5 72q0 97 -72 97t-72 -97z" />
    <glyph glyph-name="h" unicode="h" horiz-adv-x="559" 
d="M29 27q0 11 5 19t12 11l12 5q12 5 15 13.5t3 23.5v543q0 14 -2 22t-13 14l-10 6q-6 3 -10.5 11t-4.5 19v27l168 9v-314q0 -12 -0.5 -25.5t-3.5 -30.5q65 57 137 57q75 0 110.5 -45t35.5 -138v-155q0 -15 3 -23.5t15 -13.5l12 -5q7 -3 12 -11t5 -19v-27h-215v27
q0 11 4.5 19t10.5 11l10 5q11 6 13 14.5t2 22.5v161q0 47 -15 70t-49 23q-24 0 -44.5 -10.5t-42.5 -32.5v-211q0 -14 2 -22.5t13 -14.5l10 -5q6 -3 10.5 -11t4.5 -19v-27h-215v27z" />
    <glyph glyph-name="i" unicode="i" horiz-adv-x="294" 
d="M66 640q0 33 23 56t56 23t56 -23t23 -56t-23 -56t-56 -23t-56 23t-23 56zM36 27q0 11 5 19t12 11l12 5q12 5 15 13.5t3 23.5v226q0 14 -2 22t-13 14l-10 6q-6 3 -10.5 11t-4.5 19v27l170 9v-334q0 -14 3 -23t14 -14l11 -5q6 -3 11 -11t5 -19v-27h-221v27z" />
    <glyph glyph-name="j" unicode="j" horiz-adv-x="285" 
d="M64 640q0 33 23.5 56t56.5 23t56 -23t23 -56t-23 -56t-56 -23t-56.5 23t-23.5 56zM211 61q0 -127 -46.5 -190t-133.5 -63q-46 0 -71 21t-25 56q0 29 16.5 47t42.5 18t40.5 -13t14.5 -36q0 -4 -3 -17h2q23 0 29 20.5t6 64.5v356q0 14 -2 22t-13 14l-10 6q-6 3 -10.5 11
t-4.5 19v27l168 9v-372z" />
    <glyph glyph-name="k" unicode="k" horiz-adv-x="551" 
d="M29 27q0 11 5 19t12 11l12 5q12 5 15 13.5t3 23.5v543q0 14 -2 22t-13 14l-10 6q-6 3 -10.5 11t-4.5 19v27l168 9v-459q0 -12 -3 -62l121 97q8 6 11.5 10.5t3.5 11.5q0 10 -10 16l-13 8q-8 5 -11.5 8.5t-3.5 14.5v29h226v-30q0 -21 -14 -27l-24 -9q-46 -19 -68.5 -35.5
t-36.5 -27.5l-29 -23l115 -169q14 -19 34 -30l17 -10q5 -3 14.5 -6t9.5 -18v-39h-248v22q0 20 10 27l16 9q3 2 6 7t3 11q0 8 -3.5 15.5t-9.5 15.5l-60 88l-53 -42v-60q0 -14 3 -21.5t14 -12.5l11 -6q16 -7 16 -28v-25h-219v27z" />
    <glyph glyph-name="l" unicode="l" horiz-adv-x="292" 
d="M34 27q0 11 5 19t12 11l12 5q12 5 15 13.5t3 23.5v543q0 14 -2 22t-13 14l-11 6q-14 7 -14 30v27l170 9v-651q0 -14 3 -23t14 -14l11 -5q6 -3 11 -11t5 -19v-27h-221v27z" />
    <glyph glyph-name="m" unicode="m" horiz-adv-x="818" 
d="M34 27q0 11 5 19t12 11l12 5q12 5 15 13.5t3 23.5v226q0 14 -2 22t-13 14l-11 6q-14 7 -14 30v27l161 9v-21q0 -23 -4 -38q34 32 65.5 47.5t69.5 15.5q43 0 74 -17.5t47 -52.5q67 70 146 70q74 0 108 -45t34 -138v-155q0 -15 3 -23.5t15 -13.5l12 -5q7 -3 12 -11t5 -19
v-27h-212v27q0 23 14 30l10 5q11 6 13.5 14.5t2.5 22.5v161q0 48 -14.5 70.5t-49.5 22.5q-38 0 -80 -43v-211q0 -14 2 -22.5t13 -14.5l10 -5q6 -3 10.5 -11t4.5 -19v-27h-203v27q0 23 14 30l11 5q11 6 13 14.5t2 22.5v161q0 48 -14.5 70.5t-49.5 22.5q-38 0 -80 -43v-211
q0 -14 2 -22.5t13 -14.5l11 -5q14 -7 14 -30v-27h-212v27z" />
    <glyph glyph-name="n" unicode="n" horiz-adv-x="564" 
d="M34 27q0 11 5 19t12 11l12 5q12 5 15 13.5t3 23.5v226q0 14 -2 22t-13 14l-11 6q-14 7 -14 30v27l163 9v-21q0 -11 -0.5 -20.5t-2.5 -17.5q59 63 141 63q75 0 110 -45t35 -138v-155q0 -15 3 -23.5t15 -13.5l13 -5q16 -7 16 -30v-27h-214v27q0 23 14 30l11 5q11 6 13 14.5
t2 22.5v161q0 47 -15 70t-49 23q-24 0 -45 -10.5t-43 -32.5v-211q0 -14 2.5 -22.5t13.5 -14.5l10 -5q14 -7 14 -30v-27h-214v27z" />
    <glyph glyph-name="o" unicode="o" horiz-adv-x="514" 
d="M30 212q0 50 16.5 91t46.5 70.5t72 45.5t92 16t92 -16t72 -45t46.5 -70.5t16.5 -91.5t-16 -91t-46 -70.5t-72 -46t-93 -16.5t-93 16.5t-71.5 46t-46 70.5t-16.5 91zM164 212q0 -77 24 -116t69 -39t69 39t24 116t-24 116t-69 39t-69 -39t-24 -116z" />
    <glyph glyph-name="p" unicode="p" horiz-adv-x="539" 
d="M29 -165q0 11 5 19t12 11l12 5q12 5 15 13t3 23v419q0 14 -2 22t-13 14l-10 6q-6 3 -10.5 11t-4.5 19v27l166 9v-11q0 -24 -4 -39q29 26 57.5 39t61.5 13q42 0 77 -16.5t60.5 -45.5t40 -70t14.5 -90q0 -48 -14 -88.5t-39.5 -70t-61 -46t-77.5 -16.5q-36 0 -64 11t-53 37
q3 -17 3.5 -28t0.5 -18v-88q0 -14 2 -22t13 -14l10 -5q6 -3 10.5 -11t4.5 -19v-27h-215v27zM204 106q19 -17 37.5 -26t39.5 -9q43 0 69 37t26 106q0 68 -25 104t-70 36q-43 0 -77 -37v-211z" />
    <glyph glyph-name="q" unicode="q" horiz-adv-x="525" 
d="M342 41q-26 -26 -53.5 -37.5t-64.5 -11.5q-43 0 -78.5 17t-61.5 47t-40.5 70.5t-14.5 86.5q0 49 15 90t42 71t65 46.5t83 16.5q41 0 78 -14.5t77 -42.5l41 34q7 5 11.5 9t10.5 4q14 0 14 -23v-498q0 -14 2 -22t13 -14l10 -6q6 -3 10.5 -11t4.5 -19v-26h-219v26
q0 10 5 18.5t13 11.5l14 6q12 5 15.5 13t3.5 23v87v19q0 3 1 10t3 19zM338 338q-17 14 -32.5 20.5t-33.5 6.5q-48 0 -78 -40t-30 -112q0 -69 25.5 -105.5t69.5 -36.5q41 0 79 35v232z" />
    <glyph glyph-name="r" unicode="r" horiz-adv-x="394" 
d="M34 27q0 11 5 19t12 11l12 5q12 5 15 13.5t3 23.5v226q0 14 -2 22t-13 14l-11 6q-14 7 -14 30v27l167 11v-51q0 -11 -1 -20.5t-3 -20.5q26 47 57 70t65 23t55.5 -20.5t21.5 -53.5q0 -32 -21.5 -53t-51.5 -21q-21 0 -39 11t-24 29q-32 -25 -44 -68t-12 -109v-52
q0 -15 3 -23.5t15 -13.5l12 -5q7 -3 12 -11t5 -19v-27h-224v27z" />
    <glyph glyph-name="s" unicode="s" horiz-adv-x="412" 
d="M149 68q24 -9 45 -9q37 0 56 12t19 29q0 12 -6.5 19.5t-19.5 14t-33 13.5t-46 19q-27 12 -48.5 24t-36.5 27t-23 35t-8 48q0 63 42.5 100t117.5 37q61 0 95 -24t34 -59q0 -27 -15 -42t-41 -15q-62 0 -65 67q-16 8 -30 8q-22 0 -35 -10.5t-13 -24.5q0 -17 24.5 -27.5
t71.5 -30.5q30 -12 55 -24t43 -28t28 -38t10 -54q0 -66 -47 -107.5t-130 -41.5q-77 0 -121.5 29.5t-44.5 73.5q0 26 16.5 42.5t44.5 16.5q29 0 46 -15.5t17 -42.5q0 -4 -0.5 -9.5t-1.5 -12.5z" />
    <glyph glyph-name="t" unicode="t" horiz-adv-x="329" 
d="M315 51q2 -6 2 -9q0 -7 -9.5 -16t-25.5 -16.5t-38 -13t-48 -5.5q-66 0 -95 36.5t-29 112.5v212h-46v34q0 11 5 19t12 11l11 5q14 7 19 18.5t5 40.5v92l121 19v-167h107v-72h-107v-203q0 -36 9 -53.5t41 -17.5q19 0 49 11z" />
    <glyph glyph-name="u" unicode="u" horiz-adv-x="561" 
d="M363 54q-29 -32 -65 -47t-77 -15q-75 0 -110 45t-35 138v150q0 14 -2 22t-13 14l-10 6q-5 3 -9.5 11t-4.5 19v27l167 9v-265q0 -47 15 -70t49 -23q24 0 44.5 11t42.5 33v206q0 14 -2 22t-13 14l-10 6q-6 3 -10.5 11t-4.5 19v27l168 9v-334q0 -14 2.5 -23t13.5 -14l11 -5
q6 -3 11 -11t5 -19v-27l-167 -9v25q0 23 4 38z" />
    <glyph glyph-name="v" unicode="v" horiz-adv-x="466" 
d="M60 324q-5 12 -10.5 18.5t-17.5 13.5l-14 8q-18 10 -18 33v27h229v-27q0 -11 -4.5 -19t-10.5 -11l-10 -6q-13 -7 -13 -17q0 -8 4 -17l52 -133q13 -31 21 -61q7 23 13.5 45t14.5 44l39 106q2 6 2 10q0 16 -18 23l-13 6q-8 3 -13 11t-5 19v27h188v-27q0 -19 -21 -30l-17 -8
q-18 -9 -27 -26.5t-18 -40.5l-116 -292h-76z" />
    <glyph glyph-name="w" unicode="w" horiz-adv-x="700" 
d="M58 324q-5 14 -11 20t-17 12l-14 8q-18 10 -18 33v27h233v-27q0 -20 -15 -28l-15 -8q-13 -6 -13 -18q0 -2 0.5 -6.5t2.5 -9.5l43 -115q11 -31 20 -67q11 35 17.5 58.5t11.5 36.5l63 184h61l84 -216q4 -11 9 -28t12 -43q9 38 15.5 59.5t8.5 28.5l33 101q2 6 2 9
q0 17 -20 26l-13 6q-8 3 -13 11t-5 19v27h188v-27q0 -19 -21 -30l-17 -8q-16 -8 -26 -24.5t-19 -42.5l-103 -292h-77l-77 190q-5 13 -10 30t-10 38q-4 -21 -10 -38t-11 -33l-67 -187h-73z" />
    <glyph glyph-name="x" unicode="x" horiz-adv-x="486" 
d="M5 21q0 12 2.5 19.5t14.5 13.5l24 11q22 11 35.5 23t24.5 26l72 85l-108 128q-9 11 -16.5 18.5t-16.5 12.5l-16 8q-16 8 -16 36v22h228v-26q0 -8 -1.5 -13t-8.5 -10l-11 -7q-5 -3 -5 -12q0 -5 5 -12l47 -57l43 49q9 11 9 16q0 8 -5 11l-9 6q-16 11 -16 25v30h175v-26
q0 -20 -16 -28l-21 -9q-23 -11 -31 -20.5t-17 -19.5l-71 -81l119 -138q13 -14 24 -23t18 -13l16 -9q10 -5 13.5 -13t3.5 -20v-24h-245v24q0 14 13 23l11 8q8 5 8 15q0 7 -7 15l-56 68l-52 -64q-5 -5 -5 -13t7 -13l16 -11q13 -9 13 -25v-27h-192v21z" />
    <glyph glyph-name="y" unicode="y" horiz-adv-x="466" 
d="M60 324q-5 13 -11 19t-17 13l-14 8q-18 10 -18 33v27h229v-27q0 -11 -4.5 -19t-10.5 -11l-10 -6q-13 -7 -13 -17q0 -8 4 -17l51 -133q5 -14 11 -29t11 -32q11 35 17.5 57t10.5 32l45 106q2 6 2 9q0 16 -19 24l-13 6q-17 7 -17 30v27h187v-27q0 -19 -21 -30l-16 -8
q-20 -10 -29 -28.5t-17 -38.5l-135 -316q-37 -87 -79 -128t-104 -41q-38 0 -60.5 21.5t-22.5 54.5q0 27 16 45t41 18q16 0 26.5 -6.5t18 -14t14.5 -13.5t16 -6q20 0 36 23t36 68z" />
    <glyph glyph-name="z" unicode="z" horiz-adv-x="468" 
d="M23 22q0 15 7 29t20 31l206 270h-84q-23 0 -35.5 -5t-20.5 -23l-7 -16q-8 -17 -25 -17h-34v133h372v-30q0 -28 -16 -50l-209 -272h99q26 0 38.5 8.5t23.5 28.5l8 18q9 19 32 19h30v-146h-405v22z" />
    <glyph glyph-name="braceleft" unicode="{" 
d="M416 710q-32 0 -52 -7.5t-31 -22.5t-15 -39.5t-4 -59.5v-65q0 -46 -4 -80.5t-16.5 -59.5t-36.5 -41t-65 -25q41 -9 65 -24.5t36.5 -40t16.5 -59t4 -81.5v-66q0 -35 4 -59.5t15 -39.5t31 -22.5t52 -7.5v-29q-58 0 -96 8t-60.5 27.5t-32 52t-9.5 81.5v94q0 39 -5.5 65.5
t-20 43.5t-40 26t-65.5 13v37q40 4 65.5 13t40 26t20 43.5t5.5 65.5v94q0 49 9.5 81.5t32 52t60.5 27.5t96 8v-30z" />
    <glyph glyph-name="bar" unicode="|" 
d="M301 764v-1000h-101v1000h101z" />
    <glyph glyph-name="braceright" unicode="}" 
d="M84 740q58 0 96 -8t61 -27.5t32.5 -52t9.5 -81.5v-94q0 -39 5.5 -65.5t20 -43.5t40 -26t65.5 -13v-37q-40 -4 -65.5 -13t-40 -26t-20 -43.5t-5.5 -65.5v-94q0 -48 -9.5 -80.5t-31.5 -52t-59 -28t-93 -8.5h-6v29q32 0 52 7.5t31 22.5t15 39.5t4 59.5v66q0 47 4 81.5
t16.5 59t37 40t64.5 24.5q-40 9 -64.5 25t-37 41t-16.5 59.5t-4 80.5v65q0 35 -4 59.5t-15 39.5t-31 22.5t-52 7.5v30z" />
    <glyph glyph-name="asciitilde" unicode="~" horiz-adv-x="833" 
d="M747 284q-49 -33 -94 -50t-91 -17q-45 0 -90 15q-52 17 -99 33t-98 16q-45 0 -90 -19.5t-98 -57.5v108q104 70 189 70q44 0 78 -9t66 -20q36 -12 71 -24t73 -12q45 0 88.5 19t94.5 56v-108z" />
    <glyph glyph-name="exclamdown" unicode="&#xa1;" horiz-adv-x="299" 
d="M173 509q6 -91 15.5 -162.5t17.5 -124t14 -87t6 -51.5q0 -96 -77 -96t-77 96q0 17 6 51.5t14.5 87t18 124t15.5 162.5h47zM233 671q0 -35 -24.5 -59t-59.5 -24t-59 24t-24 59t24 59.5t59 24.5t59.5 -24.5t24.5 -59.5z" />
    <glyph glyph-name="cent" unicode="&#xa2;" horiz-adv-x="551" 
d="M254 0q-44 4 -80 22t-61.5 47.5t-39.5 68t-14 82.5t13.5 81.5t39 67t61.5 49t81 25.5v125h66v-121q74 -7 113 -38t39 -77q0 -30 -17 -48t-49 -18q-30 0 -47.5 18.5t-17.5 52.5q0 10 5 30l-26 5v-289h4q40 0 70.5 15.5t60.5 47.5l32 -32q7 -6 7 -14q0 -9 -12 -24
t-34.5 -30.5t-54.5 -28.5t-73 -17v-135h-66v135zM254 373q-74 -39 -74 -149q0 -49 17.5 -82t56.5 -54v285z" />
    <glyph glyph-name="sterling" unicode="&#xa3;" horiz-adv-x="551" 
d="M247 63q-47 -71 -121 -71q-53 0 -86 32.5t-33 83.5q0 48 33.5 81t86.5 33q31 0 62 -15q0 24 -12 52.5t-30 66.5h-113v77h85q-5 26 -8 47.5t-3 41.5q0 44 15.5 81.5t43.5 65t67.5 43t86.5 15.5q39 0 71.5 -10t56 -27.5t36 -42.5t12.5 -55q0 -37 -19.5 -58.5t-52.5 -21.5
t-52.5 19.5t-19.5 54.5q0 29 24 56q-22 12 -46 12q-43 0 -69 -28t-26 -72q0 -20 8 -49.5t22 -71.5h184v-77h-156q15 -55 15 -88q0 -36 -16 -75q77 -50 126 -50q26 0 49 11t49 25l23 -48q4 -8 4 -18q0 -12 -12.5 -28.5t-33 -31.5t-47.5 -25t-56 -10q-41 0 -75.5 18.5
t-72.5 56.5zM191 119q-34 33 -64 33q-24 0 -38 -13t-14 -32q0 -22 15 -34t35 -12q51 0 66 58z" />
    <glyph glyph-name="currency" unicode="&#xa4;" horiz-adv-x="606" 
d="M184 603q25 18 54 28t65 10q68 0 121 -38l99 99l51 -52l-99 -100q37 -52 37 -118q0 -65 -37 -118l99 -100l-51 -51l-99 99q-25 -18 -54.5 -28t-65.5 -10q-69 0 -120 38l-100 -99l-51 51l99 100q-37 52 -37 118t37 118l-99 100l51 52zM304 567q-28 0 -52.5 -11t-43 -29.5
t-29 -43t-10.5 -51.5q0 -28 10.5 -52.5t29 -42.5t43 -28.5t52.5 -10.5t52.5 10.5t43 28.5t29 42.5t10.5 52.5q0 27 -10.5 51.5t-29 43t-43 29.5t-52.5 11z" />
    <glyph glyph-name="yen" unicode="&#xa5;" horiz-adv-x="602" 
d="M593 651q0 -11 -4.5 -15.5t-14.5 -9.5l-17 -8q-10 -5 -21 -16t-20 -26l-60 -102h118v-44h-146l-61 -99h207v-44h-217v-187q0 -15 3.5 -22t16.5 -12l13 -5q19 -7 19 -28v-33h-222v33q0 21 18 28l14 5q13 5 16.5 12t3.5 22v187h-216v44h204l-62 99h-142v44h115l-66 108
q-13 21 -33 33l-16 8q-9 5 -15.5 10.5t-6.5 18.5v33h251v-32q0 -15 -17 -25l-13 -7q-11 -6 -11 -21q0 -8 6 -19l108 -183l111 185q3 5 5.5 10t2.5 10q0 10 -7 13l-16 7q-21 11 -21 27v35h193v-34z" />
    <glyph glyph-name="brokenbar" unicode="&#xa6;" 
d="M301 699v-370h-101v370h101zM301 199v-370h-101v370h101z" />
    <glyph glyph-name="section" unicode="&#xa7;" horiz-adv-x="551" 
d="M348 185q83 -59 83 -139q0 -60 -43 -96.5t-122 -36.5t-122 31.5t-43 82.5q0 33 19 52.5t51 19.5q26 0 44 -16t18 -42q0 -15 -5 -24t-11.5 -15t-11.5 -11t-5 -12q0 -11 16.5 -18.5t46.5 -7.5q35 0 54 16t19 44q0 17 -7 31t-20 27.5t-30.5 27.5t-37.5 32l-89 77
q-43 37 -64 72.5t-21 73.5q0 51 35.5 86.5t100.5 40.5q-84 60 -84 139q0 60 43.5 96.5t122.5 36.5q75 0 115.5 -31t40.5 -80q0 -32 -19 -51.5t-50 -19.5q-25 0 -43 15.5t-18 41.5q0 15 5 23.5t11 14.5l11 11t5 12q0 24 -55 24q-35 0 -54.5 -16.5t-19.5 -44.5q0 -17 7.5 -31
t20 -27.5t30 -27.5t37.5 -32l89 -76q43 -37 64.5 -72.5t21.5 -73.5q0 -51 -35.5 -86t-100.5 -41zM160 389q0 -24 14.5 -47t44.5 -49q36 -31 61 -51t52 -20q26 0 42.5 16.5t16.5 41.5q0 26 -20.5 52t-60.5 59q-26 21 -45.5 36.5t-45.5 15.5t-42.5 -16.5t-16.5 -37.5z" />
    <glyph glyph-name="dieresis" unicode="&#xa8;" 
d="M106 537q0 23 17 39.5t40 16.5t40 -16.5t17 -39.5q0 -24 -16.5 -40.5t-40.5 -16.5q-23 0 -40 16.5t-17 40.5zM280 537q0 23 17 39.5t40 16.5t40 -16.5t17 -39.5q0 -24 -16.5 -40.5t-40.5 -16.5q-23 0 -40 16.5t-17 40.5z" />
    <glyph glyph-name="copyright" unicode="&#xa9;" horiz-adv-x="822" 
d="M412 690q70 0 135 -27.5t116 -77.5q50 -50 78 -116.5t28 -137.5q0 -70 -27.5 -135.5t-78.5 -117.5q-51 -51 -115.5 -77.5t-136.5 -26.5t-136 26.5t-116 77.5q-51 51 -78 116t-27 137t26.5 137t77.5 116t116.5 78.5t137.5 27.5zM412 639q-62 0 -117.5 -23t-99.5 -68
t-66.5 -100t-22.5 -117q0 -63 22.5 -118t66.5 -99q89 -89 216 -89q62 0 117 22.5t98 66.5q44 45 67 101t23 116q0 62 -23 119t-66 99q-43 43 -99 66.5t-116 23.5zM572 538v-159h-23q-16 66 -50 99.5t-79 33.5q-114 0 -114 -178q0 -91 30.5 -137.5t89.5 -46.5q78 0 133 85
l22 -14q-61 -105 -170 -105q-46 0 -84.5 16t-66.5 44.5t-44 66.5t-16 81q0 47 16 87t44 68.5t66 44.5t82 16q25 0 43.5 -5t32 -11t22.5 -11t16 -5q22 0 28 30h22z" />
    <glyph glyph-name="ordfeminine" unicode="&#xaa;" horiz-adv-x="374" 
d="M233 476q-39 -40 -99 -40q-51 0 -80.5 24t-29.5 62q0 105 194 117v4q0 27 -15.5 43t-38.5 16q-10 0 -24 -3q-2 -25 -15 -39t-35 -14q-20 0 -30.5 11t-10.5 30q0 25 30 44t81 19q75 0 113.5 -32t38.5 -93v-85q0 -23 5.5 -32.5t24.5 -9.5q7 0 17 3l12 -16q2 -3 2 -9
q0 -4 -5 -11t-14.5 -13.5t-22.5 -11t-29 -4.5q-47 0 -69 40zM218 594q-97 -3 -97 -66q0 -19 11 -29t31 -10q55 0 55 54v51z" />
    <glyph glyph-name="guillemotleft" unicode="&#xab;" horiz-adv-x="472" 
d="M35 211q101 78 151 122t60 44q5 0 9.5 -5t4.5 -11q0 -10 -25.5 -48.5t-79.5 -101.5q54 -63 79.5 -100.5t25.5 -48.5q0 -6 -4.5 -11t-9.5 -5q-10 0 -60 43.5t-151 121.5zM220 211q101 78 151 122t60 44q5 0 9.5 -5t4.5 -11q0 -10 -25.5 -48.5t-79.5 -101.5
q54 -63 79.5 -100.5t25.5 -48.5q0 -6 -4.5 -11t-9.5 -5q-10 0 -60 43.5t-151 121.5z" />
    <glyph glyph-name="logicalnot" unicode="&#xac;" horiz-adv-x="833" 
d="M709 422v-245h-97v149h-488v96h585z" />
    <glyph glyph-name="registered" unicode="&#xae;" horiz-adv-x="822" 
d="M412 690q72 0 139 -29t118 -81q48 -49 73.5 -114.5t25.5 -140.5q0 -67 -29.5 -134t-83.5 -120q-49 -48 -111.5 -72.5t-132.5 -24.5q-108 0 -196 59q-77 51 -119 128.5t-42 169.5q0 72 26.5 137t77.5 116q50 51 116 78.5t138 27.5zM412 639q-62 0 -118 -23.5t-99 -67.5
q-44 -45 -66.5 -100t-22.5 -117q0 -63 22.5 -118t66.5 -99q89 -89 216 -89q62 0 117 22.5t98 66.5q44 45 67 101t23 116q0 61 -23.5 118.5t-66.5 99.5q-43 43 -98.5 66.5t-115.5 23.5zM424 536q76 0 116.5 -28.5t40.5 -68.5q0 -44 -32.5 -67t-103.5 -35q91 -21 107 -95
q3 -14 4 -28t2.5 -25t5.5 -17.5t15 -6.5q28 0 28 57v6h25v-11q0 -88 -84 -88q-47 0 -68 27q-15 21 -14.5 46.5t-4.5 51.5q-7 39 -26.5 57t-54.5 18h-9v-120q0 -23 10 -32t38 -13v-25h-192v25q29 2 40.5 11t11.5 34v255q0 25 -11.5 34.5t-40.5 11.5v26h197zM371 353
q5 -1 10.5 -1h10.5q94 0 94 88q0 27 -20 49t-53 22q-42 0 -42 -32v-126z" />
    <glyph glyph-name="macron" unicode="&#xaf;" 
d="M121 571h257v-69h-257v69z" />
    <glyph glyph-name="degree" unicode="&#xb0;" horiz-adv-x="329" 
d="M165 715q31 0 58 -11.5t47 -32t31.5 -47.5t11.5 -58q0 -30 -11.5 -57t-32 -47.5t-47.5 -32t-58 -11.5t-57.5 11.5t-46.5 31.5t-31.5 47t-11.5 58t11.5 58t31.5 47.5t47 32t58 11.5zM165 652q-35 0 -60.5 -25t-25.5 -60q0 -36 25 -61t61 -25t60.5 25.5t24.5 60.5t-25 60
t-60 25z" />
    <glyph glyph-name="plusminus" unicode="&#xb1;" horiz-adv-x="833" 
d="M466 597v-159h243v-97h-243v-159h-99v159h-243v97h243v159h99zM709 96v-97h-585v97h585z" />
    <glyph glyph-name="twosuperior" unicode="&#xb2;" horiz-adv-x="364" 
d="M15 307q0 17 7 27t28 30l63 60q53 50 82.5 86t29.5 74q0 28 -19 45.5t-51 17.5q-14 0 -25.5 -2.5t-23.5 -9.5q19 -18 19 -42q0 -20 -14 -32t-36 -12q-21 0 -34 14t-13 37q0 37 38 64.5t102 27.5q68 0 107.5 -31t39.5 -79q0 -23 -8 -41.5t-22 -35t-33 -32.5t-41 -35
l-105 -89h114q21 0 30.5 4t17.5 16l7 10q3 6 6 8t11 2h25l-7 -115h-295v33z" />
    <glyph glyph-name="threesuperior" unicode="&#xb3;" horiz-adv-x="364" 
d="M99 322q13 -8 25 -10.5t26 -2.5q39 0 60.5 22.5t21.5 60.5q0 39 -27.5 62t-79.5 23h-4v42q46 0 71.5 19t25.5 51q0 29 -17.5 46t-46.5 17q-17 0 -37 -9q2 -6 3 -11.5t1 -10.5q0 -17 -11 -27t-30 -10q-20 0 -31 10.5t-11 27.5q0 29 33 49.5t90 20.5q68 0 105.5 -27.5
t37.5 -70.5q0 -75 -107 -93q62 -10 94 -39.5t32 -74.5q0 -54 -44 -87t-123 -33q-65 0 -101.5 24t-36.5 59q0 20 13.5 32.5t33.5 12.5t32.5 -12t12.5 -32q0 -18 -11 -29z" />
    <glyph glyph-name="acute" unicode="&#xb4;" 
d="M172 470l139 121q10 8 18.5 14t22.5 6q17 0 28.5 -11.5t11.5 -28.5q0 -26 -32 -40l-149 -61h-39z" />
    <glyph glyph-name="mu" unicode="&#xb5;" horiz-adv-x="587" 
d="M87 102q-10 -79 -15.5 -137t-13 -96.5t-21 -57t-40.5 -18.5q-26 0 -41 15t-15 41q0 18 8 47t20.5 70.5t27.5 95t29 120.5l53 250h125l-48 -224q-11 -50 -11 -72q0 -29 15 -45t41 -16q68 0 90 107l53 250h125l-56 -260q-4 -17 -6 -30t-2 -24q0 -23 8.5 -33t27.5 -10
t31.5 8.5t22.5 29.5q12 26 17.5 42t19.5 16q16 0 16 -19q0 -12 -6.5 -38.5t-22.5 -54.5q-39 -71 -115 -71q-81 0 -90 97q-20 -51 -48 -74t-73 -23t-73 29t-33 85z" />
    <glyph glyph-name="paragraph" unicode="&#xb6;" 
d="M480 668h-55v-668h-74v668h-78v-668h-74v383q-84 3 -131.5 50t-47.5 119q0 38 13.5 69t38 53.5t60 35t79.5 12.5h269v-54z" />
    <glyph glyph-name="periodcentered" unicode="&#xb7;" horiz-adv-x="252" 
d="M43 345q0 35 24 59t59 24t59 -24t24 -59t-24 -59t-59 -24t-59 24t-24 59z" />
    <glyph glyph-name="cedilla" unicode="&#xb8;" 
d="M153 -127q30 -15 56.5 -24t58.5 -9q18 0 29.5 10t11.5 27q0 38 -46 38q-9 0 -30 -3v88h33v-50q23 3 34 3q37 0 60 -21t23 -55q0 -37 -27.5 -58t-79.5 -21q-33 0 -67.5 10.5t-74.5 25.5z" />
    <glyph glyph-name="onesuperior" unicode="&#xb9;" horiz-adv-x="364" 
d="M99 299q0 13 17 18l12 3q11 2 14 6t3 15v278h-69v21q0 17 19 23l77 29h58v-351q0 -11 3.5 -15t14.5 -6l12 -3q16 -5 16 -18v-25h-177v25z" />
    <glyph glyph-name="ordmasculine" unicode="&#xba;" horiz-adv-x="386" 
d="M23 592q0 35 12.5 63.5t35 49t53.5 32t69 11.5t69 -11t53.5 -31.5t35 -49.5t12.5 -64q0 -70 -46 -113t-124 -43q-77 0 -123.5 43t-46.5 113zM123 592q0 -54 18.5 -81t51.5 -27q70 0 70 108q0 109 -70 109q-33 0 -51.5 -27.5t-18.5 -81.5z" />
    <glyph glyph-name="guillemotright" unicode="&#xbb;" horiz-adv-x="472" 
d="M253 212q-101 -78 -151.5 -122t-60.5 -44q-5 0 -9.5 5t-4.5 11q0 10 25.5 48.5t79.5 101.5q-54 63 -79.5 100.5t-25.5 48.5q0 6 4.5 11t9.5 5q10 0 60.5 -43.5t151.5 -121.5zM437 212q-101 -78 -151 -122t-60 -44q-5 0 -9.5 5t-4.5 11q0 10 25.5 48.5t79.5 101.5
q-54 63 -79.5 100.5t-25.5 48.5q0 6 4.5 11t9.5 5q10 0 60 -43.5t151 -121.5z" />
    <glyph glyph-name="onequarter" unicode="&#xbc;" horiz-adv-x="861" 
d="M94 325q0 12 16 17l12 3q10 2 13 6t3 14v259h-66v20q0 15 18 21l74 27h55v-327q0 -10 3.5 -14t13.5 -6l11 -3q16 -5 16 -17v-23h-169v23zM680 697l-430 -709h-70l431 709h69zM668 23q0 13 13 17l9 3q8 2 10.5 6.5t2.5 13.5v34h-178v55l201 238h54v-249h64v-44h-64v-34
q0 -9 2.5 -13.5t11.5 -6.5l10 -3q13 -4 13 -17v-23h-149v23zM705 258v9v14t2 21q-13 -18 -23.5 -30.5t-17.5 -21.5l-60 -71q-12 -15 -40 -40q18 2 31.5 2h24.5h83v117z" />
    <glyph glyph-name="onehalf" unicode="&#xbd;" horiz-adv-x="861" 
d="M94 325q0 12 16 17l12 3q10 2 13 6t3 14v259h-66v20q0 15 18 21l74 27h55v-327q0 -10 3.5 -14t13.5 -6l11 -3q16 -5 16 -17v-23h-169v23zM680 697l-430 -709h-70l431 709h69zM528 31q0 15 6.5 25t26.5 28l61 56q51 47 79 81t28 69q0 26 -18.5 42t-48.5 16q-14 0 -24.5 -2
t-22.5 -9q19 -16 19 -39q0 -19 -13.5 -30t-34.5 -11q-20 0 -33 13t-13 34q0 35 36.5 60.5t98.5 25.5q64 0 102 -29t38 -74q0 -21 -8 -38t-21.5 -32.5t-31.5 -31t-39 -32.5l-100 -83h109q20 0 29 4t17 15l6 9q3 5 6 7.5t11 2.5h23l-7 -108h-281v31z" />
    <glyph glyph-name="threequarters" unicode="&#xbe;" horiz-adv-x="861" 
d="M94 347q23 -13 49 -13q38 0 58.5 21.5t20.5 56.5q0 37 -26.5 58.5t-76.5 21.5h-4v38q45 0 69 18t24 48q0 27 -17 43t-44 16q-17 0 -35 -9q2 -5 3 -10t1 -10q0 -16 -11 -25.5t-29 -9.5q-19 0 -29.5 10t-10.5 26q0 27 32 46t86 19q65 0 100.5 -25.5t35.5 -66.5
q0 -69 -102 -86q59 -9 90 -36.5t31 -69.5q0 -51 -42.5 -81.5t-117.5 -30.5q-62 0 -97 22t-35 55q0 19 13 30.5t32 11.5q20 0 31.5 -11t11.5 -30q0 -16 -11 -27zM680 697l-430 -709h-70l431 709h69zM668 23q0 13 13 17l9 3q8 2 10.5 6.5t2.5 13.5v34h-178v55l201 238h54v-249
h64v-44h-64v-34q0 -9 2.5 -13.5t11.5 -6.5l10 -3q13 -4 13 -17v-23h-149v23zM705 258v9v14t2 21q-13 -18 -23.5 -30.5t-17.5 -21.5l-60 -71q-12 -15 -40 -40q18 2 31.5 2h24.5h83v117z" />
    <glyph glyph-name="questiondown" unicode="&#xbf;" horiz-adv-x="431" 
d="M328 671q0 -35 -24.5 -59t-59.5 -24t-59 24t-24 59t24 59.5t59 24.5t59.5 -24.5t24.5 -59.5zM274 514q0 -6 0.5 -12.5t0.5 -12.5q0 -76 -27 -132q-27 -55 -49.5 -102t-22.5 -97q0 -42 21.5 -67t53.5 -25q18 0 31 8q-16 26 -16 51q0 29 21.5 50.5t53.5 21.5q28 0 48.5 -22
t20.5 -58q0 -22 -14 -45t-38.5 -41.5t-58 -30.5t-73.5 -12q-43 0 -77 13.5t-58 36.5t-36.5 53.5t-12.5 63.5q0 27 8 50.5t22.5 45.5t33.5 45t40 48q31 35 49 70t18 88v12h61z" />
    <glyph glyph-name="Agrave" unicode="&#xc0;" horiz-adv-x="687" 
d="M-12 38q0 19 15 26l23 10q26 11 54 78l191 450l-28 60q-2 3 -2 10q0 11 13 16.5t30 17.5l21 16q15 11 22.5 21.5t15.5 10.5q6 0 8.5 -3.5t5.5 -9.5l281 -638q11 -23 24 -30l15 -7q9 -5 14.5 -9t5.5 -15v-42h-261v38q0 19 15 26l23 12q4 2 7 6.5t3 9.5q0 7 -2 14t-4 12
l-28 64h-272l-27 -63q-3 -7 -5 -12.5t-2 -11.5q0 -15 13 -21l16 -8q9 -5 14.5 -8.5t5.5 -14.5v-43h-205v38zM418 261l-104 246l-102 -246h206zM224 848q-32 14 -32 40q0 17 11.5 28.5t28.5 11.5q14 0 22.5 -6t18.5 -14l139 -121h-39z" />
    <glyph glyph-name="Aacute" unicode="&#xc1;" horiz-adv-x="687" 
d="M-12 38q0 19 15 26l23 10q26 11 54 78l191 450l-28 60q-2 3 -2 10q0 11 13 16.5t30 17.5l21 16q15 11 22.5 21.5t15.5 10.5q6 0 8.5 -3.5t5.5 -9.5l281 -638q11 -23 24 -30l15 -7q9 -5 14.5 -9t5.5 -15v-42h-261v38q0 19 15 26l23 12q4 2 7 6.5t3 9.5q0 7 -2 14t-4 12
l-28 64h-272l-27 -63q-3 -7 -5 -12.5t-2 -11.5q0 -15 13 -21l16 -8q9 -5 14.5 -8.5t5.5 -14.5v-43h-205v38zM418 261l-104 246l-102 -246h206zM256 787l139 121q10 8 18.5 14t22.5 6q17 0 28.5 -11.5t11.5 -28.5q0 -26 -32 -40l-149 -61h-39z" />
    <glyph glyph-name="Acircumflex" unicode="&#xc2;" horiz-adv-x="687" 
d="M-12 38q0 19 15 26l23 10q26 11 54 78l191 450l-28 60q-2 3 -2 10q0 11 13 16.5t30 17.5l21 16q15 11 22.5 21.5t15.5 10.5q6 0 8.5 -3.5t5.5 -9.5l281 -638q11 -23 24 -30l15 -7q9 -5 14.5 -9t5.5 -15v-42h-261v38q0 19 15 26l23 12q4 2 7 6.5t3 9.5q0 7 -2 14t-4 12
l-28 64h-272l-27 -63q-3 -7 -5 -12.5t-2 -11.5q0 -15 13 -21l16 -8q9 -5 14.5 -8.5t5.5 -14.5v-43h-205v38zM418 261l-104 246l-102 -246h206zM289 921h89l101 -133h-38l-107 64l-108 -64h-38z" />
    <glyph glyph-name="Atilde" unicode="&#xc3;" horiz-adv-x="687" 
d="M-12 38q0 19 15 26l23 10q26 11 54 78l191 450l-28 60q-2 3 -2 10q0 11 13 16.5t30 17.5l21 16q15 11 22.5 21.5t15.5 10.5q6 0 8.5 -3.5t5.5 -9.5l281 -638q11 -23 24 -30l15 -7q9 -5 14.5 -9t5.5 -15v-42h-261v38q0 19 15 26l23 12q4 2 7 6.5t3 9.5q0 7 -2 14t-4 12
l-28 64h-272l-27 -63q-3 -7 -5 -12.5t-2 -11.5q0 -15 13 -21l16 -8q9 -5 14.5 -8.5t5.5 -14.5v-43h-205v38zM418 261l-104 246l-102 -246h206zM193 788q17 114 102 114q16 0 31 -4l53 -14q11 -3 19 -3q31 0 44 40h32q-18 -113 -103 -113q-12 0 -24 3l-51 14q-16 4 -26 4
q-32 0 -45 -41h-32z" />
    <glyph glyph-name="Adieresis" unicode="&#xc4;" horiz-adv-x="687" 
d="M-12 38q0 19 15 26l23 10q26 11 54 78l191 450l-28 60q-2 3 -2 10q0 11 13 16.5t30 17.5l21 16q15 11 22.5 21.5t15.5 10.5q6 0 8.5 -3.5t5.5 -9.5l281 -638q11 -23 24 -30l15 -7q9 -5 14.5 -9t5.5 -15v-42h-261v38q0 19 15 26l23 12q4 2 7 6.5t3 9.5q0 7 -2 14t-4 12
l-28 64h-272l-27 -63q-3 -7 -5 -12.5t-2 -11.5q0 -15 13 -21l16 -8q9 -5 14.5 -8.5t5.5 -14.5v-43h-205v38zM418 261l-104 246l-102 -246h206zM190 854q0 23 17 39.5t40 16.5t40 -16.5t17 -39.5q0 -24 -16.5 -40.5t-40.5 -16.5q-23 0 -40 16.5t-17 40.5zM364 854
q0 23 17 39.5t40 16.5t40 -16.5t17 -39.5q0 -24 -16.5 -40.5t-40.5 -16.5q-23 0 -40 16.5t-17 40.5z" />
    <glyph glyph-name="Aring" unicode="&#xc5;" horiz-adv-x="687" 
d="M242 863q0 42 29 71t71 29t70.5 -29t28.5 -71q0 -21 -8 -39t-21.5 -31.5t-31.5 -21t-38 -7.5q-21 0 -39 8t-31.5 21.5t-21.5 31.5t-8 38zM294 863q0 -20 14 -34t34 -14t34 14t14 34t-14 34.5t-34 14.5q-21 0 -34.5 -14.5t-13.5 -34.5zM-12 37q0 20 15 26l23 9
q25 10 54 77l191 441l-28 60q-2 6 -2 8q0 11 13 16.5t30 17.5l21 16q15 11 23 21t16 10q6 0 8 -3.5t5 -9.5l281 -625q9 -22 24 -29l15 -7q9 -5 14.5 -9t5.5 -15v-41h-261v37q0 19 15 26l23 11q10 4 10 16q0 6 -2 13.5t-4 12.5l-28 63h-272l-27 -62q-3 -7 -5 -12.5t-2 -11.5
q0 -7 4 -12.5t9 -8.5l16 -7q9 -5 14.5 -8.5t5.5 -14.5v-42h-205v37zM418 256l-104 241l-102 -241h206z" />
    <glyph glyph-name="AE" unicode="&#xc6;" horiz-adv-x="953" 
d="M421 385v279l-148 -279h148zM763 741q10 0 36.5 1t71.5 5v-179h-30q-16 0 -21.5 5t-13.5 22q-17 37 -39 52t-68 15h-136v-244h65q35 0 48 18l14 19q8 10 14 17t18 7h33v-201h-33q-12 0 -18 6.5t-14 16.5l-14 20q-13 18 -48 18h-65v-259h192q28 0 51 15t35 42
q11 25 17.5 38.5t28.5 13.5h31v-189h-554v36q0 23 20 30l15 6q14 5 18 12.5t4 23.5v199h-190l-99 -188q-7 -13 -7 -24q0 -16 12 -21l17 -8q9 -5 14.5 -8.5t5.5 -14.5v-43h-205v38q0 20 14 26l23 10q11 5 27 25.5t36 58.5l245 461q8 14 8 26q0 17 -20 24l-15 6q-20 7 -20 30
v36h496z" />
    <glyph glyph-name="Ccedilla" unicode="&#xc7;" horiz-adv-x="671" 
d="M637 154q5 -5 5 -17q0 -17 -12 -30.5t-34 -33.5q-50 -44 -104 -65t-122 -21q-135 0 -222 89q-54 56 -82.5 127t-28.5 155q0 77 24 147.5t70 127.5q48 59 108 89.5t126 30.5q40 0 69.5 -8.5t50.5 -18t35 -18t21 -8.5q5 0 11 2l12 5q8 3 14.5 5t11.5 2h25v-195h-30
q-19 0 -24.5 9t-19.5 34q-59 109 -152 109q-40 0 -75.5 -21t-62.5 -60.5t-42.5 -96t-15.5 -127.5q0 -67 15 -120.5t42.5 -90.5t65 -57t82.5 -20q55 0 105 27t104 81zM281 -127q30 -15 56.5 -24t58.5 -9q18 0 29.5 10t11.5 27q0 38 -46 38q-9 0 -30 -3v88h33v-50q23 3 34 3
q37 0 60 -21t23 -55q0 -37 -27.5 -58t-79.5 -21q-33 0 -67.5 10.5t-74.5 25.5z" />
    <glyph glyph-name="Egrave" unicode="&#xc8;" horiz-adv-x="616" 
d="M39 36q0 23 20 30l15 6q14 5 17.5 12.5t3.5 23.5v525q0 16 -3.5 23.5t-17.5 12.5l-15 6q-20 7 -20 30v36h404q10 0 36.5 1t71.5 5v-179h-26q-18 0 -25.5 6t-14.5 21q-16 37 -39 52t-68 15h-136v-244h65q35 0 48 18l14 19q8 10 14 17t18 7h33v-201h-33q-12 0 -18 6.5
t-14 16.5l-14 20q-13 18 -48 18h-65v-259h192q28 0 51 15t35 42q11 25 17.5 38.5t28.5 13.5h31v-189h-558v36zM189 848q-32 14 -32 40q0 17 11.5 28.5t28.5 11.5q14 0 22.5 -6t18.5 -14l139 -121h-39z" />
    <glyph glyph-name="Eacute" unicode="&#xc9;" horiz-adv-x="616" 
d="M39 36q0 23 20 30l15 6q14 5 17.5 12.5t3.5 23.5v525q0 16 -3.5 23.5t-17.5 12.5l-15 6q-20 7 -20 30v36h404q10 0 36.5 1t71.5 5v-179h-26q-18 0 -25.5 6t-14.5 21q-16 37 -39 52t-68 15h-136v-244h65q35 0 48 18l14 19q8 10 14 17t18 7h33v-201h-33q-12 0 -18 6.5
t-14 16.5l-14 20q-13 18 -48 18h-65v-259h192q28 0 51 15t35 42q11 25 17.5 38.5t28.5 13.5h31v-189h-558v36zM221 787l139 121q10 8 18.5 14t22.5 6q17 0 28.5 -11.5t11.5 -28.5q0 -26 -32 -40l-149 -61h-39z" />
    <glyph glyph-name="Ecircumflex" unicode="&#xca;" horiz-adv-x="616" 
d="M39 36q0 23 20 30l15 6q14 5 17.5 12.5t3.5 23.5v525q0 16 -3.5 23.5t-17.5 12.5l-15 6q-20 7 -20 30v36h404q10 0 36.5 1t71.5 5v-179h-26q-18 0 -25.5 6t-14.5 21q-16 37 -39 52t-68 15h-136v-244h65q35 0 48 18l14 19q8 10 14 17t18 7h33v-201h-33q-12 0 -18 6.5
t-14 16.5l-14 20q-13 18 -48 18h-65v-259h192q28 0 51 15t35 42q11 25 17.5 38.5t28.5 13.5h31v-189h-558v36zM254 921h89l101 -133h-38l-107 64l-108 -64h-38z" />
    <glyph glyph-name="Edieresis" unicode="&#xcb;" horiz-adv-x="616" 
d="M39 36q0 23 20 30l15 6q14 5 17.5 12.5t3.5 23.5v525q0 16 -3.5 23.5t-17.5 12.5l-15 6q-20 7 -20 30v36h404q10 0 36.5 1t71.5 5v-179h-26q-18 0 -25.5 6t-14.5 21q-16 37 -39 52t-68 15h-136v-244h65q35 0 48 18l14 19q8 10 14 17t18 7h33v-201h-33q-12 0 -18 6.5
t-14 16.5l-14 20q-13 18 -48 18h-65v-259h192q28 0 51 15t35 42q11 25 17.5 38.5t28.5 13.5h31v-189h-558v36zM155 854q0 23 17 39.5t40 16.5t40 -16.5t17 -39.5q0 -24 -16.5 -40.5t-40.5 -16.5q-23 0 -40 16.5t-17 40.5zM329 854q0 23 17 39.5t40 16.5t40 -16.5t17 -39.5
q0 -24 -16.5 -40.5t-40.5 -16.5q-23 0 -40 16.5t-17 40.5z" />
    <glyph glyph-name="Igrave" unicode="&#xcc;" horiz-adv-x="350" 
d="M44 36q0 23 20 30l14 6q14 5 18 12.5t4 23.5v525q0 16 -4 23.5t-18 12.5l-14 6q-20 7 -20 30v36h262v-36q0 -22 -21 -30l-14 -6q-14 -5 -18 -12.5t-4 -23.5v-525q0 -16 4 -23.5t18 -12.5l14 -6q21 -7 21 -30v-36h-262v36zM65 848q-32 14 -32 40q0 17 11.5 28.5t28.5 11.5
q14 0 22.5 -6t18.5 -14l139 -121h-39z" />
    <glyph glyph-name="Iacute" unicode="&#xcd;" horiz-adv-x="350" 
d="M44 36q0 23 20 30l14 6q14 5 18 12.5t4 23.5v525q0 16 -4 23.5t-18 12.5l-14 6q-20 7 -20 30v36h262v-36q0 -22 -21 -30l-14 -6q-14 -5 -18 -12.5t-4 -23.5v-525q0 -16 4 -23.5t18 -12.5l14 -6q21 -7 21 -30v-36h-262v36zM97 787l139 121q10 8 18.5 14t22.5 6
q17 0 28.5 -11.5t11.5 -28.5q0 -26 -32 -40l-149 -61h-39z" />
    <glyph glyph-name="Icircumflex" unicode="&#xce;" horiz-adv-x="350" 
d="M44 36q0 23 20 30l14 6q14 5 18 12.5t4 23.5v525q0 16 -4 23.5t-18 12.5l-14 6q-20 7 -20 30v36h262v-36q0 -22 -21 -30l-14 -6q-14 -5 -18 -12.5t-4 -23.5v-525q0 -16 4 -23.5t18 -12.5l14 -6q21 -7 21 -30v-36h-262v36zM130 921h89l101 -133h-38l-107 64l-108 -64h-38z
" />
    <glyph glyph-name="Idieresis" unicode="&#xcf;" horiz-adv-x="350" 
d="M44 36q0 23 20 30l14 6q14 5 18 12.5t4 23.5v525q0 16 -4 23.5t-18 12.5l-14 6q-20 7 -20 30v36h262v-36q0 -22 -21 -30l-14 -6q-14 -5 -18 -12.5t-4 -23.5v-525q0 -16 4 -23.5t18 -12.5l14 -6q21 -7 21 -30v-36h-262v36zM31 854q0 23 17 39.5t40 16.5t40 -16.5t17 -39.5
q0 -24 -16.5 -40.5t-40.5 -16.5q-23 0 -40 16.5t-17 40.5zM205 854q0 23 17 39.5t40 16.5t40 -16.5t17 -39.5q0 -24 -16.5 -40.5t-40.5 -16.5q-23 0 -40 16.5t-17 40.5z" />
    <glyph glyph-name="Eth" unicode="&#xd0;" horiz-adv-x="747" 
d="M44 36q0 23 20 30l15 6q14 5 17.5 12.5t3.5 23.5v238h-100v67h100v220q0 16 -3.5 23.5t-17.5 12.5l-15 6q-20 7 -20 30v36h227q81 0 145 -9.5t117 -38.5q82 -46 129 -131t47 -194q0 -89 -36 -166t-102 -127q-61 -46 -131.5 -60.5t-161.5 -14.5h-234v36zM247 79
q9 -1 17.5 -1h17.5q273 0 273 294q0 143 -66 217t-191 74q-8 0 -21 -0.5t-30 -1.5v-248h161v-67h-161v-267z" />
    <glyph glyph-name="Ntilde" unicode="&#xd1;" horiz-adv-x="725" 
d="M39 36q0 23 20 30l15 6q14 5 17.5 12.5t3.5 23.5v525q0 14 -2.5 22.5t-15.5 13.5l-13 6q-17 8 -17 30v36h204l296 -459q-2 17 -2.5 35t-0.5 35v281q0 16 -4 23.5t-18 12.5l-14 6q-21 8 -21 30v36h203v-36q0 -23 -20 -30l-14 -6q-14 -5 -18 -12.5t-4 -23.5v-633h-69
l-384 595q2 -25 3.5 -42.5t1.5 -28.5v-416q0 -16 3.5 -23.5t17.5 -12.5l15 -6q20 -7 20 -30v-36h-203v36zM228 788q17 114 102 114q16 0 31 -4l53 -14q11 -3 19 -3q31 0 44 40h32q-18 -113 -103 -113q-12 0 -24 3l-51 14q-16 4 -26 4q-32 0 -45 -41h-32z" />
    <glyph glyph-name="Ograve" unicode="&#xd2;" horiz-adv-x="766" 
d="M37 372q0 85 25 155.5t71 121t109.5 78.5t140.5 28t141 -28t109.5 -78.5t70.5 -121t25 -155.5t-25 -155.5t-71 -121.5t-109.5 -79t-140.5 -28t-140.5 28t-109.5 79t-71 121.5t-25 155.5zM192 372q0 -309 191 -309t191 309q0 308 -191 308q-94 0 -142.5 -76.5
t-48.5 -231.5zM273 848q-32 14 -32 40q0 17 11.5 28.5t28.5 11.5q14 0 22.5 -6t18.5 -14l139 -121h-39z" />
    <glyph glyph-name="Oacute" unicode="&#xd3;" horiz-adv-x="766" 
d="M37 372q0 85 25 155.5t71 121t109.5 78.5t140.5 28t141 -28t109.5 -78.5t70.5 -121t25 -155.5t-25 -155.5t-71 -121.5t-109.5 -79t-140.5 -28t-140.5 28t-109.5 79t-71 121.5t-25 155.5zM192 372q0 -309 191 -309t191 309q0 308 -191 308q-94 0 -142.5 -76.5
t-48.5 -231.5zM305 787l139 121q10 8 18.5 14t22.5 6q17 0 28.5 -11.5t11.5 -28.5q0 -26 -32 -40l-149 -61h-39z" />
    <glyph glyph-name="Ocircumflex" unicode="&#xd4;" horiz-adv-x="766" 
d="M37 372q0 85 25 155.5t71 121t109.5 78.5t140.5 28t141 -28t109.5 -78.5t70.5 -121t25 -155.5t-25 -155.5t-71 -121.5t-109.5 -79t-140.5 -28t-140.5 28t-109.5 79t-71 121.5t-25 155.5zM192 372q0 -309 191 -309t191 309q0 308 -191 308q-94 0 -142.5 -76.5
t-48.5 -231.5zM338 921h89l101 -133h-38l-107 64l-108 -64h-38z" />
    <glyph glyph-name="Otilde" unicode="&#xd5;" horiz-adv-x="766" 
d="M37 372q0 85 25 155.5t71 121t109.5 78.5t140.5 28t141 -28t109.5 -78.5t70.5 -121t25 -155.5t-25 -155.5t-71 -121.5t-109.5 -79t-140.5 -28t-140.5 28t-109.5 79t-71 121.5t-25 155.5zM192 372q0 -309 191 -309t191 309q0 308 -191 308q-94 0 -142.5 -76.5
t-48.5 -231.5zM242 788q17 114 102 114q16 0 31 -4l53 -14q11 -3 19 -3q31 0 44 40h32q-18 -113 -103 -113q-12 0 -24 3l-51 14q-16 4 -26 4q-32 0 -45 -41h-32z" />
    <glyph glyph-name="Odieresis" unicode="&#xd6;" horiz-adv-x="766" 
d="M37 372q0 85 25 155.5t71 121t109.5 78.5t140.5 28t141 -28t109.5 -78.5t70.5 -121t25 -155.5t-25 -155.5t-71 -121.5t-109.5 -79t-140.5 -28t-140.5 28t-109.5 79t-71 121.5t-25 155.5zM192 372q0 -309 191 -309t191 309q0 308 -191 308q-94 0 -142.5 -76.5
t-48.5 -231.5zM239 854q0 23 17 39.5t40 16.5t40 -16.5t17 -39.5q0 -24 -16.5 -40.5t-40.5 -16.5q-23 0 -40 16.5t-17 40.5zM413 854q0 23 17 39.5t40 16.5t40 -16.5t17 -39.5q0 -24 -16.5 -40.5t-40.5 -16.5q-23 0 -40 16.5t-17 40.5z" />
    <glyph glyph-name="multiply" unicode="&#xd7;" horiz-adv-x="833" 
d="M423 367l220 220l69 -68l-220 -221l220 -220l-69 -68l-220 220l-220 -220l-68 68l220 220l-220 221l68 68z" />
    <glyph glyph-name="Oslash" unicode="&#xd8;" horiz-adv-x="766" 
d="M155 74q-118 113 -118 296q0 84 25 154.5t71 121t109.5 78.5t140.5 28q50 0 92.5 -11t84.5 -35l44 70h74l-68 -107q59 -56 89 -131.5t30 -167.5q0 -84 -25 -154.5t-71 -120.5t-109.5 -78t-140.5 -28q-51 0 -93.5 10.5t-84.5 35.5l-49 -79h-74zM508 625q-26 28 -56 40.5
t-69 12.5q-191 0 -191 -308q0 -48 4.5 -95t24.5 -97zM257 117q26 -29 56.5 -41.5t69.5 -12.5q191 0 191 307q0 54 -6.5 102.5t-23.5 93.5z" />
    <glyph glyph-name="Ugrave" unicode="&#xd9;" horiz-adv-x="757" 
d="M289 741v-36q0 -23 -18 -30l-14 -6q-13 -5 -16.5 -12.5t-3.5 -23.5v-321q0 -46 3.5 -83.5t20.5 -69.5q20 -36 58 -57t87 -21q44 0 80 17t59 46q23 30 30 73.5t7 106.5v309q0 16 -4 23.5t-16 12.5l-13 6q-18 7 -18 30v36h186v-36q0 -23 -18 -30l-13 -6q-13 -5 -16 -13
t-3 -23v-324q0 -73 -12.5 -129t-57.5 -106q-38 -42 -92 -64t-122 -22q-293 0 -293 336v309q0 16 -3.5 23.5t-16.5 12.5l-13 6q-19 7 -19 30v36h251zM287 848q-32 14 -32 40q0 17 11.5 28.5t28.5 11.5q14 0 22.5 -6t18.5 -14l139 -121h-39z" />
    <glyph glyph-name="Uacute" unicode="&#xda;" horiz-adv-x="757" 
d="M289 741v-36q0 -23 -18 -30l-14 -6q-13 -5 -16.5 -12.5t-3.5 -23.5v-321q0 -46 3.5 -83.5t20.5 -69.5q20 -36 58 -57t87 -21q44 0 80 17t59 46q23 30 30 73.5t7 106.5v309q0 16 -4 23.5t-16 12.5l-13 6q-18 7 -18 30v36h186v-36q0 -23 -18 -30l-13 -6q-13 -5 -16 -13
t-3 -23v-324q0 -73 -12.5 -129t-57.5 -106q-38 -42 -92 -64t-122 -22q-293 0 -293 336v309q0 16 -3.5 23.5t-16.5 12.5l-13 6q-19 7 -19 30v36h251zM319 787l139 121q10 8 18.5 14t22.5 6q17 0 28.5 -11.5t11.5 -28.5q0 -26 -32 -40l-149 -61h-39z" />
    <glyph glyph-name="Ucircumflex" unicode="&#xdb;" horiz-adv-x="757" 
d="M289 741v-36q0 -23 -18 -30l-14 -6q-13 -5 -16.5 -12.5t-3.5 -23.5v-321q0 -46 3.5 -83.5t20.5 -69.5q20 -36 58 -57t87 -21q44 0 80 17t59 46q23 30 30 73.5t7 106.5v309q0 16 -4 23.5t-16 12.5l-13 6q-18 7 -18 30v36h186v-36q0 -23 -18 -30l-13 -6q-13 -5 -16 -13
t-3 -23v-324q0 -73 -12.5 -129t-57.5 -106q-38 -42 -92 -64t-122 -22q-293 0 -293 336v309q0 16 -3.5 23.5t-16.5 12.5l-13 6q-19 7 -19 30v36h251zM352 921h89l101 -133h-38l-107 64l-108 -64h-38z" />
    <glyph glyph-name="Udieresis" unicode="&#xdc;" horiz-adv-x="757" 
d="M289 741v-36q0 -23 -18 -30l-14 -6q-13 -5 -16.5 -12.5t-3.5 -23.5v-321q0 -46 3.5 -83.5t20.5 -69.5q20 -36 58 -57t87 -21q44 0 80 17t59 46q23 30 30 73.5t7 106.5v309q0 16 -4 23.5t-16 12.5l-13 6q-18 7 -18 30v36h186v-36q0 -23 -18 -30l-13 -6q-13 -5 -16 -13
t-3 -23v-324q0 -73 -12.5 -129t-57.5 -106q-38 -42 -92 -64t-122 -22q-293 0 -293 336v309q0 16 -3.5 23.5t-16.5 12.5l-13 6q-19 7 -19 30v36h251zM253 854q0 23 17 39.5t40 16.5t40 -16.5t17 -39.5q0 -24 -16.5 -40.5t-40.5 -16.5q-23 0 -40 16.5t-17 40.5zM427 854
q0 23 17 39.5t40 16.5t40 -16.5t17 -39.5q0 -24 -16.5 -40.5t-40.5 -16.5q-23 0 -40 16.5t-17 40.5z" />
    <glyph glyph-name="Yacute" unicode="&#xdd;" horiz-adv-x="632" 
d="M188 36q0 23 21 30l14 6q14 5 18 12.5t4 23.5v227l-180 293q-16 25 -36 36l-17 9q-11 5 -17.5 11.5t-6.5 19.5v37h284v-35q0 -8 -5 -15.5t-13 -12.5l-14 -7q-13 -6 -13 -24q0 -9 7 -20l117 -198l120 201q4 6 6.5 10.5t2.5 10.5q0 4 -2 8t-6 6l-17 8q-23 11 -23 29v39h215
v-38q0 -19 -18 -27l-21 -9q-8 -3 -20.5 -14.5t-23.5 -30.5l-172 -280v-234q0 -16 3.5 -23.5t17.5 -12.5l15 -6q20 -7 20 -30v-36h-260v36zM238 787l139 121q10 8 18.5 14t22.5 6q17 0 28.5 -11.5t11.5 -28.5q0 -26 -32 -40l-149 -61h-39z" />
    <glyph glyph-name="Thorn" unicode="&#xde;" horiz-adv-x="634" 
d="M39 36q0 23 20 30l15 6q14 5 17.5 12.5t3.5 23.5v525q0 16 -3.5 23.5t-17.5 12.5l-15 6q-20 7 -20 30v36h260v-36q0 -22 -21 -30l-14 -6q-14 -5 -18 -12.5t-4 -23.5v-52h82q282 0 282 -203q0 -103 -68.5 -155t-205.5 -52h-90v-63q0 -16 4 -23.5t18 -12.5l14 -6
q21 -7 21 -30v-36h-260v36zM242 250h41q86 0 128.5 28.5t42.5 93.5q0 70 -41 100.5t-124 30.5h-47v-253z" />
    <glyph glyph-name="germandbls" unicode="&#xdf;" horiz-adv-x="611" 
d="M34 27q0 11 5 19t12 11l12 5q12 5 15 13.5t3 23.5v253h-45v34q0 23 16 30l12 5q10 5 14 14t6 23t3 34t4 47q25 211 205 211q84 0 130.5 -44t46.5 -122q0 -83 -59 -109q-27 -12 -42.5 -19.5t-15.5 -26.5q0 -12 8.5 -21.5t23 -19.5t34.5 -22t44 -28q62 -42 92.5 -84
t30.5 -100q0 -36 -12.5 -67t-36 -53.5t-56.5 -35t-74 -12.5q-78 0 -123.5 34.5t-45.5 85.5q0 27 17 45t46 18t46.5 -17.5t17.5 -46.5q0 -10 -2.5 -17t-10.5 -15q23 -17 50 -17q32 0 50 16.5t18 45.5q0 38 -31.5 67t-84.5 67q-47 33 -75 64.5t-28 81.5q0 29 13 44t33 30
q14 11 22.5 22t13 23.5t6 28.5t1.5 37q0 101 -71 101q-40 0 -52 -24.5t-12 -70.5v-589h-174v27z" />
    <glyph glyph-name="agrave" unicode="&#xe0;" horiz-adv-x="498" 
d="M311 46q-54 -58 -133 -58q-68 0 -107 34t-39 89q0 150 259 167v7q0 38 -21 61t-51 23q-8 0 -16 -1t-16 -3q-2 -36 -20 -56t-47 -20q-26 0 -40.5 15.5t-14.5 42.5q0 35 39.5 62.5t108.5 27.5q100 0 151.5 -45.5t51.5 -133.5v-121q0 -33 7.5 -46.5t32.5 -13.5q10 0 22 4
l16 -22q3 -4 3 -13q0 -7 -7 -16.5t-19 -18.5t-29.5 -15.5t-38.5 -6.5q-65 0 -92 57zM291 214q-130 -3 -130 -94q0 -27 15 -41.5t41 -14.5q35 0 54.5 19t19.5 58v73zM130 531q-32 14 -32 40q0 17 11.5 28.5t28.5 11.5q14 0 22.5 -6t18.5 -14l139 -121h-39z" />
    <glyph glyph-name="aacute" unicode="&#xe1;" horiz-adv-x="498" 
d="M311 46q-54 -58 -133 -58q-68 0 -107 34t-39 89q0 150 259 167v7q0 38 -21 61t-51 23q-8 0 -16 -1t-16 -3q-2 -36 -20 -56t-47 -20q-26 0 -40.5 15.5t-14.5 42.5q0 35 39.5 62.5t108.5 27.5q100 0 151.5 -45.5t51.5 -133.5v-121q0 -33 7.5 -46.5t32.5 -13.5q10 0 22 4
l16 -22q3 -4 3 -13q0 -7 -7 -16.5t-19 -18.5t-29.5 -15.5t-38.5 -6.5q-65 0 -92 57zM291 214q-130 -3 -130 -94q0 -27 15 -41.5t41 -14.5q35 0 54.5 19t19.5 58v73zM162 470l139 121q10 8 18.5 14t22.5 6q17 0 28.5 -11.5t11.5 -28.5q0 -26 -32 -40l-149 -61h-39z" />
    <glyph glyph-name="acircumflex" unicode="&#xe2;" horiz-adv-x="498" 
d="M311 46q-54 -58 -133 -58q-68 0 -107 34t-39 89q0 150 259 167v7q0 38 -21 61t-51 23q-8 0 -16 -1t-16 -3q-2 -36 -20 -56t-47 -20q-26 0 -40.5 15.5t-14.5 42.5q0 35 39.5 62.5t108.5 27.5q100 0 151.5 -45.5t51.5 -133.5v-121q0 -33 7.5 -46.5t32.5 -13.5q10 0 22 4
l16 -22q3 -4 3 -13q0 -7 -7 -16.5t-19 -18.5t-29.5 -15.5t-38.5 -6.5q-65 0 -92 57zM291 214q-130 -3 -130 -94q0 -27 15 -41.5t41 -14.5q35 0 54.5 19t19.5 58v73zM195 604h89l101 -133h-38l-107 64l-108 -64h-38z" />
    <glyph glyph-name="atilde" unicode="&#xe3;" horiz-adv-x="498" 
d="M311 46q-54 -58 -133 -58q-68 0 -107 34t-39 89q0 150 259 167v7q0 38 -21 61t-51 23q-8 0 -16 -1t-16 -3q-2 -36 -20 -56t-47 -20q-26 0 -40.5 15.5t-14.5 42.5q0 35 39.5 62.5t108.5 27.5q100 0 151.5 -45.5t51.5 -133.5v-121q0 -33 7.5 -46.5t32.5 -13.5q10 0 22 4
l16 -22q3 -4 3 -13q0 -7 -7 -16.5t-19 -18.5t-29.5 -15.5t-38.5 -6.5q-65 0 -92 57zM291 214q-130 -3 -130 -94q0 -27 15 -41.5t41 -14.5q35 0 54.5 19t19.5 58v73zM99 471q17 114 102 114q16 0 31 -4l53 -14q11 -3 19 -3q31 0 44 40h32q-18 -113 -103 -113q-12 0 -24 3
l-51 14q-16 4 -26 4q-32 0 -45 -41h-32z" />
    <glyph glyph-name="adieresis" unicode="&#xe4;" horiz-adv-x="498" 
d="M311 46q-54 -58 -133 -58q-68 0 -107 34t-39 89q0 150 259 167v7q0 38 -21 61t-51 23q-8 0 -16 -1t-16 -3q-2 -36 -20 -56t-47 -20q-26 0 -40.5 15.5t-14.5 42.5q0 35 39.5 62.5t108.5 27.5q100 0 151.5 -45.5t51.5 -133.5v-121q0 -33 7.5 -46.5t32.5 -13.5q10 0 22 4
l16 -22q3 -4 3 -13q0 -7 -7 -16.5t-19 -18.5t-29.5 -15.5t-38.5 -6.5q-65 0 -92 57zM291 214q-130 -3 -130 -94q0 -27 15 -41.5t41 -14.5q35 0 54.5 19t19.5 58v73zM96 537q0 23 17 39.5t40 16.5t40 -16.5t17 -39.5q0 -24 -16.5 -40.5t-40.5 -16.5q-23 0 -40 16.5t-17 40.5z
M270 537q0 23 17 39.5t40 16.5t40 -16.5t17 -39.5q0 -24 -16.5 -40.5t-40.5 -16.5q-23 0 -40 16.5t-17 40.5z" />
    <glyph glyph-name="aring" unicode="&#xe5;" horiz-adv-x="498" 
d="M311 46q-54 -58 -133 -58q-68 0 -107 34t-39 89q0 150 259 167v7q0 38 -21 61t-51 23q-8 0 -16 -1t-16 -3q-2 -36 -20 -56t-47 -20q-26 0 -40.5 15.5t-14.5 42.5q0 35 39.5 62.5t108.5 27.5q100 0 151.5 -45.5t51.5 -133.5v-121q0 -33 7.5 -46.5t32.5 -13.5q10 0 22 4
l16 -22q3 -4 3 -13q0 -7 -7 -16.5t-19 -18.5t-29.5 -15.5t-38.5 -6.5q-65 0 -92 57zM291 215q-130 -3 -130 -94q0 -27 14.5 -42t41.5 -15q35 0 54.5 19.5t19.5 58.5v73zM140 567q0 42 29 71t71 29t70.5 -29t28.5 -71q0 -21 -8 -39t-21.5 -31.5t-31.5 -21t-38 -7.5
q-21 0 -39 8t-31.5 21.5t-21.5 31.5t-8 38zM191 567q0 -20 14 -34t34 -14t34.5 14t14.5 34t-14.5 34t-34.5 14q-21 0 -34.5 -14t-13.5 -34z" />
    <glyph glyph-name="ae" unicode="&#xe6;" horiz-adv-x="737" 
d="M330 66q-63 -78 -152 -78q-69 0 -107.5 34.5t-38.5 89.5q0 75 64.5 117.5t194.5 50.5v5q0 38 -21 60t-51 22q-8 0 -16 -1t-16 -3q-2 -37 -20 -56.5t-47 -19.5q-26 0 -40.5 15.5t-14.5 42.5q0 37 40.5 63.5t115.5 26.5q45 0 78 -12.5t63 -42.5q26 25 59.5 40t78.5 15
q46 0 85 -15t67 -42t43.5 -65t15.5 -84v-14h-298q2 -148 121 -148q42 0 73 15.5t59 50.5l32 -27q6 -6 6 -13q0 -6 -7 -16.5t-23 -24.5q-36 -32 -72 -48t-91 -16q-61 0 -107 20.5t-74 57.5zM291 215q-130 -3 -130 -92q0 -59 55 -59q35 0 55 22.5t20 65.5v63zM581 280
q-2 43 -23.5 65t-56.5 22q-34 0 -57 -22t-28 -65h165z" />
    <glyph glyph-name="ccedilla" unicode="&#xe7;" horiz-adv-x="461" 
d="M430 104q7 -6 7 -14q0 -10 -15 -27.5t-40.5 -34t-60 -28.5t-72.5 -12q-49 0 -89 16.5t-69 46t-45 70t-16 88.5q0 49 17 90.5t48 72t73.5 47.5t93.5 17q69 0 110 -30.5t41 -78.5q0 -31 -17 -48.5t-49 -17.5q-30 0 -47.5 18.5t-17.5 52.5q0 10 5 30q-5 0 -10 0.5t-10 0.5
q-45 0 -75 -39.5t-30 -111.5q0 -66 32.5 -103t81.5 -37q61 0 121 63zM160 -127q30 -15 56.5 -24t58.5 -9q18 0 29.5 10t11.5 27q0 38 -46 38q-9 0 -30 -3v88h33v-50q23 3 34 3q37 0 60 -21t23 -55q0 -37 -27.5 -58t-79.5 -21q-33 0 -67.5 10.5t-74.5 25.5z" />
    <glyph glyph-name="egrave" unicode="&#xe8;" horiz-adv-x="491" 
d="M452 106q6 -6 6 -13q0 -14 -31 -41q-37 -32 -72.5 -48t-89.5 -16q-52 0 -95.5 16t-74 45.5t-47.5 70.5t-17 91q0 48 17 89t47.5 71t71.5 47t89 17q45 0 83.5 -15t66.5 -42.5t43.5 -65.5t15.5 -85v-14h-298q1 -72 32 -109t89 -37q42 0 72 15.5t59 50.5zM334 281
q-2 42 -22.5 65t-54.5 23q-32 0 -54 -22.5t-28 -65.5h159zM149 531q-32 14 -32 40q0 17 11.5 28.5t28.5 11.5q14 0 22.5 -6t18.5 -14l139 -121h-39z" />
    <glyph glyph-name="eacute" unicode="&#xe9;" horiz-adv-x="491" 
d="M452 106q6 -6 6 -13q0 -14 -31 -41q-37 -32 -72.5 -48t-89.5 -16q-52 0 -95.5 16t-74 45.5t-47.5 70.5t-17 91q0 48 17 89t47.5 71t71.5 47t89 17q45 0 83.5 -15t66.5 -42.5t43.5 -65.5t15.5 -85v-14h-298q1 -72 32 -109t89 -37q42 0 72 15.5t59 50.5zM334 281
q-2 42 -22.5 65t-54.5 23q-32 0 -54 -22.5t-28 -65.5h159zM181 470l139 121q10 8 18.5 14t22.5 6q17 0 28.5 -11.5t11.5 -28.5q0 -26 -32 -40l-149 -61h-39z" />
    <glyph glyph-name="ecircumflex" unicode="&#xea;" horiz-adv-x="491" 
d="M452 106q6 -6 6 -13q0 -14 -31 -41q-37 -32 -72.5 -48t-89.5 -16q-52 0 -95.5 16t-74 45.5t-47.5 70.5t-17 91q0 48 17 89t47.5 71t71.5 47t89 17q45 0 83.5 -15t66.5 -42.5t43.5 -65.5t15.5 -85v-14h-298q1 -72 32 -109t89 -37q42 0 72 15.5t59 50.5zM334 281
q-2 42 -22.5 65t-54.5 23q-32 0 -54 -22.5t-28 -65.5h159zM214 604h89l101 -133h-38l-107 64l-108 -64h-38z" />
    <glyph glyph-name="edieresis" unicode="&#xeb;" horiz-adv-x="491" 
d="M452 106q6 -6 6 -13q0 -14 -31 -41q-37 -32 -72.5 -48t-89.5 -16q-52 0 -95.5 16t-74 45.5t-47.5 70.5t-17 91q0 48 17 89t47.5 71t71.5 47t89 17q45 0 83.5 -15t66.5 -42.5t43.5 -65.5t15.5 -85v-14h-298q1 -72 32 -109t89 -37q42 0 72 15.5t59 50.5zM334 281
q-2 42 -22.5 65t-54.5 23q-32 0 -54 -22.5t-28 -65.5h159zM115 537q0 23 17 39.5t40 16.5t40 -16.5t17 -39.5q0 -24 -16.5 -40.5t-40.5 -16.5q-23 0 -40 16.5t-17 40.5zM289 537q0 23 17 39.5t40 16.5t40 -16.5t17 -39.5q0 -24 -16.5 -40.5t-40.5 -16.5q-23 0 -40 16.5
t-17 40.5z" />
    <glyph glyph-name="igrave" unicode="&#xec;" horiz-adv-x="294" 
d="M36 27q0 11 5 19t12 11l12 5q12 5 15 13.5t3 23.5v226q0 14 -2 22t-13 14l-10 6q-6 3 -10.5 11t-4.5 19v27l170 9v-334q0 -14 3 -23t14 -14l11 -5q6 -3 11 -11t5 -19v-27h-221v27zM34 531q-32 14 -32 40q0 17 11.5 28.5t28.5 11.5q14 0 22.5 -6t18.5 -14l139 -121h-39z
" />
    <glyph glyph-name="iacute" unicode="&#xed;" horiz-adv-x="294" 
d="M36 27q0 11 5 19t12 11l12 5q12 5 15 13.5t3 23.5v226q0 14 -2 22t-13 14l-10 6q-6 3 -10.5 11t-4.5 19v27l170 9v-334q0 -14 3 -23t14 -14l11 -5q6 -3 11 -11t5 -19v-27h-221v27zM66 470l139 121q10 8 18.5 14t22.5 6q17 0 28.5 -11.5t11.5 -28.5q0 -26 -32 -40
l-149 -61h-39z" />
    <glyph glyph-name="icircumflex" unicode="&#xee;" horiz-adv-x="294" 
d="M36 27q0 11 5 19t12 11l12 5q12 5 15 13.5t3 23.5v226q0 14 -2 22t-13 14l-10 6q-6 3 -10.5 11t-4.5 19v27l170 9v-334q0 -14 3 -23t14 -14l11 -5q6 -3 11 -11t5 -19v-27h-221v27zM99 604h89l101 -133h-38l-107 64l-108 -64h-38z" />
    <glyph glyph-name="idieresis" unicode="&#xef;" horiz-adv-x="294" 
d="M36 27q0 11 5 19t12 11l12 5q12 5 15 13.5t3 23.5v226q0 14 -2 22t-13 14l-10 6q-6 3 -10.5 11t-4.5 19v27l170 9v-334q0 -14 3 -23t14 -14l11 -5q6 -3 11 -11t5 -19v-27h-221v27zM0 537q0 23 17 39.5t40 16.5t40 -16.5t17 -39.5q0 -24 -16.5 -40.5t-40.5 -16.5
q-23 0 -40 16.5t-17 40.5zM174 537q0 23 17 39.5t40 16.5t40 -16.5t17 -39.5q0 -24 -16.5 -40.5t-40.5 -16.5q-23 0 -40 16.5t-17 40.5z" />
    <glyph glyph-name="eth" unicode="&#xf0;" horiz-adv-x="514" 
d="M327 426q-10 33 -27 68t-42 73l-135 -81l-23 38l132 79q-14 18 -39 46.5t-62 65.5l35 27q32 -24 61.5 -49.5t58.5 -53.5l141 85l25 -38l-132 -81q164 -174 164 -372q0 -118 -60.5 -181.5t-166.5 -63.5q-51 0 -93 16.5t-72 46t-46 70.5t-16 91t16.5 91t46.5 70.5t72 45.5
t92 16q27 0 70 -9zM257 367q-44 0 -68.5 -38.5t-24.5 -111.5q0 -160 93 -160q45 0 69 39t24 116t-24 116t-69 39z" />
    <glyph glyph-name="ntilde" unicode="&#xf1;" horiz-adv-x="564" 
d="M34 27q0 11 5 19t12 11l12 5q12 5 15 13.5t3 23.5v226q0 14 -2 22t-13 14l-11 6q-14 7 -14 30v27l163 9v-21q0 -11 -0.5 -20.5t-2.5 -17.5q59 63 141 63q75 0 110 -45t35 -138v-155q0 -15 3 -23.5t15 -13.5l13 -5q16 -7 16 -30v-27h-214v27q0 23 14 30l11 5q11 6 13 14.5
t2 22.5v161q0 47 -15 70t-49 23q-24 0 -45 -10.5t-43 -32.5v-211q0 -14 2.5 -22.5t13.5 -14.5l10 -5q14 -7 14 -30v-27h-214v27zM136 471q17 114 102 114q16 0 31 -4l53 -14q11 -3 19 -3q31 0 44 40h32q-18 -113 -103 -113q-12 0 -24 3l-51 14q-16 4 -26 4q-32 0 -45 -41
h-32z" />
    <glyph glyph-name="ograve" unicode="&#xf2;" horiz-adv-x="514" 
d="M30 212q0 50 16.5 91t46.5 70.5t72 45.5t92 16t92 -16t72 -45t46.5 -70.5t16.5 -91.5t-16 -91t-46 -70.5t-72 -46t-93 -16.5t-93 16.5t-71.5 46t-46 70.5t-16.5 91zM164 212q0 -77 24 -116t69 -39t69 39t24 116t-24 116t-69 39t-69 -39t-24 -116zM147 531q-32 14 -32 40
q0 17 11.5 28.5t28.5 11.5q14 0 22.5 -6t18.5 -14l139 -121h-39z" />
    <glyph glyph-name="oacute" unicode="&#xf3;" horiz-adv-x="514" 
d="M30 212q0 50 16.5 91t46.5 70.5t72 45.5t92 16t92 -16t72 -45t46.5 -70.5t16.5 -91.5t-16 -91t-46 -70.5t-72 -46t-93 -16.5t-93 16.5t-71.5 46t-46 70.5t-16.5 91zM164 212q0 -77 24 -116t69 -39t69 39t24 116t-24 116t-69 39t-69 -39t-24 -116zM179 470l139 121
q10 8 18.5 14t22.5 6q17 0 28.5 -11.5t11.5 -28.5q0 -26 -32 -40l-149 -61h-39z" />
    <glyph glyph-name="ocircumflex" unicode="&#xf4;" horiz-adv-x="514" 
d="M30 212q0 50 16.5 91t46.5 70.5t72 45.5t92 16t92 -16t72 -45t46.5 -70.5t16.5 -91.5t-16 -91t-46 -70.5t-72 -46t-93 -16.5t-93 16.5t-71.5 46t-46 70.5t-16.5 91zM164 212q0 -77 24 -116t69 -39t69 39t24 116t-24 116t-69 39t-69 -39t-24 -116zM212 604h89l101 -133
h-38l-107 64l-108 -64h-38z" />
    <glyph glyph-name="otilde" unicode="&#xf5;" horiz-adv-x="514" 
d="M30 212q0 50 16.5 91t46.5 70.5t72 45.5t92 16t92 -16t72 -45t46.5 -70.5t16.5 -91.5t-16 -91t-46 -70.5t-72 -46t-93 -16.5t-93 16.5t-71.5 46t-46 70.5t-16.5 91zM164 212q0 -77 24 -116t69 -39t69 39t24 116t-24 116t-69 39t-69 -39t-24 -116zM116 471q17 114 102 114
q16 0 31 -4l53 -14q11 -3 19 -3q31 0 44 40h32q-18 -113 -103 -113q-12 0 -24 3l-51 14q-16 4 -26 4q-32 0 -45 -41h-32z" />
    <glyph glyph-name="odieresis" unicode="&#xf6;" horiz-adv-x="514" 
d="M30 212q0 50 16.5 91t46.5 70.5t72 45.5t92 16t92 -16t72 -45t46.5 -70.5t16.5 -91.5t-16 -91t-46 -70.5t-72 -46t-93 -16.5t-93 16.5t-71.5 46t-46 70.5t-16.5 91zM164 212q0 -77 24 -116t69 -39t69 39t24 116t-24 116t-69 39t-69 -39t-24 -116zM113 537q0 23 17 39.5
t40 16.5t40 -16.5t17 -39.5q0 -24 -16.5 -40.5t-40.5 -16.5q-23 0 -40 16.5t-17 40.5zM287 537q0 23 17 39.5t40 16.5t40 -16.5t17 -39.5q0 -24 -16.5 -40.5t-40.5 -16.5q-23 0 -40 16.5t-17 40.5z" />
    <glyph glyph-name="divide" unicode="&#xf7;" horiz-adv-x="833" 
d="M417 564q30 0 52 -21.5t22 -52.5q0 -30 -21 -52t-53 -22q-31 0 -52.5 21.5t-21.5 52.5q0 32 22 53t52 21zM709 347v-97h-585v97h585zM417 180q30 0 52 -21.5t22 -52.5q0 -29 -21.5 -51t-52.5 -22t-52.5 21t-21.5 52q0 32 22 53t52 21z" />
    <glyph glyph-name="oslash" unicode="&#xf8;" horiz-adv-x="514" 
d="M101 42q-37 34 -54 75t-17 95q0 50 16.5 91.5t46.5 70.5t72 45t92 16q31 0 58.5 -6t56.5 -20l34 47h59l-53 -74q72 -63 72 -170q0 -50 -16 -91t-46 -70.5t-72 -46t-93 -16.5q-60 0 -116 27l-38 -52h-59zM322 340q-14 17 -29.5 23.5t-35.5 6.5q-47 0 -71.5 -40t-24.5 -118
q0 -21 1.5 -41t6.5 -37zM192 84q24 -31 65 -31q47 0 71.5 40.5t24.5 118.5q0 18 -1.5 37.5t-7.5 41.5z" />
    <glyph glyph-name="ugrave" unicode="&#xf9;" horiz-adv-x="561" 
d="M363 54q-29 -32 -65 -47t-77 -15q-75 0 -110 45t-35 138v150q0 14 -2 22t-13 14l-10 6q-5 3 -9.5 11t-4.5 19v27l167 9v-265q0 -47 15 -70t49 -23q24 0 44.5 11t42.5 33v206q0 14 -2 22t-13 14l-10 6q-6 3 -10.5 11t-4.5 19v27l168 9v-334q0 -14 2.5 -23t13.5 -14l11 -5
q6 -3 11 -11t5 -19v-27l-167 -9v25q0 23 4 38zM163 531q-32 14 -32 40q0 17 11.5 28.5t28.5 11.5q14 0 22.5 -6t18.5 -14l139 -121h-39z" />
    <glyph glyph-name="uacute" unicode="&#xfa;" horiz-adv-x="561" 
d="M363 54q-29 -32 -65 -47t-77 -15q-75 0 -110 45t-35 138v150q0 14 -2 22t-13 14l-10 6q-5 3 -9.5 11t-4.5 19v27l167 9v-265q0 -47 15 -70t49 -23q24 0 44.5 11t42.5 33v206q0 14 -2 22t-13 14l-10 6q-6 3 -10.5 11t-4.5 19v27l168 9v-334q0 -14 2.5 -23t13.5 -14l11 -5
q6 -3 11 -11t5 -19v-27l-167 -9v25q0 23 4 38zM195 470l139 121q10 8 18.5 14t22.5 6q17 0 28.5 -11.5t11.5 -28.5q0 -26 -32 -40l-149 -61h-39z" />
    <glyph glyph-name="ucircumflex" unicode="&#xfb;" horiz-adv-x="561" 
d="M363 54q-29 -32 -65 -47t-77 -15q-75 0 -110 45t-35 138v150q0 14 -2 22t-13 14l-10 6q-5 3 -9.5 11t-4.5 19v27l167 9v-265q0 -47 15 -70t49 -23q24 0 44.5 11t42.5 33v206q0 14 -2 22t-13 14l-10 6q-6 3 -10.5 11t-4.5 19v27l168 9v-334q0 -14 2.5 -23t13.5 -14l11 -5
q6 -3 11 -11t5 -19v-27l-167 -9v25q0 23 4 38zM228 604h89l101 -133h-38l-107 64l-108 -64h-38z" />
    <glyph glyph-name="udieresis" unicode="&#xfc;" horiz-adv-x="561" 
d="M363 54q-29 -32 -65 -47t-77 -15q-75 0 -110 45t-35 138v150q0 14 -2 22t-13 14l-10 6q-5 3 -9.5 11t-4.5 19v27l167 9v-265q0 -47 15 -70t49 -23q24 0 44.5 11t42.5 33v206q0 14 -2 22t-13 14l-10 6q-6 3 -10.5 11t-4.5 19v27l168 9v-334q0 -14 2.5 -23t13.5 -14l11 -5
q6 -3 11 -11t5 -19v-27l-167 -9v25q0 23 4 38zM129 537q0 23 17 39.5t40 16.5t40 -16.5t17 -39.5q0 -24 -16.5 -40.5t-40.5 -16.5q-23 0 -40 16.5t-17 40.5zM303 537q0 23 17 39.5t40 16.5t40 -16.5t17 -39.5q0 -24 -16.5 -40.5t-40.5 -16.5q-23 0 -40 16.5t-17 40.5z" />
    <glyph glyph-name="yacute" unicode="&#xfd;" horiz-adv-x="466" 
d="M60 324q-5 13 -11 19t-17 13l-14 8q-18 10 -18 33v27h229v-27q0 -11 -4.5 -19t-10.5 -11l-10 -6q-13 -7 -13 -17q0 -8 4 -17l51 -133q5 -14 11 -29t11 -32q11 35 17.5 57t10.5 32l45 106q2 6 2 9q0 16 -19 24l-13 6q-17 7 -17 30v27h187v-27q0 -19 -21 -30l-16 -8
q-20 -10 -29 -28.5t-17 -38.5l-135 -316q-37 -87 -79 -128t-104 -41q-38 0 -60.5 21.5t-22.5 54.5q0 27 16 45t41 18q16 0 26.5 -6.5t18 -14t14.5 -13.5t16 -6q20 0 36 23t36 68zM155 470l139 121q10 8 18.5 14t22.5 6q17 0 28.5 -11.5t11.5 -28.5q0 -26 -32 -40l-149 -61
h-39z" />
    <glyph glyph-name="thorn" unicode="&#xfe;" horiz-adv-x="539" 
d="M29 -165q0 11 5 19t12 11l12 5q12 5 15 13.5t3 22.5v736q0 14 -2 22.5t-13 13.5l-10 6q-6 3 -10.5 11t-4.5 19v27l168 9v-328q0 -10 -1.5 -20t-2.5 -19q52 52 117 52q42 0 77 -16.5t60.5 -45.5t40 -70t14.5 -90q0 -47 -14 -87.5t-39.5 -70t-61 -46.5t-77.5 -17
q-36 0 -64 11t-53 37q3 -17 3.5 -28t0.5 -18v-88q0 -14 2 -22t13 -14l10 -5q6 -3 10.5 -11t4.5 -19v-27h-215v27zM204 106q14 -14 33 -24.5t44 -10.5q43 0 69 37t26 106q0 68 -25 104t-70 36q-41 0 -77 -37v-211z" />
    <glyph glyph-name="ydieresis" unicode="&#xff;" horiz-adv-x="466" 
d="M60 324q-5 13 -11 19t-17 13l-14 8q-18 10 -18 33v27h229v-27q0 -11 -4.5 -19t-10.5 -11l-10 -6q-13 -7 -13 -17q0 -8 4 -17l51 -133q5 -14 11 -29t11 -32q11 35 17.5 57t10.5 32l45 106q2 6 2 9q0 16 -19 24l-13 6q-17 7 -17 30v27h187v-27q0 -19 -21 -30l-16 -8
q-20 -10 -29 -28.5t-17 -38.5l-135 -316q-37 -87 -79 -128t-104 -41q-38 0 -60.5 21.5t-22.5 54.5q0 27 16 45t41 18q16 0 26.5 -6.5t18 -14t14.5 -13.5t16 -6q20 0 36 23t36 68zM89 537q0 23 17 39.5t40 16.5t40 -16.5t17 -39.5q0 -24 -16.5 -40.5t-40.5 -16.5
q-23 0 -40 16.5t-17 40.5zM263 537q0 23 17 39.5t40 16.5t40 -16.5t17 -39.5q0 -24 -16.5 -40.5t-40.5 -16.5q-23 0 -40 16.5t-17 40.5z" />
    <glyph glyph-name="dotlessi" unicode="&#x131;" horiz-adv-x="294" 
d="M36 27q0 11 5 19t12 11l12 5q12 5 15 13.5t3 23.5v226q0 14 -2 22t-13 14l-10 6q-6 3 -10.5 11t-4.5 19v27l170 9v-334q0 -14 3 -23t14 -14l11 -5q6 -3 11 -11t5 -19v-27h-221v27z" />
    <glyph glyph-name="Lslash" unicode="&#x141;" horiz-adv-x="609" 
d="M44 36q0 23 20 30l14 6q14 5 18 12.5t4 23.5v166l-100 -70v79l100 71v279q0 16 -4 23.5t-18 12.5l-14 6q-20 7 -20 30v36h268v-36q0 -23 -23 -30l-17 -6q-15 -5 -20 -12t-5 -24v-197l192 133v-81l-192 -134v-274h192q27 0 50.5 15t35.5 42q11 25 17.5 38.5t28.5 13.5h31
v-193q-42 2 -76 3t-63 1h-419v36z" />
    <glyph glyph-name="lslash" unicode="&#x142;" horiz-adv-x="301" 
d="M38 27q0 11 5 19t12 11l13 5q12 5 15 13.5t3 23.5v192l-86 -59v52l86 61v297q0 14 -2.5 22t-13.5 14l-10 6q-14 7 -14 30v27l169 9v-335l86 60v-54l-86 -61v-261q0 -14 3 -23t14 -14l12 -5q6 -3 10.5 -11t4.5 -19v-27h-221v27z" />
    <glyph glyph-name="OE" unicode="&#x152;" horiz-adv-x="1058" 
d="M601 0q-77 0 -133 -5t-94 -5q-73 0 -134.5 28t-106.5 78t-70.5 120t-25.5 154t25 154t70.5 120.5t109 78.5t141.5 28q32 0 85.5 -5t132.5 -5h282q10 0 36.5 1t71.5 5v-179h-30q-16 0 -22 5t-14 22q-17 37 -39 52t-68 15h-136v-244h65q35 0 48 18l14 19q8 10 14 17t18 7
h33v-201h-33q-12 0 -18 6.5t-14 16.5l-14 20q-13 18 -48 18h-65v-259h192q28 0 51 15t35 42q11 25 17.5 38.5t28.5 13.5h31v-189h-436zM539 566q0 29 -4 48.5t-18 32.5q-14 14 -44.5 24.5t-68.5 10.5q-110 0 -161 -76t-51 -234q0 -157 48.5 -233t150.5 -76q37 0 68.5 8.5
t46.5 18.5q23 15 28 34.5t5 50.5v391z" />
    <glyph glyph-name="oe" unicode="&#x153;" horiz-adv-x="802" 
d="M412 54q-55 -66 -155 -66q-51 0 -93 16.5t-72 46t-46 70.5t-16 91t16.5 91.5t46.5 70.5t72 45t92 16q101 0 159 -67q32 35 67.5 51t82.5 16q46 0 85 -15t67 -42.5t43.5 -65.5t15.5 -85v-14h-298v-13q0 -63 32.5 -98t88.5 -35q42 0 72 15.5t59 50.5l33 -27q5 -5 5 -13
q0 -6 -7 -16.5t-23 -24.5q-20 -17 -38 -29.5t-38 -20t-42.5 -11t-51.5 -3.5q-96 0 -157 66zM164 212q0 -77 24 -116t69 -39t69 39t24 116t-24 116t-69 39t-69 -39t-24 -116zM646 277q-1 45 -22.5 68.5t-57.5 23.5q-35 0 -58 -23.5t-28 -68.5h166z" />
    <glyph glyph-name="Scaron" unicode="&#x160;" horiz-adv-x="574" 
d="M46 205h26q12 0 19 -3t13 -9.5t12.5 -17t16.5 -24.5q30 -44 65.5 -65.5t83.5 -21.5q30 0 55.5 10t44 28t29 41.5t10.5 50.5t-10 44.5t-29.5 30t-49 23t-69.5 24.5q-52 19 -91 40t-65 48t-39 61t-13 79q0 47 15 86t42.5 67t65.5 43t84 15q26 0 46 -4.5t35.5 -9.5t27 -9.5
t18.5 -4.5t12 2l11 5q5 2 12.5 4t16.5 2h20v-195h-26q-11 0 -17 2t-10.5 7t-9 15t-11.5 25q-40 85 -120 85q-46 0 -75.5 -26t-29.5 -66q0 -22 8 -37t23 -25.5t36.5 -19t49.5 -17.5q45 -15 86.5 -30.5t76.5 -43.5q85 -66 85 -182q0 -54 -18.5 -99t-51 -77.5t-77 -50
t-97.5 -17.5q-29 0 -53.5 6.5t-44 14t-33.5 13.5t-22 6q-12 0 -17 -7l-8 -9q-4 -5 -11.5 -8.5t-14.5 -3.5h-33v205zM179 921l108 -64l107 64h38l-101 -133h-89l-101 133h38z" />
    <glyph glyph-name="scaron" unicode="&#x161;" horiz-adv-x="412" 
d="M149 68q24 -9 45 -9q37 0 56 12t19 29q0 12 -6.5 19.5t-19.5 14t-33 13.5t-46 19q-27 12 -48.5 24t-36.5 27t-23 35t-8 48q0 63 42.5 100t117.5 37q61 0 95 -24t34 -59q0 -27 -15 -42t-41 -15q-62 0 -65 67q-16 8 -30 8q-22 0 -35 -10.5t-13 -24.5q0 -17 24.5 -27.5
t71.5 -30.5q30 -12 55 -24t43 -28t28 -38t10 -54q0 -66 -47 -107.5t-130 -41.5q-77 0 -121.5 29.5t-44.5 73.5q0 26 16.5 42.5t44.5 16.5q29 0 46 -15.5t17 -42.5q0 -4 -0.5 -9.5t-1.5 -12.5zM98 604l108 -64l107 64h38l-101 -133h-89l-101 133h38z" />
    <glyph glyph-name="Ydieresis" unicode="&#x178;" horiz-adv-x="632" 
d="M188 36q0 23 21 30l14 6q14 5 18 12.5t4 23.5v227l-180 293q-16 25 -36 36l-17 9q-11 5 -17.5 11.5t-6.5 19.5v37h284v-35q0 -8 -5 -15.5t-13 -12.5l-14 -7q-13 -6 -13 -24q0 -9 7 -20l117 -198l120 201q4 6 6.5 10.5t2.5 10.5q0 4 -2 8t-6 6l-17 8q-23 11 -23 29v39h215
v-38q0 -19 -18 -27l-21 -9q-8 -3 -20.5 -14.5t-23.5 -30.5l-172 -280v-234q0 -16 3.5 -23.5t17.5 -12.5l15 -6q20 -7 20 -30v-36h-260v36zM172 854q0 23 17 39.5t40 16.5t40 -16.5t17 -39.5q0 -24 -16.5 -40.5t-40.5 -16.5q-23 0 -40 16.5t-17 40.5zM346 854q0 23 17 39.5
t40 16.5t40 -16.5t17 -39.5q0 -24 -16.5 -40.5t-40.5 -16.5q-23 0 -40 16.5t-17 40.5z" />
    <glyph glyph-name="Zcaron" unicode="&#x17d;" horiz-adv-x="641" 
d="M12 36q0 32 34 81l371 545h-188q-38 0 -60.5 -10.5t-37.5 -39.5q-6 -10 -9 -18.5t-7 -14t-10.5 -8.5t-17.5 -3h-30v179q45 -4 71.5 -5t36.5 -1h436v-29q0 -24 -8.5 -40t-22.5 -37l-375 -552h223q42 0 65 15.5t38 53.5q9 23 14.5 33t25.5 10h38v-195h-587v36zM213 921
l108 -64l107 64h38l-101 -133h-89l-101 133h38z" />
    <glyph glyph-name="zcaron" unicode="&#x17e;" horiz-adv-x="468" 
d="M23 22q0 15 7 29t20 31l206 270h-84q-23 0 -35.5 -5t-20.5 -23l-7 -16q-8 -17 -25 -17h-34v133h372v-30q0 -28 -16 -50l-209 -272h99q26 0 38.5 8.5t23.5 28.5l8 18q9 19 32 19h30v-146h-405v22zM126 604l108 -64l107 64h38l-101 -133h-89l-101 133h38z" />
    <glyph glyph-name="florin" unicode="&#x192;" horiz-adv-x="551" 
d="M381 619q-16 0 -24 -14t-11.5 -41.5t-5 -70t-4.5 -99.5h120v-71h-125q-16 -259 -70.5 -387t-163.5 -128q-40 0 -64 21.5t-24 55.5q0 29 16.5 46.5t45.5 17.5q57 0 63 -62h1q20 0 27.5 26t11 80t7.5 136t18 194h-108v71h116q19 150 75.5 227t137.5 77q38 0 62 -21.5
t24 -55.5q0 -29 -16.5 -46.5t-45.5 -17.5q-57 0 -63 62z" />
    <glyph glyph-name="circumflex" unicode="&#x2c6;" 
d="M205 604h89l101 -133h-38l-107 64l-108 -64h-38z" />
    <glyph glyph-name="caron" unicode="&#x2c7;" 
d="M142 604l108 -64l107 64h38l-101 -133h-89l-101 133h38z" />
    <glyph glyph-name="breve" unicode="&#x2d8;" 
d="M137 602q16 -52 113 -52q98 0 112 52h37q-10 -63 -48.5 -96t-100.5 -33t-101 33t-49 96h37z" />
    <glyph glyph-name="dotaccent" unicode="&#x2d9;" 
d="M191 538q0 23 18 41t41 18q24 0 41.5 -18t17.5 -41q0 -25 -17 -42t-42 -17q-24 0 -41.5 17t-17.5 42z" />
    <glyph glyph-name="ring" unicode="&#x2da;" 
d="M151 568q0 42 28.5 70.5t70.5 28.5t71 -28.5t29 -70.5q0 -21 -8 -39t-21.5 -31.5t-32 -21.5t-38.5 -8q-21 0 -39 8t-31.5 21.5t-21 32t-7.5 38.5zM202 568q0 -20 14 -34.5t34 -14.5t34.5 14.5t14.5 34.5t-14.5 34t-34.5 14q-21 0 -34.5 -14t-13.5 -34z" />
    <glyph glyph-name="ogonek" unicode="&#x2db;" 
d="M308 15q-79 -61 -79 -118q0 -23 13 -36.5t33 -13.5q32 0 50 32l15 -9q-35 -75 -109 -75q-32 0 -51.5 18.5t-19.5 50.5q0 38 31 77t93 74h24z" />
    <glyph glyph-name="tilde" unicode="&#x2dc;" 
d="M109 471q17 114 102 114q16 0 31 -4l53 -14q11 -3 19 -3q31 0 44 40h32q-18 -113 -103 -113q-12 0 -24 3l-51 14q-16 4 -26 4q-32 0 -45 -41h-32z" />
    <glyph glyph-name="hungarumlaut" unicode="&#x2dd;" 
d="M229 584q8 13 16.5 21.5t24.5 8.5q15 0 25 -10.5t10 -25.5q0 -22 -22 -38l-94 -69h-33zM390 589q8 11 16.5 18.5t22.5 7.5q17 0 27 -10.5t10 -26.5q0 -22 -27 -39l-115 -68h-33z" />
    <glyph glyph-name="endash" unicode="&#x2013;" 
d="M0 250h500v-76h-500v76z" />
    <glyph glyph-name="emdash" unicode="&#x2014;" horiz-adv-x="1000" 
d="M0 250h1000v-76h-1000v76z" />
    <glyph glyph-name="quoteleft" unicode="&#x2018;" horiz-adv-x="243" 
d="M123 596q34 -3 52.5 -24t18.5 -55q0 -35 -23.5 -59.5t-59.5 -24.5q-35 0 -58.5 26t-23.5 71q0 68 36.5 124t108.5 98l26 -41q-69 -54 -77 -115z" />
    <glyph glyph-name="quoteright" unicode="&#x2019;" horiz-adv-x="243" 
d="M106 590q-34 3 -53 24t-19 55q0 35 24 59t60 24q35 0 58.5 -25.5t23.5 -70.5q0 -68 -36.5 -124.5t-108.5 -98.5l-26 42q69 54 77 115z" />
    <glyph glyph-name="quotesinglbase" unicode="&#x201a;" horiz-adv-x="243" 
d="M106 -9q-34 3 -53 24.5t-19 55.5q0 35 24 59t60 24q35 0 58.5 -25.5t23.5 -70.5q0 -68 -36.5 -124.5t-108.5 -98.5l-26 42q70 54 77 114z" />
    <glyph glyph-name="quotedblleft" unicode="&#x201c;" horiz-adv-x="461" 
d="M341 596q34 -3 52.5 -24t18.5 -55q0 -35 -24 -59.5t-60 -24.5q-35 0 -58.5 26t-23.5 71q0 68 37 124t109 98l26 -41q-69 -54 -77 -115zM123 596q34 -3 52.5 -24t18.5 -55q0 -35 -23.5 -59.5t-59.5 -24.5q-35 0 -58.5 26t-23.5 71q0 68 36.5 124t108.5 98l26 -41
q-69 -54 -77 -115z" />
    <glyph glyph-name="quotedblright" unicode="&#x201d;" horiz-adv-x="461" 
d="M106 590q-34 3 -53 24t-19 55q0 35 24 59t60 24q35 0 58.5 -25.5t23.5 -70.5q0 -68 -36.5 -124.5t-108.5 -98.5l-26 42q69 54 77 115zM323 590q-34 3 -52.5 24t-18.5 55q0 35 23.5 59t59.5 24q35 0 59 -25.5t24 -70.5q0 -67 -36.5 -124t-109.5 -99l-26 42q69 54 77 115z
" />
    <glyph glyph-name="quotedblbase" unicode="&#x201e;" horiz-adv-x="461" 
d="M106 -9q-34 3 -53 24.5t-19 55.5q0 35 24 59t60 24q35 0 58.5 -25.5t23.5 -70.5q0 -68 -36.5 -124.5t-108.5 -98.5l-26 42q70 54 77 114zM323 -9q-34 3 -52.5 24.5t-18.5 55.5q0 35 23.5 59t59.5 24q35 0 59 -25.5t24 -70.5q0 -68 -37 -124.5t-109 -98.5l-26 42
q70 54 77 114z" />
    <glyph glyph-name="dagger" unicode="&#x2020;" horiz-adv-x="551" 
d="M255 -95q0 269 -55 422q32 46 43.5 84.5t11.5 71.5v9q-21 0 -38.5 -6t-33 -13t-30.5 -13t-31 -6q-26 0 -43 16.5t-17 40.5t17 40.5t43 16.5q17 0 32 -6t30.5 -12.5t32 -12.5t34.5 -6h4v9q0 30 -6 52t-13.5 39.5t-13.5 32t-6 28.5q0 29 15 44.5t44 15.5t44 -15.5t15 -44.5
q0 -14 -6 -28.5t-13 -32t-13 -39.5t-6 -52v-9h4q18 0 34.5 6t32 12.5t31 12.5t31.5 6q26 0 43 -16.5t17 -40.5t-17 -40.5t-43 -16.5q-16 0 -31 6t-30.5 13t-33 13t-38.5 6v-9q0 -33 11.5 -71.5t43.5 -84.5q-55 -153 -55 -422h-41z" />
    <glyph glyph-name="daggerdbl" unicode="&#x2021;" horiz-adv-x="551" 
d="M351 327q-55 -79 -55 -159v-9q21 0 38.5 6t33 13t30.5 13t31 6q26 0 43 -16.5t17 -40.5t-17 -40.5t-43 -16.5q-16 0 -31.5 6t-31 12.5t-32 12.5t-34.5 6h-4v-6q0 -29 6 -51.5t13.5 -40t13.5 -32t6 -28.5q0 -29 -15.5 -44.5t-44.5 -15.5t-44 15.5t-15 44.5q0 14 6 28.5
t13.5 32t13.5 40t6 51.5v6h-4q-18 0 -34.5 -6t-32 -12.5t-30.5 -12.5t-32 -6q-26 0 -43 16.5t-17 40.5t17 40.5t43 16.5q16 0 31 -6t30.5 -13t33 -13t38.5 -6v9q0 80 -55 159q55 79 55 159v9q-21 0 -38.5 -6t-33 -13t-30.5 -12.5t-31 -5.5q-26 0 -43 16.5t-17 40.5t17 40.5
t43 16.5q17 0 32 -6t30.5 -13t32 -13t34.5 -6h4v6q0 29 -6 51.5t-13.5 40t-13.5 32t-6 28.5q0 29 15 44.5t44 15.5t44 -15.5t15 -44.5q0 -14 -6 -28.5t-13 -32t-13 -40t-6 -51.5v-6h4q18 0 34.5 6t32 13t31 13t31.5 6q26 0 43 -16.5t17 -40.5t-17 -40.5t-43 -16.5
q-16 0 -31 5.5t-30.5 12.5t-33 13t-38.5 6v-9q0 -80 55 -159z" />
    <glyph glyph-name="bullet" unicode="&#x2022;" horiz-adv-x="590" 
d="M150 372q0 30 11.5 56.5t31 46t46 30.5t56.5 11t56 -11t45.5 -30.5t31 -46t11.5 -56.5t-11.5 -56t-31 -46t-46 -31.5t-56.5 -11.5t-56 11.5t-45.5 31t-31 46t-11.5 56.5z" />
    <glyph glyph-name="ellipsis" unicode="&#x2026;" horiz-adv-x="1000" 
d="M84 65q0 35 24 59t59 24t59 -24t24 -59t-24 -59.5t-59 -24.5t-59 24.5t-24 59.5zM417 65q0 35 24 59t59 24t59 -24t24 -59t-24 -59.5t-59 -24.5t-59 24.5t-24 59.5zM751 65q0 35 24 59t59 24t59 -24t24 -59t-24 -59.5t-59 -24.5t-59 24.5t-24 59.5z" />
    <glyph glyph-name="perthousand" unicode="&#x2030;" horiz-adv-x="1205" 
d="M28 487q0 47 12 86t34 66.5t52 42.5t67 15q36 0 66.5 -15t52 -42.5t33.5 -66t12 -86.5t-12 -86.5t-33.5 -66t-52 -42.5t-66.5 -15q-37 0 -67 15t-52 42.5t-34 66.5t-12 86zM192 641q-33 0 -47.5 -34.5t-14.5 -108.5q0 -87 12.5 -126t50.5 -39q35 0 48.5 37t13.5 117
q0 81 -13.5 117.5t-49.5 36.5zM643 697l-392 -709h-69l392 709h69zM468 198q0 47 12 86t34 66.5t52 42.5t67 15q36 0 66.5 -15t52 -42.5t33.5 -66t12 -86.5t-12 -86.5t-33.5 -66t-52 -42.5t-66.5 -15q-37 0 -67 15t-52 42.5t-34 66.5t-12 86zM632 352q-33 0 -47.5 -34.5
t-14.5 -108.5q0 -87 12.5 -126t50.5 -39q35 0 48.5 37t13.5 117q0 81 -13.5 117.5t-49.5 36.5zM847 198q0 47 12 86t34 66.5t52 42.5t67 15q36 0 66.5 -15t52.5 -42.5t34 -66t12 -86.5t-12 -86.5t-34 -66t-52.5 -42.5t-66.5 -15q-37 0 -67 15t-52 42.5t-34 66.5t-12 86z
M1011 352q-33 0 -47.5 -34.5t-14.5 -108.5q0 -87 12.5 -126t50.5 -39q35 0 49 37t14 117q0 81 -14 117.5t-50 36.5z" />
    <glyph glyph-name="guilsinglleft" unicode="&#x2039;" horiz-adv-x="287" 
d="M35 212q101 78 151 121.5t60 43.5q5 0 9.5 -5t4.5 -11q0 -10 -25.5 -48t-79.5 -101q54 -63 79.5 -101t25.5 -49q0 -6 -4.5 -11t-9.5 -5q-10 0 -60 44t-151 122z" />
    <glyph glyph-name="guilsinglright" unicode="&#x203a;" horiz-adv-x="287" 
d="M253 212q-101 -78 -151.5 -122t-60.5 -44q-5 0 -9.5 5t-4.5 11q0 10 25.5 48.5t79.5 101.5q-54 63 -79.5 100.5t-25.5 48.5q0 6 4.5 11t9.5 5q10 0 60.5 -43.5t151.5 -121.5z" />
    <glyph glyph-name="fraction" unicode="&#x2044;" horiz-adv-x="167" 
d="M333 697l-430 -709h-70l431 709h69z" />
    <glyph glyph-name="trademark" unicode="&#x2122;" horiz-adv-x="822" 
d="M336 710l6 -94h-16q-4 38 -19 56t-45 18h-3v-205q0 -22 17 -25l15 -2v-16h-130v16l15 2q17 3 17 25v205h-5q-29 0 -43.5 -18t-18.5 -56h-16l6 94h220zM473 710l64 -180l63 180h97v-13l-13 -2q-18 -3 -18 -25v-185q0 -22 18 -25l13 -2v-16h-124v16l15 2q18 3 18 25v178
l-76 -222h-18l-81 226v-182q0 -22 18 -25l17 -2v-16h-96v16l17 2q18 3 18 25v182q0 22 -18 25l-17 2v16h103z" />
    <glyph glyph-name="minus" unicode="&#x2212;" horiz-adv-x="833" 
d="M709 348v-99h-585v99h585z" />
    <glyph glyph-name="fi" unicode="&#xfb01;" horiz-adv-x="562" 
d="M34 27q0 11 5 19t12 11l12 5q12 5 15 13.5t3 23.5v253h-45v34q0 23 16 30l12 5q12 6 16 18.5t6 31t5 43.5t13 55q14 42 37.5 76t54 57.5t66.5 36.5t74 13q59 0 91.5 -27.5t32.5 -70.5q0 -29 -20 -49.5t-49 -20.5q-32 0 -51 20t-19 50v23q-17 5 -21 5q-41 0 -66.5 -49
t-25.5 -146v-63h93h33h17t17 1l113 8v-334q0 -14 3 -23t14 -14l12 -5q6 -3 10.5 -11t4.5 -19v-27h-212v27q0 11 4.5 19t10.5 11l10 5q11 6 13.5 14.5t2.5 22.5v226q0 14 -3.5 20.5t-16.5 6.5h-126v-253q0 -14 2.5 -22.5t13.5 -14.5l10 -5q5 -3 9.5 -11t4.5 -19v-27h-214v27z
" />
    <glyph glyph-name="fl" unicode="&#xfb02;" horiz-adv-x="562" 
d="M34 27q0 11 5 19t12 11l12 5q12 5 15 13.5t3 23.5v253h-45v34q0 23 16 30l12 5q12 6 16 18.5t6 31t5 43.5t13 55q14 42 37 75.5t53 57t65.5 36.5t72.5 13q14 0 28 -2l28 -4l93 6v-652q0 -14 3 -23t14 -14l12 -5q6 -3 10.5 -11t4.5 -19v-27h-212v27q0 11 4.5 19t10.5 11
l10 5q11 6 13.5 14.5t2.5 22.5v226q0 14 -3.5 20.5t-16.5 6.5h-126v-253q0 -14 2.5 -22.5t13.5 -14.5l10 -5q5 -3 9.5 -11t4.5 -19v-27h-214v27zM354 424v171q-34 12 -34 64v6t1 12q-17 5 -21 5q-41 0 -66.5 -49t-25.5 -146v-63h146z" />
  </font>
</defs>
</svg>
